<svg width="1546" height="1296" viewBox="0 0 1546 1296" fill="none" xmlns="http://www.w3.org/2000/svg">
<g clip-path="url(#clip0_122_714)">
<path d="M1056.18 160L1158.04 160.087C1163.56 160.087 1169.03 161.163 1174.13 163.271C1179.24 165.394 1183.88 168.491 1187.77 172.416C1191.67 176.313 1194.77 180.965 1196.86 186.069C1198.95 191.172 1200.03 196.653 1200 202.178L1199.91 304.039C1199.93 309.564 1198.84 315.031 1196.73 320.134C1194.61 325.237 1191.51 329.875 1187.6 333.771C1183.69 337.668 1179.05 340.765 1173.93 342.858C1168.83 344.952 1163.35 346.028 1157.84 345.999L1055.97 345.912C1050.45 345.926 1044.98 344.836 1039.88 342.728C1034.76 340.605 1030.14 337.508 1026.23 333.597C1022.33 329.686 1019.25 325.048 1017.16 319.93C1015.05 314.827 1013.97 309.346 1014 303.835L1014.09 201.974C1014.15 190.837 1018.59 180.18 1026.49 172.329C1034.37 164.463 1045.04 160.029 1056.18 160Z" fill="#616161" stroke="black" stroke-width="4"/>
<path d="M1086.93 227.868L1060.15 254.649" stroke="black" stroke-width="4" stroke-linecap="round" stroke-linejoin="round"/>
<path d="M1060.15 227.868L1086.93 254.649" stroke="black" stroke-width="4" stroke-linecap="round" stroke-linejoin="round"/>
<path d="M1155.06 227.912L1128.28 254.679" stroke="black" stroke-width="4" stroke-linecap="round" stroke-linejoin="round"/>
<path d="M1128.28 227.897L1155.18 254.78" stroke="black" stroke-width="4" stroke-linecap="round" stroke-linejoin="round"/>
<path d="M1095.86 285.836L1119.5 285.778" stroke="black" stroke-width="4" stroke-linecap="round" stroke-linejoin="round"/>
<path d="M477.9 757.48H739.88C750.53 757.48 759.1 766.11 759.1 776.77V976.44C759.1 987.1 750.47 995.66 739.88 995.66H477.9C467.24 995.66 458.61 987.03 458.61 976.44V776.77C458.68 766.11 467.24 757.48 477.9 757.48Z" fill="#616161" stroke="black" stroke-width="4"/>
<path d="M501.25 782.16H584.05C588.93 782.16 592.93 786.16 592.93 791.04V791.42C592.93 796.31 588.93 800.31 584.05 800.31H501.25C496.36 800.31 492.37 796.31 492.37 791.42V791.04C492.37 786.16 496.36 782.16 501.25 782.16Z" fill="white" stroke="black" stroke-width="4"/>
<path d="M705.68 782.16H759.1V800.31H705.68C700.79 800.31 696.8 796.31 696.8 791.42V791.04C696.8 786.16 700.79 782.16 705.68 782.16Z" fill="white" stroke="black" stroke-width="4"/>
<path d="M570.73 866.86H598.39C603.27 866.86 607.27 870.86 607.27 875.75V876.13C607.27 881.01 603.27 885.01 598.39 885.01H570.73C565.84 885.01 561.84 881.01 561.84 876.13V875.75C561.84 870.8 565.84 866.86 570.73 866.86Z" fill="#8FFFA9" stroke="black" stroke-width="4"/>
<path d="M543.44 951.57H571.11C575.99 951.57 579.99 955.56 579.99 960.45V960.83C579.99 965.71 575.99 969.71 571.11 969.71H543.44C538.56 969.71 534.56 965.71 534.56 960.83V960.45C534.56 955.5 538.56 951.57 543.44 951.57Z" fill="#8FFFA9" stroke="black" stroke-width="4"/>
<path d="M603.84 951.57H657.46C662.34 951.57 666.34 955.56 666.34 960.45V960.83C666.34 965.71 662.34 969.71 657.46 969.71H603.84C598.96 969.71 594.96 965.71 594.96 960.83V960.45C594.96 955.5 598.9 951.57 603.84 951.57Z" fill="#8FFFA9" stroke="black" stroke-width="4"/>
<path d="M570.73 909.18H665.2C670.08 909.18 674.08 913.18 674.08 918.07V918.45C674.08 923.33 670.08 927.33 665.2 927.33H570.73C565.84 927.33 561.84 923.33 561.84 918.45V918.07C561.84 913.18 565.84 909.18 570.73 909.18Z" fill="#FFF8A0" stroke="black" stroke-width="4"/>
<path d="M501.25 824.48H584.05C588.93 824.48 592.93 828.48 592.93 833.36V833.74C592.93 838.63 588.93 842.63 584.05 842.63H501.25C496.36 842.63 492.37 838.63 492.37 833.74V833.36C492.37 828.48 496.36 824.48 501.25 824.48Z" fill="#DDC276" stroke="black" stroke-width="4"/>
<path d="M627.83 824.35H669.77C674.65 824.35 678.65 828.35 678.65 833.24V833.62C678.65 838.5 674.65 842.5 669.77 842.5H627.83C622.94 842.5 618.95 838.5 618.95 833.62V833.24C618.95 828.29 622.94 824.35 627.83 824.35Z" fill="#DDC276" stroke="black" stroke-width="4"/>
<path d="M477.9 757.48H513.81V995.66H477.9C467.24 995.66 458.61 987.03 458.61 976.44V776.77C458.61 766.11 467.24 757.48 477.9 757.48Z" fill="#616161" stroke="black" stroke-width="4"/>
<path opacity="0.2" d="M477.9 757.48H513.81V995.66H477.9C467.24 995.66 458.61 987.03 458.61 976.44V776.77C458.61 766.11 467.24 757.48 477.9 757.48Z" fill="#343434" stroke="black" stroke-width="4"/>
<path d="M759.1 812.04H514.45" stroke="black" stroke-width="4" stroke-linejoin="round"/>
<path d="M759.1 854.87H514.45" stroke="black" stroke-width="4" stroke-linejoin="round"/>
<path d="M759.1 898.33H514.45" stroke="black" stroke-width="4" stroke-linejoin="round"/>
<path d="M759.1 939.19H514.45" stroke="black" stroke-width="4" stroke-linejoin="round"/>
<path d="M513.81 757.48V995.66" stroke="black" stroke-width="4" stroke-linejoin="round"/>
<path d="M480.06 791.23H492.37" stroke="black" stroke-width="4" stroke-linecap="round" stroke-linejoin="round"/>
<path d="M480.06 833.43H492.37" stroke="black" stroke-width="4" stroke-linecap="round" stroke-linejoin="round"/>
<path d="M480.06 875.62H492.37" stroke="black" stroke-width="4" stroke-linecap="round" stroke-linejoin="round"/>
<path d="M480.06 918.45H492.37" stroke="black" stroke-width="4" stroke-linecap="round" stroke-linejoin="round"/>
<path d="M480.06 960.64H492.37" stroke="black" stroke-width="4" stroke-linecap="round" stroke-linejoin="round"/>
<path d="M207.49 585.46C198.61 585.44 190.1 581.91 183.82 575.63C177.54 569.35 174 560.84 174 551.96V234.5C174 225.62 177.54 217.11 183.82 210.83C190.1 204.55 198.61 201.01 207.49 201H619.37C628.25 201.01 636.76 204.55 643.04 210.83C649.32 217.11 652.85 225.62 652.86 234.5V551.96C652.85 560.84 649.32 569.35 643.04 575.63C636.76 581.91 628.25 585.44 619.37 585.46H207.49Z" fill="#CECECE" stroke="black" stroke-width="4"/>
<path d="M174.02 272.96H654.34" stroke="black" stroke-width="4"/>
<path d="M209.24 248.98C216.27 248.98 221.98 243.28 221.98 236.25C221.98 229.21 216.27 223.51 209.24 223.51C202.2 223.51 196.5 229.21 196.5 236.25C196.5 243.28 202.2 248.98 209.24 248.98Z" fill="#E1E1E1" stroke="black" stroke-width="4"/>
<path d="M247.84 248.98C254.88 248.98 260.58 243.28 260.58 236.25C260.58 229.21 254.88 223.51 247.84 223.51C240.81 223.51 235.1 229.21 235.1 236.25C235.1 243.28 240.81 248.98 247.84 248.98Z" fill="#E1E1E1" stroke="black" stroke-width="4"/>
<path d="M286.44 248.98C293.48 248.98 299.18 243.28 299.18 236.25C299.18 229.21 293.48 223.51 286.44 223.51C279.41 223.51 273.7 229.21 273.7 236.25C273.7 243.28 279.41 248.98 286.44 248.98Z" fill="#E1E1E1" stroke="black" stroke-width="4"/>
<path d="M344.92 440.29H241.57L321.37 344.05V512.61" stroke="black" stroke-width="4" stroke-linecap="round" stroke-linejoin="round"/>
<path d="M591.79 440.29H488.25L568.24 344.05V512.61" stroke="black" stroke-width="4" stroke-linecap="round" stroke-linejoin="round"/>
<path d="M408.64 344.05H426.96C446.58 344.05 462.46 359.93 462.46 379.56V475.43C462.46 495.05 446.58 510.93 426.96 510.93H408.64C389.02 510.93 373.13 495.05 373.13 475.43V379.56C373.13 359.93 389.02 344.05 408.64 344.05Z" stroke="black" stroke-width="4" stroke-linecap="round" stroke-linejoin="round"/>
<path d="M1008.96 664.86H1224.58C1234.76 664.87 1244.52 668.91 1251.72 676.11C1258.92 683.31 1262.96 693.07 1262.97 703.25V726.85C1262.96 737.03 1258.92 746.8 1251.72 753.99C1244.52 761.19 1234.76 765.24 1224.58 765.24H1008.96C998.78 765.24 989.02 761.19 981.82 753.99C974.62 746.8 970.58 737.03 970.57 726.85V703.25C970.58 693.07 974.62 683.31 981.82 676.11C989.02 668.91 998.78 664.87 1008.96 664.86Z" fill="#FFF8A0" stroke="black" stroke-width="4"/>
<path d="M1024.3 734.58C1035.13 734.58 1043.91 725.8 1043.91 714.96C1043.91 704.13 1035.13 695.34 1024.3 695.34C1013.46 695.34 1004.68 704.13 1004.68 714.96C1004.68 725.8 1013.46 734.58 1024.3 734.58Z" stroke="black" stroke-width="4" stroke-linecap="round" stroke-linejoin="round"/>
<path d="M1038.18 728.85L1044.15 734.82" stroke="black" stroke-width="4" stroke-linecap="round" stroke-linejoin="round"/>
<path d="M1068.66 731.98H1223.19" stroke="black" stroke-width="4" stroke-linecap="round" stroke-linejoin="round"/>
<path d="M1187.39 465.46L1145.01 533.76C1138.94 543.53 1137.21 555.37 1140.17 566.48L1160.2 641.43C1166.18 663.84 1189.22 677.21 1211.67 671.19L1307.7 645.58C1330.15 639.61 1343.48 616.56 1337.51 594.11L1317.47 519.15C1314.51 508.05 1307.06 498.62 1296.94 493.2L1226.18 455.1C1212.51 447.8 1195.54 452.29 1187.39 465.46Z" fill="white" stroke="black" stroke-width="4"/>
<path d="M1208.22 465.71C1212.07 464.67 1216.16 465.17 1219.72 467.04L1290.48 505.14C1297.29 508.84 1302.27 515.16 1304.3 522.66L1324.33 597.66C1328.38 612.86 1319.35 628.4 1304.2 632.5L1208.12 658.06C1192.92 662.11 1177.38 653.08 1173.28 637.93L1153.3 562.97C1151.32 555.47 1152.51 547.53 1156.55 540.91L1198.89 472.62C1201.01 469.21 1204.32 466.75 1208.22 465.71ZM1204.71 452.58C1197.51 454.51 1191.34 459.1 1187.39 465.46L1145.01 533.76C1138.94 543.53 1137.21 555.37 1140.17 566.48L1160.2 641.43C1166.18 663.84 1189.22 677.21 1211.67 671.19L1307.7 645.58C1330.15 639.61 1343.48 616.56 1337.51 594.11L1317.47 519.15C1314.51 508.05 1307.06 498.62 1296.94 493.2L1226.18 455.1C1219.57 451.55 1211.92 450.66 1204.71 452.58Z" fill="#616161" stroke="black" stroke-width="4"/>
<path d="M1276.33 520.48L1176.54 547.11L1201.93 642.27L1301.73 615.65L1276.33 520.48Z" fill="#BEBEBE" stroke="black" stroke-width="4"/>
<path d="M1243.35 597.42L1139.63 564.5L1160.15 641.38C1166.13 663.79 1189.17 677.16 1211.62 671.14L1307.6 645.53C1330.05 639.56 1343.38 616.51 1337.41 594.11L1316.88 517.23L1243.35 597.42Z" fill="#616161" stroke="black" stroke-width="4"/>
<path d="M1237.18 574.32L1165.19 652.93C1175.01 668.52 1193.81 675.93 1211.62 671.19L1307.6 645.53C1325.42 640.79 1338.05 625 1338.79 606.59L1237.18 574.32Z" fill="#616161" stroke="black" stroke-width="4"/>
<path d="M1233.98 626.87L1266.15 618.29C1270.69 617.06 1275.33 619.77 1276.56 624.31C1277.8 628.85 1275.08 633.49 1270.54 634.72L1238.37 643.31C1233.83 644.54 1229.19 641.83 1227.96 637.29C1226.72 632.7 1229.44 628.06 1233.98 626.87Z" fill="white" stroke="black" stroke-width="4"/>
<path d="M1240.1 633.98L1264.37 627.52" stroke="black" stroke-width="4" stroke-linecap="round" stroke-linejoin="round"/>
<path d="M1165.14 653.28L1221.69 590.8" stroke="black" stroke-width="4" stroke-linecap="round" stroke-linejoin="round"/>
<path d="M1258.65 581.13L1338.39 606.4" stroke="black" stroke-width="4" stroke-linecap="round" stroke-linejoin="round"/>
<path d="M1154.28 567.66L1140.71 563.56" stroke="black" stroke-width="4" stroke-linecap="round" stroke-linejoin="round"/>
<path d="M1305.87 527.69L1315.94 517.38" stroke="black" stroke-width="4" stroke-linecap="round" stroke-linejoin="round"/>
<path d="M1269.13 424.28H1344.12C1347.2 424.28 1350.25 424.89 1353.11 426.07C1355.96 427.25 1358.55 428.98 1360.73 431.16C1362.91 433.34 1364.64 435.93 1365.82 438.79C1367 441.64 1367.61 444.69 1367.61 447.78V478.6C1367.61 481.68 1367 484.74 1365.82 487.59C1364.64 490.44 1362.91 493.03 1360.73 495.21C1358.55 497.4 1355.96 499.13 1353.11 500.31C1350.25 501.49 1347.2 502.09 1344.12 502.09H1269.13C1266.05 502.09 1263 501.49 1260.14 500.31C1257.29 499.13 1254.7 497.4 1252.52 495.21C1250.34 493.03 1248.61 490.44 1247.43 487.59C1246.25 484.74 1245.64 481.68 1245.64 478.6V447.78C1245.64 444.69 1246.25 441.64 1247.43 438.79C1248.61 435.93 1250.34 433.34 1252.52 431.16C1254.7 428.98 1257.29 427.25 1260.14 426.07C1263 424.89 1266.05 424.28 1269.13 424.28Z" fill="#8FFFA9" stroke="black" stroke-width="4"/>
<path d="M1288.83 480.01L1269.49 463.41L1288.83 446.89" stroke="black" stroke-width="4" stroke-linecap="round" stroke-linejoin="round"/>
<path d="M1324.33 446.89L1343.67 463.41L1324.33 480.01" stroke="black" stroke-width="4" stroke-linecap="round" stroke-linejoin="round"/>
<path d="M1312.14 445.83L1301.02 480.45" stroke="black" stroke-width="4" stroke-linecap="round" stroke-linejoin="round"/>
<path d="M457.93 1077.36C493.18 1077.36 521.75 1048.79 521.75 1013.55C521.75 978.31 493.18 949.74 457.93 949.74C422.69 949.74 394.12 978.31 394.12 1013.55C394.12 1048.79 422.69 1077.36 457.93 1077.36Z" fill="#8FFFA9" stroke="black" stroke-width="4"/>
<path d="M457.93 1051.98C479.16 1051.98 496.36 1034.77 496.36 1013.55C496.36 992.32 479.16 975.12 457.93 975.12C436.71 975.12 419.51 992.32 419.51 1013.55C419.51 1034.77 436.71 1051.98 457.93 1051.98Z" fill="white" stroke="black" stroke-width="4"/>
<path d="M470.98 992.94L457.93 1013.55L467.56 1025.88" stroke="black" stroke-width="4" stroke-linecap="round" stroke-linejoin="round"/>
<path d="M457.9 755.33L457.44 690.12L472.34 705.4C481.93 704.42 491.45 705.7 500.39 709.28L499.15 688.41L521.76 694.66L522.83 681.24C510.67 670.13 494.77 663.97 478.3 664C441.76 664 412.14 693.62 412.14 730.15C412.11 750.58 421.58 769.88 437.72 782.4L431.53 745.96L457.9 755.33Z" fill="#FE5D32" stroke="black" stroke-width="4"/>
<path d="M465.28 731.28C471.62 728.79 478.65 728.24 485.32 729.53L473.08 716.91C470.39 717.22 467.85 717.8 465.22 718.53L465.28 731.28Z" fill="#FE5D32" stroke="black" stroke-width="4"/>
<path d="M529.87 688.62L528.62 704.34L507.36 698.45L510.67 755.45L498.99 743.52L495.07 746.85C487.11 738.91 474.8 738.24 465.37 744.33L465.53 766.05L441.21 757.32L446.41 787.98C456.18 793.37 467.18 796.21 478.36 796.18C514.9 796.18 544.51 766.57 544.51 730.03C544.51 714.99 539.34 700.35 529.87 688.62Z" fill="#FE5D32" stroke="black" stroke-width="4"/>
<path d="M501.94 735.61L501.17 722.53C495.78 719.59 489.67 717.6 483.54 716.89L501.94 735.61Z" fill="#FE5D32" stroke="black" stroke-width="4"/>
<path d="M465.22 718.61C467.82 717.87 470.52 717.35 473.21 717.05L465.16 708.81L465.22 718.61Z" fill="white" stroke="black" stroke-width="4"/>
<path d="M501.18 722.62L500.38 709.11C491.44 705.56 481.76 704.21 472.17 705.22L483.78 717.14C489.9 717.81 495.78 719.68 501.18 722.62Z" fill="white" stroke="black" stroke-width="4"/>
<path d="M436.22 722.31L444.64 730.74C448.44 726.94 452.85 723.81 457.69 721.49L457.59 708.59C449.57 711.56 442.25 716.25 436.22 722.31Z" fill="white" stroke="black" stroke-width="4"/>
<path d="M512.05 730.74L520.47 722.31C516.79 718.64 512.69 715.48 508.19 712.88L509.08 728.01C510.09 728.9 511.07 729.79 512.05 730.74Z" fill="white" stroke="black" stroke-width="4"/>
<path d="M465.28 731.16L465.37 744.46C474.81 738.36 487.24 739.68 495.17 747.61L499.12 743.66L485.19 729.39C478.54 728.07 471.62 728.68 465.28 731.16Z" fill="white" stroke="black" stroke-width="4"/>
<path d="M453.07 739.16L457.82 743.94L457.76 735.21C456.11 736.4 454.51 737.72 453.07 739.16Z" fill="white" stroke="black" stroke-width="4"/>
<path d="M469.91 756.03L478.33 764.46L486.75 756.03C482.09 751.38 474.56 751.38 469.91 756.03Z" fill="white" stroke="black" stroke-width="4"/>
<path d="M1145.97 1070.07L1183.49 1043.35C1183.49 1043.35 1169.31 1013.02 1176.94 999.61C1162.87 996.34 1149.46 988.16 1139.09 969.18C1135.39 962.31 1130.81 953.47 1126.44 945.29L1029.81 986.41L1040.39 1004.52C1054.46 1023.17 1069.84 1040.95 1086.3 1057.74C1087.18 1056.76 1145.97 1070.07 1145.97 1070.07Z" fill="#ECBE98" stroke="black" stroke-width="4"/>
<path d="M853.88 1062C854.64 1053.82 855.62 1044.87 856.82 1035.71L856.6 1026.33L752.22 1035.71C752.22 1035.71 753.21 1066.47 760.08 1104.32L801.31 1147.83L857.37 1151L870.78 1111.08C859.44 1100.5 851.59 1085.45 853.88 1062Z" fill="#ECBE98" stroke="black" stroke-width="4"/>
<path d="M789.31 386.96C804.58 377.15 833.15 376.06 849.41 396.78C864.67 416.41 852.68 447.06 852.68 447.06L781.67 465.71L758.77 403.43L789.31 386.96Z" fill="#5C422C" stroke="black" stroke-width="4"/>
<path d="M480.53 595.07C478.46 595.72 472.57 597.25 470.5 597.8C423.6 611.97 392.95 617.43 392.95 625.06C392.95 633.9 410.4 633.79 410.4 633.79C381.93 645.79 378.55 647.97 373.32 651.24C364.59 656.69 365.68 665.42 373.32 666.51C368.95 676.33 374.41 679.6 379.86 679.6C378.77 681.78 379.86 690.5 390.77 688.32C390.77 695.96 406.04 693.78 415.85 690.5C424.14 687.78 444.32 679.6 444.32 679.6C492.42 673.05 504.09 657.02 504.09 657.02L480.53 595.07Z" fill="#ECBE98" stroke="black" stroke-width="4"/>
<path d="M1132.33 344.32C1136.69 342.14 1138.88 333.41 1132.33 331.23C1134.51 322.5 1126.88 321.41 1113.68 323.59L1096.23 326.87C1097.32 315.96 1085.32 320.32 1069.94 327.96C1058.82 333.52 1039.3 345.84 1021.3 357.62L1055.55 407.25C1055.55 407.25 1075.29 404.52 1092.74 385.98C1098.19 383.8 1111.5 379.44 1119.03 376.17C1127.75 372.35 1132.11 368.53 1132.11 365.26C1132.11 361.77 1127.75 360.9 1117.93 363.08C1134.62 355.22 1136.8 349.77 1132.33 344.32Z" fill="#ECBE98" stroke="black" stroke-width="4"/>
<path d="M793.02 358.82C793.02 358.82 796.4 351.62 794.11 347.59C792.25 344.32 783.09 345.63 783.09 345.63C782.33 344.21 766.73 312.14 743.93 309.41C732.92 307.56 714.27 313.45 699.65 325.12C675.22 344.54 679.04 365.59 685.36 382.93C688.64 391.98 701.29 421.76 710.89 440.73L780.04 425.36L776.87 417.07C798.8 413.79 806.54 405.72 807.96 393.62C809.16 380.42 802.83 369.95 793.02 358.82Z" fill="#ECBE98" stroke="black" stroke-width="4"/>
<path d="M1024.13 355.55C985.09 380.96 941.24 412.05 941.24 412.05C941.24 412.05 876.89 420.78 842.97 425.14C807.96 429.61 785.05 437.14 785.05 437.14L779.6 424.05L711 440.52C714.05 446.52 716.67 451.53 718.3 454.59C698.67 464.4 674.57 480.87 642.94 508.14C619.7 528.21 578.58 559.51 578.58 559.51C578.58 559.51 548.92 573.69 476.82 595.72L501.15 658.87C501.15 658.87 581.75 644.8 618.07 628.23C644.35 616.23 690.16 585.69 710.89 569.22L752.88 629.1L873.51 607.61L851.8 511.41C851.8 511.41 883.43 505.74 912.99 499.41C968.73 487.42 993.81 467.78 1009.08 454.7C1026.64 439.64 1043.11 423.07 1058.27 405.51L1024.13 355.55Z" fill="#FFF461" stroke="black" stroke-width="4"/>
<path d="M697.91 319.89C712.41 308.32 731.06 305.6 742.08 307.34C749.72 308.22 757.24 312.8 763.57 318.9C763.57 318.9 757.57 352.17 743.5 371.04C732.26 362.75 709.25 364.93 708.6 382.06C708.05 400.71 737.83 407.47 737.83 407.47C741.32 414.12 764.99 465.6 730.19 497.23C694.09 529.95 652.64 500.51 652.64 500.51L621.78 525.37C621.78 525.37 600.4 504.87 608.91 467.78C621.99 410.96 692.45 405.83 692.45 405.83C692.45 405.83 688.53 397.11 683.51 383.36C677.29 365.91 673.48 339.08 697.91 319.89Z" fill="#5C422C" stroke="black" stroke-width="4"/>
<path d="M777.09 417.07C768.91 418.16 762.48 416.19 758.11 415.21" stroke="black" stroke-width="4" stroke-linecap="round" stroke-linejoin="round"/>
<path d="M785.16 437.35L789.53 447.17" stroke="black" stroke-width="4" stroke-linecap="round" stroke-linejoin="round"/>
<path d="M851.59 510.54L845.7 485.24" stroke="black" stroke-width="4" stroke-linecap="round" stroke-linejoin="round"/>
<path d="M711 568.78L728.45 555.69" stroke="black" stroke-width="4" stroke-linecap="round" stroke-linejoin="round"/>
<path d="M692.24 404.63L702.82 426.56" stroke="black" stroke-width="4" stroke-linecap="round" stroke-linejoin="round"/>
<path d="M640.75 494.94L651.66 499.96" stroke="black" stroke-width="4" stroke-linecap="round" stroke-linejoin="round"/>
<path d="M788.3 374.37C788.88 371.05 787.52 368.04 785.26 367.65C783.01 367.25 780.71 369.63 780.13 372.95C779.56 376.27 780.92 379.28 783.17 379.68C785.42 380.07 787.73 377.69 788.3 374.37Z" fill="#231F1F" stroke="black" stroke-width="4"/>
<path d="M1024.24 355.22L1058.16 405.4" stroke="black" stroke-width="4" stroke-linecap="round" stroke-linejoin="round"/>
<path d="M994.8 375.95L1032.97 432.88" stroke="black" stroke-width="4" stroke-linecap="round" stroke-linejoin="round"/>
<path d="M477.15 595.94L500.82 658.11" stroke="black" stroke-width="4" stroke-linecap="round" stroke-linejoin="round"/>
<path d="M511.94 584.6L536.59 649.93" stroke="black" stroke-width="4" stroke-linecap="round" stroke-linejoin="round"/>
<path d="M1096.34 327.96C1090.89 338.86 1081.07 347.59 1081.07 347.59C1081.07 347.59 1082.16 368.42 1064.71 380.31" stroke="black" stroke-width="4" stroke-linecap="round" stroke-linejoin="round"/>
<path d="M1131.35 331.23L1091.98 346.5" stroke="black" stroke-width="4" stroke-linecap="round" stroke-linejoin="round"/>
<path d="M1130.15 345.41L1093.07 359.7" stroke="black" stroke-width="4" stroke-linecap="round" stroke-linejoin="round"/>
<path d="M1117.06 363.95L1094.16 372.68" stroke="black" stroke-width="4" stroke-linecap="round" stroke-linejoin="round"/>
<path d="M410.4 633.79C410.4 633.79 429.05 632.7 430.03 632.7C431.12 632.7 449.66 646.88 473.77 637.06" stroke="black" stroke-width="4" stroke-linecap="round" stroke-linejoin="round"/>
<path d="M373.21 666.62L423.49 647.97" stroke="black" stroke-width="4" stroke-linecap="round" stroke-linejoin="round"/>
<path d="M379.75 679.71L432.21 661.06" stroke="black" stroke-width="4" stroke-linecap="round" stroke-linejoin="round"/>
<path d="M390.77 688.43L436.47 673.05" stroke="black" stroke-width="4" stroke-linecap="round" stroke-linejoin="round"/>
<path d="M912.01 1145C909.83 1139.87 905.47 1134.31 897.61 1129.73C888.89 1124.6 878.85 1118.93 870.67 1111.08C859.44 1118.39 852.68 1131.04 852.68 1144.45C852.68 1144.67 852.68 1144.78 852.68 1145H810.14C810.14 1122.09 791.49 1103.44 768.58 1103.44C765.75 1103.44 762.8 1103.77 760.08 1104.32C762.37 1117.29 765.42 1131.26 769.35 1145C770.77 1150.12 772.4 1155.25 774.04 1160.27H913.97C914.85 1155.14 914.19 1149.8 912.01 1145Z" fill="#FFF8A0" stroke="black" stroke-width="4"/>
<path d="M795.96 1124.17L856.49 1089.7" stroke="black" stroke-width="4" stroke-linecap="round" stroke-linejoin="round"/>
<path d="M857.15 1090.57C857.15 1090.57 899.69 1103.66 900.78 1091.55C901.76 1079.34 869.26 1086.21 857.15 1090.57Z" stroke="black" stroke-width="4" stroke-linecap="round" stroke-linejoin="round"/>
<path d="M855.19 1089.7C855.19 1089.7 907.65 1062.65 900.67 1052.62C893.8 1042.47 864.78 1075.85 855.19 1089.7Z" stroke="black" stroke-width="4" stroke-linecap="round" stroke-linejoin="round"/>
<path d="M1041.7 795.43C1009.3 747.44 939.06 664.33 872.09 605.32L837.3 611.54V611.43L821.37 614.37L783.85 621.25C783.85 621.14 783.85 621.35 783.85 621.25L751.13 627.24C751.13 627.24 727.68 676.54 742.41 746.35C757.68 818.44 772.84 864.8 764.22 883.99C739.14 939.73 710.67 983.47 710.67 1035.82H752.22H856.93C862.49 991.43 871.11 938.86 873.84 898.28C873.84 897.96 873.84 897.52 873.95 897.19C874.05 896.21 874.05 895.23 874.16 894.25C874.16 893.59 874.27 892.83 874.27 892.17C874.27 891.3 874.38 890.54 874.38 889.67C874.38 888.79 874.49 888.03 874.49 887.16C874.49 886.5 874.49 885.74 874.6 885.09C874.6 884.1 874.71 883.12 874.71 882.25C874.71 881.7 874.71 881.16 874.71 880.61C874.71 879.09 874.71 877.67 874.71 876.25C874.71 852.69 869.36 809.17 862.6 763.91C864.89 765.98 867.18 768.16 869.58 770.23C924.66 819.21 952.04 842.33 959.67 872.87C974.51 932.2 964.04 973.32 1005.7 1027.53L1126.88 946.49C1100.48 897.41 1065.36 830.44 1041.7 795.43Z" fill="#8FFFA9"/>
<path d="M783.85 621.25L821.37 614.37L837.3 611.43V611.54L872.09 605.32C939.06 664.33 1009.3 747.44 1041.7 795.43C1065.36 830.44 1100.48 897.41 1126.88 946.49L1005.7 1027.53C964.04 973.32 974.51 932.2 959.67 872.87C952.04 842.33 924.66 819.21 869.58 770.23C867.18 768.16 864.89 765.98 862.6 763.91C869.36 809.17 874.71 852.69 874.71 876.25C874.71 877.67 874.71 879.09 874.71 880.61C874.71 881.16 874.71 881.7 874.71 882.25C874.71 883.12 874.6 884.1 874.6 885.09C874.49 885.74 874.49 886.5 874.49 887.16C874.49 888.03 874.38 888.79 874.38 889.67C874.38 890.54 874.27 891.3 874.27 892.17C874.27 892.83 874.16 893.59 874.16 894.25C874.05 895.23 874.05 896.21 873.95 897.19C873.84 897.52 873.84 897.96 873.84 898.28C871.11 938.86 862.49 991.43 856.93 1035.82H752.22H710.67C710.67 983.47 739.14 939.73 764.22 883.99C772.84 864.8 757.68 818.44 742.41 746.35C727.68 676.54 751.13 627.24 751.13 627.24L783.85 621.25ZM783.85 621.25C783.85 621.14 783.85 621.35 783.85 621.25Z" stroke="black" stroke-width="4"/>
<path d="M776.44 623.43C763.13 678.62 772.73 729.99 794.87 828.26C812.32 905.81 769.78 922.28 765.42 1035.93" stroke="black" stroke-width="4" stroke-linecap="round" stroke-linejoin="round"/>
<path d="M861.84 763.69L851.91 702.61" stroke="black" stroke-width="4" stroke-linecap="round" stroke-linejoin="round"/>
<path d="M1233.66 1005.17C1228.97 1002.23 1222.31 1000.04 1213.15 1000.7C1202.03 1001.46 1189.16 1002.44 1176.83 999.61C1169.09 1012.91 1169.85 1029.28 1178.47 1042.04L1178.8 1042.47L1146.29 1064.5C1132.99 1046.62 1108.01 1042.47 1089.69 1054.91C1088.49 1055.78 1087.29 1056.65 1086.2 1057.63C1095.25 1066.8 1105.17 1076.28 1115.86 1085.34C1119.9 1088.72 1124.04 1092.1 1128.41 1095.26L1153.16 1078.47L1190.14 1053.38L1204.97 1043.35L1244.02 1016.95C1241.62 1012.04 1238.02 1008.01 1233.66 1005.17Z" fill="#FFF8A0" stroke="black" stroke-width="4"/>
<path d="M1156.65 988.81C1156.65 988.81 1199.41 976.05 1193.41 965.47C1187.41 954.89 1164.29 978.56 1156.65 988.81Z" stroke="black" stroke-width="4" stroke-linecap="round" stroke-linejoin="round"/>
<path d="M1154.36 989.14C1154.36 989.14 1182.94 937.66 1171.6 933.08C1160.47 928.49 1154.91 972.45 1154.36 989.14Z" stroke="black" stroke-width="4" stroke-linecap="round" stroke-linejoin="round"/>
<path d="M1122.52 1054.36L1155.67 988.37" stroke="black" stroke-width="4" stroke-linecap="round" stroke-linejoin="round"/>
<path d="M751.24 627.14L872.42 605.32" stroke="black" stroke-width="4" stroke-linecap="round" stroke-linejoin="round"/>
<path d="M767.93 346.93C771.64 344.1 775.89 348.35 773.06 352.06C769.35 354.9 765.09 350.75 767.93 346.93Z" fill="black" stroke="black" stroke-width="4"/>
</g>
<defs>
<clipPath id="clip0_122_714">
<rect width="1546" height="1296" fill="white"/>
</clipPath>
</defs>
</svg>
