<svg xmlns="http://www.w3.org/2000/svg" height="1200" width="1600" version="1.1" xmlns:xlink="http://www.w3.org/1999/xlink" ><rect fill="#f3ebe900" width="1600" height="1200"></rect><g><path d="M543.04 603.01C543.04 592.71 543.35 581.78 543.98 570.55 543.2 570.39 522.28 564.62 522.13 520.76H521.97C519.16 520.76 511.36 519.83 509.64 511.09 507.3 499.7 507.62 484.4 513.7 476.13 516.51 472.54 519.79 470.67 523.69 470.2 523.85 459.43 529.78 451.79 538.05 451.79 540.08 451.79 542.1 452.1 543.98 452.88 545.69 443.36 552.4 441.33 557.87 441.33 562.55 441.33 566.92 442.73 568.63 443.36 551.94 401.69 548.97 387.18 556.46 381.25 557.24 380.62 558.18 380.31 559.11 380.31 571.13 380.31 594.85 428.07 602.19 445.39 606.56 455.84 624.19 515.15 641.2 572.42L642.45 576.48 640.58 577.26 546.32 603.16 543.04 603.01Z" fill="#ecbe98" opacity="1" stroke-width="4" stroke="#000000"></path><path d="M1056.01 618.15L1054.76 615.65C1048.67 603.63 1034.47 580.07 1007.32 559.78 1007.16 559.62 1007 559.62 1006.85 559.62 1006.69 559.47 1006.38 559.15 1006.22 559 999.51 553.85 981.41 543.55 955.82 537.77H955.66L867.18 694.46 789.61 540.27C789.46 539.96 789.15 539.96 788.99 539.96L783.37 542.14C771.67 546.83 764.64 551.98 751.54 562.12 721.57 585.06 698.79 605.04 676.32 625.17 670.7 630.16 665.24 635 659.93 639.68 658.99 635.94 652.44 609.72 642.61 576.32L642.45 576.01 543.04 602.7V603.01C542.73 661.84 551.16 707.25 568.01 737.84 583.3 765.62 605.78 780.6 633.24 781.23H635.9C691.92 781.23 738.27 745.33 760.9 723.8L767.14 774.05C766.99 774.98 747.48 848.49 720.17 943.53L720.01 944H720.48C721.26 944 793.52 942.59 856.41 890.47 929.76 952.89 1032.6 953.67 1036.97 953.67H1037.44V952.74C1034.16 914.66 1026.98 881.57 1018.87 854.26 1046.02 851.92 1066.78 843.96 1080.82 830.54 1116.4 796.21 1107.51 720.83 1056.01 618.15Z" fill="#fff461" opacity="1" stroke-width="4" stroke="#000000"></path><path d="M1028.7 895.93C938.96 869.09 937.56 849.11 937.25 848.64L977.04 853.64 1017.15 854.42H1018.87C1018.87 854.42 1029.32 896.24 1029.17 895.77L1029.32 896.24 1028.7 895.93Z" fill="#fff46100" opacity="0" stroke-width="4" stroke="#ffffff00"></path><path d="M788.21 540.43L788.83 540.12C798.51 536.06 808.34 534.03 818.95 533.87 818.95 533.87 819.27 533.87 819.73 533.87 829.1 533.41 853.91 532.16 880.91 532.16 899.64 532.16 916.65 532.78 931.32 533.87 939.9 534.5 948.01 535.9 955.82 537.77L956.44 537.93 867.33 695.86 788.21 540.43Z" fill="#ffffff00" opacity="1" stroke-width="4" stroke="#000000"></path><path d="M755.44 673.7L756.06 673.86 760.9 723.95 760.59 724.27C749.82 734.41 738.43 743.46 726.72 751.26L725.47 752.04 755.44 673.7Z" fill="#fff46100" opacity="0" stroke-width="4" stroke="#ffffff00"></path><path d="M903.54 532.47H837.21L858.59 563.52 843.77 649.36 867.33 695.86 896.2 644.52 882.16 563.52 903.54 532.47Z" fill="#efe9d7" opacity="1" stroke-width="4" stroke="#000000"></path><path d="M819.73 523.73L820.51 510.15C817.55 510.46 814.74 510.78 811.77 510.78 800.38 510.78 784.93 507.97 775.41 494.39 764.02 478 765.74 457.25 769.33 437.43 770.42 430.87 770.89 421.67 771.2 413.71 771.98 395.29 772.92 370.17 782.44 355.81 798.51 331.62 818.49 332.4 856.41 332.4 875.92 332.4 894.02 339.58 907.6 352.69 920.86 365.49 928.35 382.5 928.66 400.44 928.98 421.04 935.84 459.9 933.81 498.6L933.34 507.66C933.03 513.43 932.72 518.74 932.56 523.42V523.73H819.73Z" fill="#ecbe98" opacity="1" stroke-width="4" stroke="#000000"></path><path d="M820.51 510.15L822.07 510C836.28 508.59 849.23 504.53 862.65 499.7L862.96 500.32C849.38 509.06 835.03 516.86 820.36 523.73L819.73 524.2 820.51 510.15Z" fill="#ecbe9800" opacity="0" stroke-width="4" stroke="#ffffff00"></path><path d="M868.58 536.53L844.7 563.84C844.24 564.3 843.3 564.3 842.99 563.84L819.42 535.12C819.27 534.97 819.11 534.65 819.11 534.34L819.73 524.2C819.73 523.57 820.36 523.11 820.83 523.11H932.72V523.42C932.56 527.01 932.41 530.28 932.25 533.09L932.1 535.43C932.1 535.75 931.94 536.06 931.63 536.21L898.86 564.77C898.39 565.24 897.61 565.09 897.3 564.77L870.3 536.53C869.83 536.06 869.05 536.06 868.58 536.53Z" fill="#ffffff00" opacity="1" stroke-width="4" stroke="#000000"></path><path d="M881.06 483.31L880.75 483 881.06 482.84C881.06 482.84 881.06 482.84 882 482.22 884.97 480.34 894.02 474.73 901.98 467.08 910.87 458.5 920.39 445.54 915.24 433.22 910.87 423.07 902.6 417.92 890.58 417.92 879.35 417.92 867.49 422.6 861.56 425.41 861.25 425.57 861.09 425.57 861.09 425.57L860.78 425.72 860.62 425.41C853.29 412.46 852.04 394.98 857.34 378.75 849.38 379.69 842.36 380 836.12 380 789.61 380 781.5 357.53 781.5 357.21 781.81 356.75 782.28 355.97 782.44 355.81 798.51 331.62 828.16 318.36 866.08 318.36 885.59 318.36 903.69 325.53 917.27 338.64 930.54 351.6 938.03 368.61 938.34 386.4 938.65 406.06 936.15 454.6 934.13 493.77L933.81 499.85H930.38C930.38 499.85 897.45 499.7 881.06 483.31Z" fill="#191919" opacity="1" stroke-width="4" stroke="#000000"></path><path d="M783.68 423.54C780.87 423.54 778.53 421.2 778.53 418.39 778.53 415.58 780.87 413.24 783.68 413.24 786.49 413.24 788.83 415.58 788.83 418.39 788.83 421.2 786.49 423.54 783.68 423.54Z" fill="#171314" opacity="1" stroke-width="4" stroke="#000000"></path><path d="M819.73 426.19C822.57 426.19 824.88 423.88 824.88 421.04 824.88 418.2 822.57 415.89 819.73 415.89 816.89 415.89 814.58 418.2 814.58 421.04 814.58 423.88 816.89 426.19 819.73 426.19Z" fill="#171314" opacity="1" stroke-width="4" stroke="#000000"></path><path d="M765.27 552.13L759.65 612.37 793.98 606.13 779.94 651.39 853.29 721.61 856.41 890.16" stroke="#000000" stroke-width="4" stroke-linecap="round" stroke-linejoin="round" opacity="1" fill="none"></path><path d="M978.76 545.58L979.69 617.05 943.8 615.49 960.97 659.19 856.41 758.44" stroke="#000000" stroke-width="4" stroke-linecap="round" stroke-linejoin="round" opacity="1" fill="none"></path><path d="M867.33 695.08L852.66 722.24" stroke="#000000" stroke-width="4" stroke-linecap="round" stroke-linejoin="round" opacity="1" fill="none"></path><path d="M820.51 510.15C828 507.81 836.9 507.5 845.48 505.31" stroke="#000000" stroke-width="4" stroke-linecap="round" stroke-linejoin="round" opacity="1" fill="none"></path><path d="M889.18 442.27L872.01 450.07" stroke="#000000" stroke-width="4" stroke-linecap="round" stroke-linejoin="round" opacity="1" fill="none"></path><path d="M798.82 461.62C805.06 463.02 811.62 459.9 814.58 454.28" stroke="#000000" stroke-width="4" stroke-linecap="round" stroke-linejoin="round" opacity="1" fill="none"></path><path d="M796.95 429C794.92 434.31 793.36 438.21 798.67 440.39" stroke="#000000" stroke-width="4" stroke-linecap="round" stroke-linejoin="round" opacity="1" fill="none"></path><path d="M760.9 723.95L757.78 691.96" stroke="#000000" stroke-width="4" stroke-linecap="round" stroke-linejoin="round" opacity="1" fill="none"></path><path d="M659.93 639.84L655.4 658.72" stroke="#000000" stroke-width="4" stroke-linecap="round" stroke-linejoin="round" opacity="1" fill="none"></path><path d="M720.48 943.84C720.48 943.84 792.42 943.22 856.41 890.16 931.32 954.14 1037.12 953.52 1037.12 953.52" stroke="#000000" stroke-width="4" stroke-linecap="round" stroke-linejoin="round" opacity="1" fill="none"></path><path d="M819.27 534.65L843.77 564.46 869.2 535.12 898.08 565.09 931.78 535.75" stroke="#000000" stroke-width="4" stroke-linecap="round" stroke-linejoin="round" opacity="1" fill="none"></path><path d="M522.44 520.3C528.06 517.49 531.96 512.34 533.37 506.25" stroke="#000000" stroke-width="4" stroke-linecap="round" stroke-linejoin="round" opacity="1" fill="none"></path><path d="M524 471.92C524 485.96 527.59 510 542.73 506.25 551 504.22 553.18 495.17 553.65 489.4" stroke="#000000" stroke-width="4" stroke-linecap="round" stroke-linejoin="round" opacity="1" fill="none"></path><path d="M544.29 453.19C545.07 459.43 546.32 465.68 547.72 471.92" stroke="#000000" stroke-width="4" stroke-linecap="round" stroke-linejoin="round" opacity="1" fill="none"></path><path d="M616.08 493.77C599.53 481.75 555.21 464.11 547.41 473.48 539.61 482.84 577.06 507.81 577.06 507.81 577.06 507.81 559.9 535.9 564.58 557.75" stroke="#000000" stroke-width="4" stroke-linecap="round" stroke-linejoin="round" opacity="1" fill="none"></path><path d="M765.89 884.07C763.86 884.07 762.3 883.29 761.52 881.89 758.71 876.89 764.02 864.87 766.52 860.04 763.71 862.38 749.04 873.77 737.65 873.77 731.87 873.77 727.81 870.8 725.47 865.19 725.47 865.19 725.47 865.19 725.32 865.19 724.38 865.19 718.76 864.87 715.33 860.51 712.83 857.38 712.05 853.01 713.15 847.71 712.52 847.4 711.58 846.3 710.65 844.74 708.62 841.47 706.43 834.29 713.3 821.49 724.07 801.83 761.21 767.49 819.11 753.76 850.32 746.43 888.56 743.46 915.09 742.06H915.4L907.91 841.15C887.78 835.69 874.35 831.01 872.95 830.54 858.12 839.75 841.11 844.59 823.79 844.59 822.23 844.59 820.83 844.59 819.27 844.43 819.11 844.59 818.49 845.21 817.7 845.99 783.84 877.52 770.73 884.07 765.89 884.07Z" fill="#ecbe98" opacity="1" stroke-width="4" stroke="#000000"></path><path d="M725.32 865.19C750.29 841.78 793.98 809.01 793.98 809.01" stroke="#000000" stroke-width="4" stroke-linecap="round" stroke-linejoin="round" opacity="1" fill="none"></path><path d="M712.83 848.02C725.32 832.41 759.65 804.32 779.94 791.84" stroke="#000000" stroke-width="4" stroke-linecap="round" stroke-linejoin="round" opacity="1" fill="none"></path><path d="M766.52 860.04L805.53 826.02" stroke="#000000" stroke-width="4" stroke-linecap="round" stroke-linejoin="round" opacity="1" fill="none"></path><path d="M953.94 823.36C961.45 823.36 967.52 817.29 967.52 809.79 967.52 802.29 961.45 796.21 953.94 796.21 946.45 796.21 940.37 802.29 940.37 809.79 940.37 817.29 946.45 823.36 953.94 823.36Z" fill="#ffffff" opacity="1" stroke-width="4" stroke="#000000"></path><path d="M963.62 703.04L978.13 740.34" stroke="#000000" stroke-width="4" stroke-linecap="round" stroke-linejoin="round" opacity="1" fill="none"></path><path d="M1019.49 854.11C981.1 857.54 937.56 848.8 907.91 841" stroke="#000000" stroke-width="4" stroke-linecap="round" stroke-linejoin="round" opacity="1" fill="none"></path><path d="M915.71 741.9C951.6 740.34 973.45 740.34 1007.79 740.34" stroke="#000000" stroke-width="4" stroke-linecap="round" stroke-linejoin="round" opacity="1" fill="none"></path><path d="M568.63 443.36C572.38 450.07 577.37 469.42 578.78 475.66" stroke="#000000" stroke-width="4" stroke-linecap="round" stroke-linejoin="round" opacity="1" fill="none"></path></g><g><path d="M855.37 849.69H612.6V862.1L648.53 874.69H837.78C847.6 874.69 855.37 866.54 855.37 856.91V849.69Z" fill="#8fffa9" opacity="1" stroke-width="4" stroke="#000000"></path><path d="M344.65 675.43L561.12 675.43C580.01 675.43 599.27 690.62 604.27 709.51L648.53 874.5 382.79 874.69C371.68 874.69 362.05 867.28 359.28 856.54L319.83 709.32C314.83 690.62 325.94 675.43 344.65 675.43Z" fill="#8fffa9" opacity="1" stroke-width="4" stroke="#000000"></path><path d="M460.05 793.36C449.88 784.47 447.16 770.97 453.98 763.19 460.77 755.41 474.51 756.32 484.68 765.21 494.85 774.1 497.57 787.6 490.75 795.38 483.96 803.15 470.22 802.25 460.05 793.36Z" fill="#30ff60" opacity="1" stroke-width="4" stroke="#000000"></path><path d="M640.93 849.69H357.42" stroke="#000000" stroke-width="4" stroke-linecap="round" stroke-linejoin="round" opacity="1" fill="none"></path></g><g><path d="M1134.07 212.25C1076.13 212.25 1029.13 259.24 1029.13 317.19V406.96C1029.13 415.4 1035.97 422.13 1044.3 422.13H1134.07C1192.02 422.13 1239.02 375.14 1239.02 317.19 1239.02 259.13 1192.02 212.25 1134.07 212.25Z" fill="#ffffff00" opacity="1" stroke-width="4" stroke="#000000"></path></g><g><path d="M351.03 362.59L327.03 398.53 370.74 380.7 351.03 362.59Z" fill="#fff461" opacity="1" stroke-width="4" stroke="#000000"></path><path d="M351.03 362.59L327.03 398.53 370.74 380.7 351.03 362.59Z" fill="#fff46100" opacity="0" stroke-width="4" stroke="#ffffff00"></path><path d="M351.03 362.59L376.36 418.53 459.15 320.13C459.33 319.95 459.15 319.68 458.88 319.77L351.03 362.59Z" fill="#fff461" opacity="1" stroke-width="4" stroke="#000000"></path><path d="M302.14 327.62L351.03 362.59 458.97 319.77C459.06 319.68 459.06 319.5 458.88 319.5L302.14 327.62Z" fill="#fff461" opacity="1" stroke-width="4" stroke="#000000"></path><path d="M351.03 362.59L361.64 386.05" stroke="#000000" stroke-width="4" stroke-linecap="round" stroke-linejoin="round" opacity="1" fill="none"></path><path d="M458.88 319.77L351.03 362.59" stroke="#000000" stroke-width="4" stroke-linecap="round" stroke-linejoin="round" opacity="1" fill="none"></path></g><g><path d="M1302.75 841.49H1255.33C1251.06 841.49 1247.53 837.96 1247.53 833.69V798.98C1247.53 794.71 1251.06 791.18 1255.33 791.18H1302.75C1316.64 791.18 1327.85 802.51 1327.85 816.28 1327.85 830.17 1316.64 841.49 1302.75 841.49ZM1260.56 828.46H1302.64C1309.27 828.46 1314.61 823.01 1314.61 816.39 1314.61 809.77 1309.16 804.32 1302.54 804.32H1260.46L1260.56 828.46Z" fill="#fff461" opacity="1" stroke-width="4" stroke="#000000"></path><path d="M1206.31 859.32L1182.81 757.22C1182.81 757.11 1182.92 757.11 1183.03 757.11 1185.48 760.96 1204.39 788.41 1241.02 788.41H1241.55C1264.84 788.41 1286.41 776.77 1299.01 757.11 1299.12 757.01 1299.23 757.11 1299.12 757.22L1275.73 859.32C1273.81 867.55 1266.55 873.31 1258.11 873.31H1223.83C1215.49 873.31 1208.23 867.44 1206.31 859.32Z" fill="#30ff60" opacity="1" stroke-width="4" stroke="#000000"></path><path d="M1241.02 788.51C1202.57 788.51 1183.67 758.29 1182.71 756.79V756.69L1298.91 757.11C1298.91 757.11 1299.01 757.11 1298.91 757.22 1290.04 778.9 1265.05 788.51 1241.45 788.51 1241.55 788.51 1241.02 788.51 1241.02 788.51Z" fill="#fff461" opacity="1" stroke-width="4" stroke="#000000"></path></g><g><path d="M1175.7 275.81C1198.69 298.81 1198.69 336.08 1175.7 359.07 1152.71 382.06 1115.44 382.06 1092.45 359.07 1069.45 336.08 1069.45 298.81 1092.45 275.81 1115.44 252.83 1152.71 252.83 1175.7 275.81Z" fill="#8fffa9" opacity="1" stroke-width="4" stroke="#000000"></path><path d="M1152.15 289.75C1151.76 289.75 1151.39 289.81 1151.03 289.92 1149.31 290.46 1138.88 296.58 1133.28 299.87L1131.22 301.08C1130.33 301.57 1129.68 302.4 1129.39 303.38L1121.69 329.73C1121.46 330.6 1121.52 331.53 1121.86 332.36 1122.2 333.2 1122.81 333.89 1123.59 334.35 1127.8 336.8 1132.3 338.73 1136.97 340.1L1150.15 343.95C1150.63 344.09 1151.14 344.16 1151.65 344.16 1152.57 344.16 1153.47 343.93 1154.26 343.48 1155.05 343.02 1155.72 342.36 1156.18 341.58 1156.61 340.79 1156.81 339.89 1156.77 339 1156.74 338.11 1156.47 337.24 1156.5 337.16L1156.66 336.97C1157.41 336.23 1158.3 336.18 1159.18 335.54 1160.07 334.89 1160.73 333.98 1161.05 332.92 1161.26 332.24 1161.31 331.52 1161.2 330.82 1161.09 330.12 1161.01 329.93 1161.2 329.55L1161.34 329.31C1161.68 328.89 1162.76 328.55 1163.64 327.91 1164.53 327.26 1165.19 326.34 1165.51 325.29 1165.77 324.45 1165.8 323.56 1165.58 322.71 1165.36 321.85 1164.92 321.08 1165.08 320.87 1165.24 320.27 1166.11 319.78 1166.77 319.07 1167.44 318.36 1167.87 317.46 1168.01 316.5 1168.16 315.25 1167.85 313.98 1167.14 312.93 1166.43 311.88 1165.37 311.12 1164.15 310.8L1149.49 306.08C1148.93 305.89 1149.19 305.47 1149.45 305.04 1151.3 302 1153.38 298.55 1154.63 294.81 1155.34 292.73 1154.93 291.52 1154.45 290.86 1154.19 290.5 1153.84 290.21 1153.43 290.02 1153.03 289.83 1152.59 289.73 1152.15 289.75V289.75Z" fill="#ffffff00" opacity="1" stroke-width="4" stroke="#000000"></path><path d="M1111.76 292.94C1111.1 292.93 1110.47 293.14 1109.95 293.52 1109.43 293.91 1109.04 294.45 1108.85 295.07L1099.53 327.1C1099.33 327.85 1099.43 328.66 1099.8 329.35 1100.19 330.03 1100.82 330.54 1101.57 330.77L1112.72 334.02C1112.97 334.08 1113.23 334.12 1113.49 334.12 1114.14 334.12 1114.77 333.91 1115.3 333.53 1115.82 333.14 1116.2 332.6 1116.39 331.98L1125.72 300.02C1125.72 300.01 1125.72 300 1125.72 300 1125.72 299.99 1125.72 299.98 1125.72 299.98 1125.73 299.98 1125.74 299.97 1125.74 299.97 1125.75 299.96 1125.76 299.96 1125.76 299.96 1125.87 299.59 1125.9 299.21 1125.85 298.82 1125.81 298.44 1125.69 298.07 1125.5 297.73 1125.31 297.4 1125.06 297.1 1124.76 296.86 1124.46 296.62 1124.11 296.45 1123.74 296.34L1112.53 293.03C1112.27 292.97 1112.01 292.94 1111.76 292.94V292.94Z" fill="#ffffff00" opacity="1" stroke-width="4" stroke="#000000"></path></g><g><path d="M735 326.69C747.08 272.48 736.54 207.27 714.48 204.65 693.55 202.13 686.6 254.63 692.93 268.31 697.71 278.65 706.87 268.11 697.66 246.2 689.23 226.19 664.54 185.21 641.4 186.23 618.25 187.26 638.26 228.87 638.26 228.87L547.23 195.18" stroke="#000000" stroke-width="4" stroke-linecap="round" stroke-linejoin="round" opacity="1" fill="none"></path></g><g><path d="M1378.23 874.15H221.77V1011.22H1378.23V874.15Z" fill="#efe9d7" opacity="1" stroke-width="4" stroke="#000000"></path></g></svg>