<svg width="1225" height="1085" viewBox="0 0 1225 1085" fill="none" xmlns="http://www.w3.org/2000/svg">
<g clip-path="url(#clip0_6_6256)">
<path d="M0 5H1225V1085H0V5Z" fill="#F3EBE9"/>
<circle cx="613" cy="545" r="288" fill="#EFDCD7"/>
<g opacity="0.93">
<path opacity="0.93" fill-rule="evenodd" clip-rule="evenodd" d="M808.082 307.92C807.585 309.051 806.196 309.428 805.231 310.092C802.213 312.265 799.06 315.554 795.529 317.531C793.273 319.493 790.889 321.302 788.393 322.947C787.155 323.883 786.099 325.06 784.907 325.965C779.808 329.888 774.964 333.509 769.744 337.417C769.216 337.809 768.627 338.216 768.009 338.639C766.606 339.604 764.991 340.917 763.618 341.656C763.032 342.08 762.327 342.308 761.604 342.308C760.881 342.308 760.176 342.08 759.59 341.656C759.831 339.906 762.275 338.201 764.478 336.376C768.205 333.358 773.531 329.375 777.394 326.674C780.275 324.592 783.187 322.419 786.084 320.533C788.981 318.647 791.893 316.58 794.82 314.83C796.963 313.563 799.211 312.582 801.308 311.42C803.405 310.258 805.804 309.021 808.082 307.92Z" fill="white"/>
</g>
<g opacity="0.93">
<path opacity="0.93" fill-rule="evenodd" clip-rule="evenodd" d="M744.291 505.33C743.99 506.009 743.175 506.22 742.601 506.628C740.779 508.239 738.87 509.75 736.883 511.154C735.55 512.319 734.144 513.397 732.674 514.383C731.934 514.956 731.316 515.665 730.622 516.193C727.604 518.547 724.752 520.72 721.674 523.058L720.648 523.798C719.819 524.371 718.883 525.156 718.053 525.638C717.711 525.892 717.295 526.029 716.869 526.029C716.443 526.029 716.027 525.892 715.685 525.638C715.82 524.582 717.193 523.571 718.566 522.485C720.754 520.644 723.938 518.276 726.11 516.661C727.83 515.409 729.535 514.111 731.255 512.98C732.975 511.848 734.68 510.611 736.4 509.57C737.668 508.8 738.995 508.212 740.233 507.518C741.47 506.824 742.948 506.009 744.291 505.33Z" fill="white"/>
</g>
<path fill-rule="evenodd" clip-rule="evenodd" d="M948.493 60C947.98 61.1316 946.607 61.5088 945.626 62.1727C942.608 64.3453 939.455 67.6345 935.939 69.611C933.678 71.5659 931.294 73.375 928.803 75.0276C927.551 75.963 926.494 77.1399 925.318 78.0452C920.203 81.968 915.36 85.5891 910.139 89.4969C909.611 89.8892 909.023 90.2966 908.419 90.719C907.001 91.6847 905.401 92.9973 904.013 93.7366C903.429 94.1588 902.727 94.386 902.007 94.386C901.286 94.386 900.584 94.1588 900 93.7366C900.226 91.9864 902.671 90.2815 904.888 88.4558C908.6 85.4382 913.941 81.455 917.789 78.7543C920.686 76.6722 923.598 74.5146 926.494 72.6135C929.391 70.7124 932.288 68.6605 935.23 66.9103C937.373 65.6429 939.606 64.6622 941.703 63.5004C943.8 62.3386 946.199 61.1316 948.493 60Z" fill="url(#paint0_linear_6_6256)"/>
<path d="M836.765 412.464C837.323 412.464 837.776 412.011 837.776 411.453C837.776 410.894 837.323 410.442 836.765 410.442C836.207 410.442 835.754 410.894 835.754 411.453C835.754 412.011 836.207 412.464 836.765 412.464Z" fill="#231F20"/>
<path d="M757.613 402.038C758.172 402.038 758.624 401.586 758.624 401.027C758.624 400.469 758.172 400.016 757.613 400.016C757.055 400.016 756.603 400.469 756.603 401.027C756.603 401.586 757.055 402.038 757.613 402.038Z" fill="#231F20"/>
<path d="M788.725 385.819C789.283 385.819 789.736 385.366 789.736 384.808C789.736 384.249 789.283 383.797 788.725 383.797C788.166 383.797 787.714 384.249 787.714 384.808C787.714 385.366 788.166 385.819 788.725 385.819Z" fill="#231F20"/>
<path d="M675.626 287.929C676.184 287.929 676.637 287.476 676.637 286.918C676.637 286.359 676.184 285.907 675.626 285.907C675.068 285.907 674.615 286.359 674.615 286.918C674.615 287.476 675.068 287.929 675.626 287.929Z" fill="#231F20"/>
<path d="M732.734 331.2C733.292 331.2 733.744 330.747 733.744 330.189C733.744 329.631 733.292 329.178 732.734 329.178C732.175 329.178 731.723 329.631 731.723 330.189C731.723 330.747 732.175 331.2 732.734 331.2Z" fill="#231F20"/>
<path d="M457.952 400.62C458.511 400.62 458.963 400.167 458.963 399.609C458.963 399.051 458.511 398.598 457.952 398.598C457.394 398.598 456.941 399.051 456.941 399.609C456.941 400.167 457.394 400.62 457.952 400.62Z" fill="#231F20"/>
<path d="M746.946 272.704C747.505 272.704 747.957 272.252 747.957 271.693C747.957 271.135 747.505 270.682 746.946 270.682C746.388 270.682 745.936 271.135 745.936 271.693C745.936 272.252 746.388 272.704 746.946 272.704Z" fill="#231F20"/>
<path d="M570.388 199.528C571.146 199.528 571.761 198.913 571.761 198.155C571.761 197.396 571.146 196.782 570.388 196.782C569.629 196.782 569.015 197.396 569.015 198.155C569.015 198.913 569.629 199.528 570.388 199.528Z" fill="#231F20"/>
<path d="M818.343 452.718C819.176 452.718 819.852 452.043 819.852 451.209C819.852 450.376 819.176 449.7 818.343 449.7C817.509 449.7 816.834 450.376 816.834 451.209C816.834 452.043 817.509 452.718 818.343 452.718Z" fill="#231F20"/>
<path d="M669.093 564.867C669.926 564.867 670.602 564.191 670.602 563.358C670.602 562.525 669.926 561.849 669.093 561.849C668.259 561.849 667.584 562.525 667.584 563.358C667.584 564.191 668.259 564.867 669.093 564.867Z" fill="#231F20"/>
<path d="M680.409 348.325C681.242 348.325 681.918 347.649 681.918 346.816C681.918 345.983 681.242 345.307 680.409 345.307C679.576 345.307 678.9 345.983 678.9 346.816C678.9 347.649 679.576 348.325 680.409 348.325Z" fill="#231F20"/>
<path d="M508.935 501.241C509.768 501.241 510.443 500.566 510.443 499.732C510.443 498.899 509.768 498.224 508.935 498.224C508.101 498.224 507.426 498.899 507.426 499.732C507.426 500.566 508.101 501.241 508.935 501.241Z" fill="#231F20"/>
<path d="M460.487 414.471C461.321 414.471 461.996 413.795 461.996 412.962C461.996 412.129 461.321 411.453 460.487 411.453C459.654 411.453 458.979 412.129 458.979 412.962C458.979 413.795 459.654 414.471 460.487 414.471Z" fill="#231F20"/>
<path d="M725.175 538.795C726.008 538.795 726.684 538.12 726.684 537.286C726.684 536.453 726.008 535.778 725.175 535.778C724.342 535.778 723.666 536.453 723.666 537.286C723.666 538.12 724.342 538.795 725.175 538.795Z" fill="#231F20"/>
<path d="M816.834 346.816C817.667 346.816 818.343 346.14 818.343 345.307C818.343 344.474 817.667 343.798 816.834 343.798C816.001 343.798 815.325 344.474 815.325 345.307C815.325 346.14 816.001 346.816 816.834 346.816Z" fill="#B44538"/>
<path d="M742.211 451.356C743.296 450.271 743.262 448.48 742.137 447.355C741.011 446.229 739.22 446.196 738.136 447.28C737.052 448.364 737.085 450.155 738.211 451.281C739.336 452.406 741.127 452.44 742.211 451.356Z" fill="#B44538"/>
<path d="M591.979 301.99C592.812 301.99 593.487 301.314 593.487 300.481C593.487 299.648 592.812 298.972 591.979 298.972C591.145 298.972 590.47 299.648 590.47 300.481C590.47 301.314 591.145 301.99 591.979 301.99Z" fill="#B44538"/>
<path d="M452.204 407.289C453.037 407.289 453.713 406.613 453.713 405.78C453.713 404.947 453.037 404.271 452.204 404.271C451.371 404.271 450.695 404.947 450.695 405.78C450.695 406.613 451.371 407.289 452.204 407.289Z" fill="#B44538"/>
<path d="M405.884 387.343C406.717 387.343 407.393 386.667 407.393 385.834C407.393 385.001 406.717 384.325 405.884 384.325C405.051 384.325 404.375 385.001 404.375 385.834C404.375 386.667 405.051 387.343 405.884 387.343Z" fill="#B44538"/>
<path d="M770.212 571.973C771.045 571.973 771.721 571.298 771.721 570.464C771.721 569.631 771.045 568.956 770.212 568.956C769.379 568.956 768.703 569.631 768.703 570.464C768.703 571.298 769.379 571.973 770.212 571.973Z" fill="#B44538"/>
<path d="M524.188 545.328C525.022 545.328 525.697 544.653 525.697 543.82C525.697 542.986 525.022 542.311 524.188 542.311C523.355 542.311 522.68 542.986 522.68 543.82C522.68 544.653 523.355 545.328 524.188 545.328Z" fill="#B44538"/>
<path fill-rule="evenodd" clip-rule="evenodd" d="M275.493 579C274.98 580.147 273.592 580.509 272.626 581.173C269.608 583.36 266.455 586.65 262.939 588.611C260.678 590.566 258.294 592.375 255.803 594.028C254.551 594.963 253.494 596.155 252.318 597.045C247.203 600.968 242.36 604.589 237.139 608.497C236.611 608.889 236.023 609.312 235.404 609.719C234.001 610.685 232.386 611.997 231.013 612.737C230.429 613.159 229.727 613.386 229.007 613.386C228.286 613.386 227.584 613.159 227 612.737C227.226 610.986 229.671 609.281 231.873 607.471C235.6 604.453 241.002 600.455 244.789 597.754C247.686 595.672 250.582 593.515 253.479 591.614C256.376 589.712 259.288 587.676 262.23 585.925C264.373 584.643 266.606 583.662 268.703 582.5C270.8 581.339 273.199 580.132 275.493 579Z" fill="url(#paint1_linear_6_6256)"/>
<path d="M1057.58 641.295C1058.14 641.295 1058.59 640.842 1058.59 640.284C1058.59 639.726 1058.14 639.273 1057.58 639.273C1057.02 639.273 1056.57 639.726 1056.57 640.284C1056.57 640.842 1057.02 641.295 1057.58 641.295Z" fill="#231F20"/>
<path d="M213.147 486.916C213.981 486.916 214.656 486.241 214.656 485.407C214.656 484.574 213.981 483.898 213.147 483.898C212.314 483.898 211.639 484.574 211.639 485.407C211.639 486.241 212.314 486.916 213.147 486.916Z" fill="#231F20"/>
<path d="M1051.83 647.963C1052.66 647.963 1053.34 647.288 1053.34 646.455C1053.34 645.621 1052.66 644.946 1051.83 644.946C1051 644.946 1050.32 645.621 1050.32 646.455C1050.32 647.288 1051 647.963 1051.83 647.963Z" fill="#B44538"/>
<path d="M1005.51 628.018C1006.34 628.018 1007.02 627.342 1007.02 626.509C1007.02 625.676 1006.34 625 1005.51 625C1004.68 625 1004 625.676 1004 626.509C1004 627.342 1004.68 628.018 1005.51 628.018Z" fill="#B44538"/>
<path d="M228.401 531.003C229.235 531.003 229.91 530.328 229.91 529.495C229.91 528.661 229.235 527.986 228.401 527.986C227.568 527.986 226.893 528.661 226.893 529.495C226.893 530.328 227.568 531.003 228.401 531.003Z" fill="#B44538"/>
<g opacity="0.93">
<path opacity="0.93" fill-rule="evenodd" clip-rule="evenodd" d="M486.417 140C485.919 141.147 484.531 141.509 483.566 142.173C480.548 144.36 477.395 147.65 473.864 149.611C471.61 151.594 469.226 153.423 466.727 155.088C465.475 156.023 464.434 157.2 463.242 158.106C458.127 162.028 453.299 165.649 448.154 169.557C447.626 169.95 447.038 170.357 446.419 170.779C445.016 171.745 443.401 173.058 442.028 173.797C441.442 174.22 440.737 174.448 440.014 174.448C439.291 174.448 438.586 174.22 438 173.797C438.241 172.047 440.671 170.342 442.888 168.531C446.615 165.514 451.941 161.515 455.789 158.815C458.686 156.733 461.598 154.575 464.494 152.674C467.391 150.773 470.303 148.721 473.23 146.971C475.373 145.703 477.621 144.723 479.718 143.561C481.815 142.399 484.139 141.117 486.417 140Z" fill="white"/>
</g>
<path d="M1028.44 230.733C1029.27 230.733 1029.95 230.057 1029.95 229.224C1029.95 228.391 1029.27 227.715 1028.44 227.715C1027.61 227.715 1026.93 228.391 1026.93 229.224C1026.93 230.057 1027.61 230.733 1028.44 230.733Z" fill="#231F20"/>
<path d="M181.438 834.018C182.272 834.018 182.947 833.342 182.947 832.509C182.947 831.676 182.272 831 181.438 831C180.605 831 179.93 831.676 179.93 832.509C179.93 833.342 180.605 834.018 181.438 834.018Z" fill="#231F20"/>
<path d="M122.509 351.018C123.342 351.018 124.018 350.342 124.018 349.509C124.018 348.676 123.342 348 122.509 348C121.676 348 121 348.676 121 349.509C121 350.342 121.676 351.018 122.509 351.018Z" fill="#231F20"/>
<path d="M948.509 1051.02C949.342 1051.02 950.018 1050.34 950.018 1049.51C950.018 1048.68 949.342 1048 948.509 1048C947.676 1048 947 1048.68 947 1049.51C947 1050.34 947.676 1051.02 948.509 1051.02Z" fill="#231F20"/>
<path d="M973.039 256.558C974.123 255.474 974.089 253.683 972.964 252.558C971.838 251.432 970.047 251.399 968.963 252.483C967.879 253.567 967.912 255.358 969.038 256.484C970.163 257.609 971.954 257.643 973.039 256.558Z" fill="#B44538"/>
<path d="M126.039 859.843C127.123 858.759 127.089 856.968 125.964 855.843C124.838 854.717 123.047 854.684 121.963 855.768C120.879 856.852 120.912 858.643 122.038 859.769C123.163 860.894 124.954 860.928 126.039 859.843Z" fill="#B44538"/>
<path d="M1028.04 392.039C1029.12 390.955 1029.09 389.163 1027.96 388.038C1026.84 386.912 1025.05 386.879 1023.96 387.963C1022.88 389.047 1022.91 390.839 1024.04 391.964C1025.16 393.089 1026.95 393.123 1028.04 392.039Z" fill="#B44538"/>
<path d="M181.039 995.323C182.123 994.239 182.089 992.448 180.964 991.323C179.838 990.197 178.047 990.164 176.963 991.248C175.879 992.332 175.912 994.123 177.038 995.249C178.163 996.374 179.954 996.408 181.039 995.323Z" fill="#B44538"/>
<path d="M385.039 72.0386C386.123 70.9544 386.089 69.1632 384.964 68.0378C383.838 66.9124 382.047 66.8789 380.963 67.9631C379.879 69.0473 379.912 70.8385 381.038 71.9639C382.163 73.0893 383.954 73.1227 385.039 72.0386Z" fill="#B44538"/>
<path d="M1054.04 916.039C1055.12 914.955 1055.09 913.163 1053.96 912.038C1052.84 910.912 1051.05 910.879 1049.96 911.963C1048.88 913.047 1048.91 914.839 1050.04 915.964C1051.16 917.089 1052.95 917.123 1054.04 916.039Z" fill="#B44538"/>
<path d="M599.509 106.089C600.342 106.089 601.018 105.414 601.018 104.58C601.018 103.747 600.342 103.072 599.509 103.072C598.676 103.072 598 103.747 598 104.58C598 105.414 598.676 106.089 599.509 106.089Z" fill="#231F20"/>
<path d="M700.628 113.196C701.461 113.196 702.137 112.52 702.137 111.687C702.137 110.853 701.461 110.178 700.628 110.178C699.795 110.178 699.119 110.853 699.119 111.687C699.119 112.52 699.795 113.196 700.628 113.196Z" fill="#B44538"/>
<path d="M357.931 633.022C358.489 633.022 358.942 632.569 358.942 632.011C358.942 631.453 358.489 631 357.931 631C357.373 631 356.92 631.453 356.92 632.011C356.92 632.569 357.373 633.022 357.931 633.022Z" fill="#231F20"/>
<path d="M339.509 673.276C340.342 673.276 341.018 672.601 341.018 671.768C341.018 670.934 340.342 670.259 339.509 670.259C338.676 670.259 338 670.934 338 671.768C338 672.601 338.676 673.276 339.509 673.276Z" fill="#231F20"/>
<path d="M955.611 91.1468C956.17 91.1468 956.622 90.6942 956.622 90.1359C956.622 89.5776 956.17 89.125 955.611 89.125C955.053 89.125 954.601 89.5776 954.601 90.1359C954.601 90.6942 955.053 91.1468 955.611 91.1468Z" fill="#231F20"/>
<path d="M1026.93 75.9224C1027.49 75.9224 1027.94 75.4698 1027.94 74.9115C1027.94 74.3532 1027.49 73.9006 1026.93 73.9006C1026.37 73.9006 1025.92 74.3532 1025.92 74.9115C1025.92 75.4698 1026.37 75.9224 1026.93 75.9224Z" fill="#231F20"/>
<path d="M850.373 2.746C851.131 2.746 851.746 2.1313 851.746 1.37301C851.746 0.614719 851.131 0 850.373 0C849.615 0 849 0.614719 849 1.37301C849 2.1313 849.615 2.746 850.373 2.746Z" fill="#231F20"/>
<path d="M1096.82 150.034C1097.65 150.034 1098.33 149.359 1098.33 148.526C1098.33 147.692 1097.65 147.017 1096.82 147.017C1095.99 147.017 1095.31 147.692 1095.31 148.526C1095.31 149.359 1095.99 150.034 1096.82 150.034Z" fill="#B44538"/>
<path d="M871.964 105.208C872.797 105.208 873.473 104.533 873.473 103.699C873.473 102.866 872.797 102.191 871.964 102.191C871.131 102.191 870.455 102.866 870.455 103.699C870.455 104.533 871.131 105.208 871.964 105.208Z" fill="#B44538"/>
<path d="M840.089 573.96L789.688 555.328C789.627 555.328 789.566 555.328 789.627 555.397L806.853 606.317C806.853 606.386 806.915 606.386 806.976 606.317L813.423 591.575C813.423 591.513 813.484 591.513 813.553 591.575L825.228 603.445H825.29L836.835 592.218V592.149L825.228 580.217C825.228 580.156 825.228 580.156 825.228 580.087L840.028 574.091C840.089 574.091 840.089 573.96 840.089 573.96Z" fill="white" stroke="black" stroke-width="4"/>
<path d="M543.64 369.108C568.538 369.108 588.72 348.92 588.72 324.015C588.72 299.118 568.538 278.931 543.64 278.931C518.749 278.931 498.567 299.118 498.567 324.015C498.567 348.92 518.749 369.108 543.64 369.108Z" fill="#FFF461" stroke="black" stroke-width="4"/>
<path d="M542.797 299.447H542.728C537.928 299.57 528.84 302.756 528.84 313.99C528.84 316.112 530.555 317.82 532.676 317.82C534.796 317.82 536.504 316.112 536.504 313.99C536.504 307.864 541.35 307.19 542.874 307.113C547.766 307.144 550.798 309.771 550.798 314.036C550.798 317.169 549.496 318.302 546.074 320.5C543.019 322.453 538.387 325.44 538.602 332.194V333.297C538.602 335.418 540.317 337.134 542.437 337.134C544.535 337.134 546.273 335.449 546.319 333.328V331.972C546.243 329.728 547.207 328.909 550.247 326.956L550.293 326.933C553.547 324.835 558.47 321.633 558.47 314.036C558.47 305.451 552.031 299.447 542.797 299.447Z" fill="white" stroke="black" stroke-width="4"/>
<path d="M542.675 341.285C540.34 341.285 538.434 343.184 538.434 345.528C538.434 347.863 540.34 349.77 542.675 349.77C545.041 349.747 546.947 347.863 546.924 345.528C546.924 343.184 545.018 341.285 542.675 341.285Z" fill="white" stroke="black" stroke-width="4"/>
<path d="M226.067 739.449C240.016 739.449 251.325 728.138 251.325 714.185C251.325 700.231 240.016 688.92 226.067 688.92C212.117 688.92 200.809 700.231 200.809 714.185C200.809 728.138 212.117 739.449 226.067 739.449Z" fill="white" stroke="black" stroke-width="4"/>
<path d="M992.947 694.763C1004.87 693.101 1013.18 682.088 1011.51 670.172C1009.85 658.248 998.842 649.931 986.929 651.601C975.009 653.263 966.701 664.275 968.363 676.192C970.024 688.116 981.034 696.433 992.947 694.763Z" fill="white" stroke="black" stroke-width="4"/>
<path d="M938.205 608.729C950.125 607.067 958.44 596.055 956.771 584.138C955.11 572.214 944.1 563.897 932.187 565.567C920.266 567.229 911.951 578.242 913.62 590.158C915.282 602.082 926.291 610.399 938.205 608.729Z" fill="#8FFFA9" stroke="black" stroke-width="4"/>
<path d="M276.353 323.916C261.324 326.229 247.259 315.928 244.939 300.895C242.62 285.862 252.925 271.793 267.954 269.473C282.983 267.152 297.048 277.46 299.36 292.494C301.68 307.527 291.382 321.595 276.353 323.916Z" fill="#8FFFA9" stroke="black" stroke-width="4"/>
<path d="M221.343 389.448C210.203 391.171 199.783 383.528 198.06 372.393C196.337 361.25 203.978 350.82 215.118 349.104C226.258 347.381 236.678 355.024 238.401 366.167C240.116 377.302 232.482 387.733 221.343 389.448Z" fill="white" stroke="black" stroke-width="4"/>
<path d="M930.541 233.341H698.533V504.867H930.541V233.341Z" fill="#EFDCD7" stroke="black" stroke-width="4"/>
<path d="M743 283.625H790.951C794.971 283.625 798.294 286.957 798.294 290.977C798.294 294.998 794.971 298.322 790.951 298.322H743C738.981 298.322 735.65 294.998 735.65 290.977C735.65 286.957 738.981 283.625 743 283.625Z" fill="#8FFFA9" stroke="black" stroke-width="4"/>
<path d="M820.336 283.625H837.349C841.368 283.625 844.699 286.957 844.699 290.977C844.699 294.998 841.368 298.322 837.349 298.322H820.336C816.317 298.322 812.986 294.998 812.986 290.977C812.986 286.957 816.317 283.625 820.336 283.625Z" fill="#FFF461" stroke="black" stroke-width="4"/>
<path d="M865.968 283.625H882.98C887 283.625 890.323 286.957 890.323 290.977C890.323 294.998 887 298.322 882.98 298.322H865.968C861.941 298.322 858.618 294.998 858.618 290.977C858.618 286.957 861.941 283.625 865.968 283.625Z" fill="#FFE499" stroke="black" stroke-width="4"/>
<path d="M743 400.821H790.951C794.971 400.821 798.294 404.152 798.294 408.173C798.294 412.193 794.971 415.525 790.951 415.525H743C738.981 415.525 735.65 412.193 735.65 408.173C735.65 404.152 738.981 400.821 743 400.821Z" fill="#FFE499" stroke="black" stroke-width="4"/>
<path d="M820.336 400.821H882.98C886.999 400.821 890.322 404.152 890.322 408.173C890.322 412.193 886.999 415.525 882.98 415.525H820.336C816.317 415.525 812.986 412.193 812.986 408.173C812.986 404.152 816.317 400.821 820.336 400.821Z" fill="white" stroke="black" stroke-width="4"/>
<path d="M743 361.756H817.243C821.263 361.756 824.593 365.087 824.593 369.108C824.593 373.128 821.263 376.46 817.243 376.46H743C738.981 376.46 735.65 373.128 735.65 369.108C735.65 365.087 738.981 361.756 743 361.756Z" fill="#FFF461" stroke="black" stroke-width="4"/>
<path d="M789.398 322.691H837.349C841.369 322.691 844.699 326.022 844.699 330.043C844.699 334.063 841.369 337.395 837.349 337.395H789.398C785.378 337.395 782.056 334.063 782.056 330.043C782.056 326.022 785.378 322.691 789.398 322.691Z" fill="white" stroke="black" stroke-width="4"/>
<path d="M743 322.691H760.013C764.032 322.691 767.363 326.022 767.363 330.043C767.363 334.063 764.032 337.395 760.013 337.395H743C738.981 337.395 735.65 334.063 735.65 330.043C735.65 326.022 738.981 322.691 743 322.691Z" fill="white" stroke="black" stroke-width="4"/>
<path d="M865.968 322.691H882.98C887 322.691 890.323 326.022 890.323 330.043C890.323 334.063 887 337.395 882.98 337.395H865.968C861.941 337.395 858.618 334.063 858.618 330.043C858.618 326.022 861.941 322.691 865.968 322.691Z" fill="white" stroke="black" stroke-width="4"/>
<path d="M789.398 439.886H882.98C887 439.886 890.323 443.217 890.323 447.238C890.323 451.259 887 454.59 882.98 454.59H789.398C785.378 454.59 782.056 451.259 782.056 447.238C782.056 443.217 785.378 439.886 789.398 439.886Z" fill="#8FFFA9" stroke="black" stroke-width="4"/>
<path d="M743 439.886H760.013C764.032 439.886 767.363 443.217 767.363 447.238C767.363 451.259 764.032 454.59 760.013 454.59H743C738.981 454.59 735.65 451.259 735.65 447.238C735.65 443.217 738.981 439.886 743 439.886Z" fill="#FFF461" stroke="black" stroke-width="4"/>
<path d="M652.856 562.159L652.833 457.822L691.176 457.806L691.191 562.159H652.856Z" fill="#8FFFA9" stroke="black" stroke-width="4"/>
<path d="M672.05 549.745C676.062 549.745 679.308 546.49 679.308 542.477C679.308 538.464 676.062 535.217 672.05 535.217C668.038 535.217 664.784 538.464 664.784 542.477C664.784 546.49 668.038 549.745 672.05 549.745Z" fill="#251F0F" stroke="black" stroke-width="4"/>
<path d="M614.874 562.159L614.851 457.822L653.185 457.806L653.208 562.159H614.874Z" fill="#FFE499" stroke="black" stroke-width="4"/>
<path d="M634.06 549.745C638.072 549.745 641.326 546.49 641.326 542.477C641.326 538.464 638.072 535.217 634.06 535.217C630.048 535.217 626.802 538.464 626.802 542.477C626.802 546.49 630.048 549.745 634.06 549.745Z" fill="#251F0F" stroke="black" stroke-width="4"/>
<path d="M652.856 458.488V562.144" stroke="black" stroke-width="4" stroke-linecap="round" stroke-linejoin="round"/>
<path d="M736.255 873.217H720.437V629.2C720.437 602.304 703.165 580.393 681.965 580.393H414.065C392.865 580.393 375.592 602.304 375.592 629.2V873.217H359.774V629.2C359.774 592.325 384.137 562.32 414.065 562.32H681.965C711.893 562.32 736.255 592.325 736.255 629.2V873.217Z" fill="#FFE499" stroke="black" stroke-width="4"/>
<path d="M737.726 873.102V684.225C737.726 674.376 745.757 666.343 755.611 666.343H875.408C885.254 666.343 893.285 674.376 893.285 684.225V873.102H737.726Z" fill="#FFF461" stroke="black" stroke-width="4"/>
<path d="M752.065 858.758V688.674C752.065 684.271 755.656 680.687 760.051 680.687H871.005C875.408 680.687 878.991 684.271 878.991 688.674V858.758H752.065Z" fill="#FFFDE1" stroke="black" stroke-width="4"/>
<path d="M878.845 740.169H752.165" stroke="black" stroke-width="4" stroke-linecap="round" stroke-linejoin="round"/>
<path d="M878.845 799.513H752.165" stroke="black" stroke-width="4" stroke-linecap="round" stroke-linejoin="round"/>
<path d="M815.987 716.597C819.333 716.597 822.051 713.878 822.051 710.524C822.051 707.169 819.333 704.451 815.987 704.451C812.634 704.451 809.916 707.169 809.916 710.524C809.916 713.878 812.634 716.597 815.987 716.597Z" fill="#FFF461" stroke="black" stroke-width="4"/>
<path d="M815.987 775.895C819.333 775.895 822.051 773.169 822.051 769.822C822.051 766.46 819.333 763.749 815.987 763.749C812.634 763.749 809.916 766.46 809.916 769.822C809.916 773.169 812.634 775.895 815.987 775.895Z" fill="#FFF461" stroke="black" stroke-width="4"/>
<path d="M815.987 835.186C819.333 835.186 822.051 832.467 822.051 829.113C822.051 825.759 819.333 823.04 815.987 823.04C812.634 823.04 809.916 825.759 809.916 829.113C809.916 832.467 812.634 835.186 815.987 835.186Z" fill="#FFF461" stroke="black" stroke-width="4"/>
<path d="M610.677 428.782L579.302 418.964V403.471H568.667L513.749 452.476L568.667 507.762H579.302V492.269L610.677 482.451V428.782Z" fill="#FFF461" stroke="black" stroke-width="4"/>
<path d="M547.414 497.132H493.254V534.091H547.414V497.132Z" fill="#FFE499" stroke="black" stroke-width="4"/>
<path d="M532.729 497.132H478.576V534.091H532.729V497.132Z" fill="#FFF461" stroke="black" stroke-width="4"/>
<path d="M558.546 527.007H611.696V561.937H558.546L525.548 546.245L558.546 527.007Z" fill="#FFF461" stroke="black" stroke-width="4"/>
<path d="M558.546 527.007H432.517V561.937H558.546V527.007Z" fill="white" stroke="black" stroke-width="4"/>
<path d="M568.667 403.471H442.638V507.762H568.667V403.471Z" fill="white" stroke="black" stroke-width="4"/>
<path d="M553.485 418.657H457.82V492.575H553.485V418.657Z" fill="#FFE499" stroke="black" stroke-width="4"/>
<path d="M550.952 534.597H507.426V543.71H550.952V534.597Z" fill="#3C3C3C" stroke="black" stroke-width="4"/>
<path d="M579.302 418.964V492.269" stroke="black" stroke-width="4" stroke-linecap="round" stroke-linejoin="round"/>
<path d="M471.487 433.338H505.91" stroke="black" stroke-width="4" stroke-linecap="round" stroke-linejoin="round"/>
<path d="M471.487 443.462H487.688" stroke="black" stroke-width="4" stroke-linecap="round" stroke-linejoin="round"/>
<path d="M471.487 458.657H496.799" stroke="black" stroke-width="4" stroke-linecap="round" stroke-linejoin="round"/>
<path d="M565.498 551.231C563.699 551.33 561.992 550.664 560.66 549.431C559.618 548.106 559.052 546.49 558.233 546.881C553.93 547.348 548.149 548.581 542.361 548.389C537.147 548.389 531.934 547.631 526.811 546.299C526.337 546.582 523.871 547.723 519.89 549.622L518.367 549.056L511.545 500.77L513.344 500.012C530.793 498.587 548.05 497.921 563.6 497.921C585.604 497.921 609.499 499.629 610.448 504.277C610.831 505.51 610.64 506.843 609.882 507.884C607.983 510.258 601.912 511.392 586.836 512.058C587.403 513.483 589.776 520.881 584.18 524.955C585.321 526.479 585.795 528.279 585.696 530.078C585.512 532.36 584.18 534.535 581.814 536.626C582.855 538.242 583.047 540.134 582.381 541.941C581.523 544.407 578.683 547.914 570.238 550.472C568.63 550.947 567.114 551.231 565.498 551.231Z" fill="#C65A42" stroke="black" stroke-width="4"/>
<path d="M400.59 816.829L398.316 811.805L398.217 811.614C399.166 802.791 400.682 793.877 402.489 784.863L406.562 772.725L480.721 774.142L484.518 784.955C482.619 790.745 481.479 796.527 480.721 802.508L459.383 844.621L400.59 816.829Z" fill="#C65A42" stroke="black" stroke-width="4"/>
<path d="M395.858 872.605V872.413C395.767 867.006 395.667 861.791 395.667 856.576L398.607 853.16L506.813 856.101L507.663 856.476C507.854 856.576 508.045 856.668 508.137 856.859C510.511 861.508 512.027 868.239 512.027 872.413V872.605H395.858Z" fill="#8FFFA9" stroke="black" stroke-width="4"/>
<path d="M395.667 856.576V856.384C395.667 850.028 395.95 843.863 396.142 837.89C396.241 835.424 396.425 832.958 396.524 830.675C396.9 824.135 398.232 811.614 398.232 811.614H398.416C428.673 812.939 448.587 829.159 452.852 832.958C453.043 833.049 453.227 832.958 453.227 832.766L450.478 815.313C450.003 812.089 450.861 808.765 453.043 806.299C455.125 803.833 458.165 802.508 461.388 802.508H480.445C480.544 802.508 480.636 802.6 480.636 802.791C480.544 803.358 480.445 804.591 480.445 804.874C480.353 806.682 480.161 808.29 480.161 809.906C480.253 829.259 488.79 837.032 497.135 844.621C500.458 847.562 503.299 850.595 504.248 851.644C504.439 851.828 504.631 852.119 504.814 852.303L507.663 856.293C507.755 856.476 507.663 856.668 507.471 856.668L395.667 856.576Z" fill="white" stroke="black" stroke-width="4"/>
<path d="M402.497 784.863C408.851 751.19 419.945 718.657 435.212 688.016L398.324 658.133C373.671 658.133 346.928 680.618 335.734 666.58C326.256 654.718 323.124 638.788 326.914 621.902C332.511 597.617 341.522 582.063 341.614 581.871L341.714 581.78L370.631 585.004C371.68 585.096 476.18 597.142 508.046 635.089C529.192 660.124 509.937 713.25 494.479 756.03C490.689 766.552 487.083 776.516 484.526 784.955L402.497 784.863Z" fill="#FFF461" stroke="black" stroke-width="4"/>
<path d="M482.336 824.418L469.436 829.825" stroke="black" stroke-width="4" stroke-linecap="round" stroke-linejoin="round"/>
<path d="M487.834 834.949L479.014 841.588" stroke="black" stroke-width="4" stroke-linecap="round" stroke-linejoin="round"/>
<path d="M484.518 784.955L402.489 784.863" stroke="black" stroke-width="4" stroke-linecap="round" stroke-linejoin="round"/>
<path d="M527.378 821.953L527.286 819.862C526.62 818.062 520.265 819.77 519.507 817.779C516.659 810.097 512.961 799.184 510.971 791.978L513.436 782.589L575.176 746.449L585.221 755.93C587.12 765.702 588.452 771.584 589.394 773.958L585.037 821.853L527.378 821.953Z" fill="#C65A42" stroke="black" stroke-width="4"/>
<path d="M536.289 857.334C536.106 857.334 536.006 857.235 536.006 857.051C532.783 850.12 526.995 836.94 526.237 834.757C523.871 828.968 520.073 819.104 519.698 817.871C519.698 817.779 519.698 817.679 519.79 817.679L521.122 817.113C532.875 811.706 544.443 809.523 557.436 809.523C564.74 809.431 571.853 810.381 578.873 812.181C579.348 812.272 579.723 811.805 579.44 811.331L570.903 799.092C566.922 793.303 568.346 785.338 574.127 781.356C574.701 780.973 575.267 780.598 575.834 780.307L589.11 774.142C589.393 774.05 589.684 774.142 589.868 774.333C590.059 774.616 590.151 774.999 590.251 775.283C590.725 776.424 591.292 777.557 591.858 778.599C600.587 795.868 611.772 798.993 622.583 802.033C627.804 803.55 632.735 804.875 637.191 807.815L637.283 808.29L542.552 858.942L536.289 857.334Z" fill="white" stroke="black" stroke-width="4"/>
<path d="M599.829 790.461L591.392 800.701" stroke="black" stroke-width="4" stroke-linecap="round" stroke-linejoin="round"/>
<path d="M609.308 797.477L604.668 807.532" stroke="black" stroke-width="4" stroke-linecap="round" stroke-linejoin="round"/>
<path d="M342.648 424.983C339.899 411.42 345.871 394.625 344.638 387.227L340.757 381.537C338.475 369.682 338.575 353.745 351.376 342.074C359.53 334.867 359.622 337.617 371.764 337.617C378.119 337.617 380.676 335.434 386.648 337.716C394.144 340.557 404.005 336.292 407.611 342.173C411.493 348.338 414.149 356.303 417.281 365.792L417.756 367.308C422.495 367.974 425.243 369.299 425.718 371.106C426.476 374.331 422.594 379.263 422.02 380.021C427.142 395.958 426.951 404.681 421.454 412.178C418.039 416.827 411.209 419.668 403.056 419.668C400.024 419.668 397.084 419.293 394.236 418.343L395.568 426.691L342.456 425.358L342.648 424.983Z" fill="#C65A42" stroke="black" stroke-width="4"/>
<path d="M313.914 606.822C313.439 606.631 269.63 582.63 277.692 539.375C279.966 524.671 285.655 505.035 293.342 485.69C302.154 463.305 310.599 453.15 312.965 450.592C324.349 438.071 341.89 435.038 343.98 434.747C343.88 433.989 343.505 431.714 343.222 429.532C342.931 427.64 342.747 425.932 342.556 425.167V424.699H397.842L399.549 435.038C436.345 440.82 446.298 460.456 462.897 492.989C464.887 496.879 466.878 500.862 469.06 505.035C482.711 503.044 499.119 501.245 513.153 500.012H513.344L519.89 549.622L518.749 550.189C507.655 555.404 490.965 563.277 467.353 564.135C466.878 564.135 466.403 564.135 465.929 564.135C443.833 564.135 424.96 544.974 422.594 542.508L413.866 577.322L413.774 577.889H327.289C326.432 579.405 316.663 597.426 314.297 606.531L314.197 606.723L313.914 606.822Z" fill="#8FFFA9" stroke="black" stroke-width="4"/>
<path d="M343.88 448.693C335.252 448.693 327.573 445.377 322.734 439.587C318.561 434.655 316.854 428.016 318.086 421.659C320.743 406.388 336.109 400.132 337.817 399.465C336.676 393.109 335.635 386.661 335.06 383.153L334.968 382.678C332.695 370.815 328.422 348.714 341.224 337.142C349.385 329.935 361.046 325.761 373.181 325.761C379.536 325.761 385.89 326.903 391.87 329.177C398.408 331.551 404.005 336.1 407.703 342.074V342.173V342.265C407.772 356.939 389.588 352.665 390.691 354.71C399.488 368.901 387.513 381.177 387.077 381.706L386.679 382.226L386.334 382.663C385.025 381.606 374.13 372.807 364.935 372.807C360.854 372.807 358.014 374.614 356.398 378.213C349.002 394.909 372.522 407.338 371.979 407.384C372.3 408.808 378.119 439.304 356.306 446.51C352.226 447.935 348.053 448.693 343.88 448.693Z" fill="#1A1A1A" stroke="black" stroke-width="4"/>
<path d="M422.595 542.508L406.279 520.122" stroke="black" stroke-width="4" stroke-linecap="round" stroke-linejoin="round"/>
<path d="M301.021 548.673L322.358 544.69" stroke="black" stroke-width="4" stroke-linecap="round" stroke-linejoin="round"/>
<path d="M469.06 505.035L465.171 521.355" stroke="black" stroke-width="4" stroke-linecap="round" stroke-linejoin="round"/>
<path d="M513.344 500.011L519.89 549.622" stroke="black" stroke-width="4" stroke-linecap="round" stroke-linejoin="round"/>
<path d="M399.549 435.038C396.135 434.847 390.538 435.222 390.538 435.222" stroke="black" stroke-width="4" stroke-linecap="round" stroke-linejoin="round"/>
<path d="M370.341 389.502L376.979 394.25" stroke="black" stroke-width="4" stroke-linecap="round" stroke-linejoin="round"/>
<path d="M406.379 382.862C408.553 385.902 412.159 387.61 415.857 387.61" stroke="black" stroke-width="4" stroke-linecap="round" stroke-linejoin="round"/>
<path d="M394.335 418.243L386.082 414.544" stroke="black" stroke-width="4" stroke-linecap="round" stroke-linejoin="round"/>
<path d="M407.795 372.431C409.104 372.431 410.168 371.367 410.168 370.057C410.168 368.748 409.104 367.691 407.795 367.691C406.485 367.691 405.429 368.748 405.429 370.057C405.429 371.367 406.485 372.431 407.795 372.431Z" fill="#231F20" stroke="black" stroke-width="4"/>
<path d="M586.553 511.867C578.965 508.076 566.639 507.126 566.639 507.126" stroke="black" stroke-width="4" stroke-linecap="round" stroke-linejoin="round"/>
<path d="M583.896 524.955C578.016 522.305 564.74 520.406 564.74 520.406" stroke="black" stroke-width="4" stroke-linecap="round" stroke-linejoin="round"/>
<path d="M581.523 536.626C576.118 534.635 562.842 532.736 562.842 532.736" stroke="black" stroke-width="4" stroke-linecap="round" stroke-linejoin="round"/>
<path d="M453.22 832.766L458.15 856.576" stroke="black" stroke-width="4" stroke-linecap="round" stroke-linejoin="round"/>
<path d="M510.978 791.978C497.893 742.559 496.944 718.749 497.043 688.207L359.445 688.491C344.745 688.491 332.227 682.801 323.032 672.079C314.871 662.498 310.04 649.502 309.465 635.556C308.707 618.394 314.587 598.758 326.914 577.223L327.105 576.939L413.874 577.322C414.923 577.506 518.665 596.384 546.066 624.459C564.847 643.812 569.303 669.138 575.558 704.236C576.607 710.018 577.648 715.999 578.881 722.256L579.731 726.622C581.722 737.244 585.236 755.93 585.236 755.93L510.978 791.978Z" fill="#FFF461" stroke="black" stroke-width="4"/>
<path d="M543.593 872.038C541.128 867.29 539.513 864.257 537.239 859.608L536.105 857.234C536.105 857.142 536.106 857.051 536.197 856.951L637.099 807.815L637.382 808.007C638.799 808.956 639.94 809.906 641.172 811.039L641.364 811.231C641.364 811.231 646.294 817.02 647.91 820.436L648.002 820.62L543.877 872.605L543.593 872.038Z" fill="#8FFFA9" stroke="black" stroke-width="4"/>
<path d="M316.287 502.386L322.359 544.69L327.098 576.94L413.866 577.323" stroke="black" stroke-width="4" stroke-linecap="round" stroke-linejoin="round"/>
<path d="M500.076 740.568C497.327 721.406 497.044 706.136 497.044 688.208L435.021 688.299" stroke="black" stroke-width="4" stroke-linecap="round" stroke-linejoin="round"/>
<path d="M511.637 672.171L497.036 688.207" stroke="black" stroke-width="4" stroke-linecap="round" stroke-linejoin="round"/>
<path d="M585.221 755.93L510.971 791.978" stroke="black" stroke-width="4" stroke-linecap="round" stroke-linejoin="round"/>
<path d="M579.249 811.331L591.958 829.825" stroke="black" stroke-width="4" stroke-linecap="round" stroke-linejoin="round"/>
<path d="M364.729 607.879H341.568V693.369H364.729V607.879Z" fill="#FFE499" stroke="black" stroke-width="4"/>
<path d="M379.911 719.737H356.743V805.227H379.911V719.737Z" fill="#FFE499" stroke="black" stroke-width="4"/>
<path d="M353.466 797.239H383.18C388.455 797.239 392.689 801.474 392.689 806.751V819.609H343.965V806.751C343.965 801.474 348.199 797.239 353.466 797.239Z" fill="#FFE499" stroke="black" stroke-width="4"/>
<path d="M383.18 730.926H353.466C348.199 730.926 343.965 726.691 343.965 721.414V703.44H392.689V706.955V721.414C392.689 726.691 388.455 730.926 383.18 730.926Z" fill="#FFE499" stroke="black" stroke-width="4"/>
<path d="M312.812 538.365H393.486C415.536 538.365 433.428 556.262 433.428 578.318C433.428 600.366 415.536 618.264 393.486 618.264H312.812C290.762 618.264 272.869 600.366 272.869 578.318C272.869 556.262 290.762 538.365 312.812 538.365Z" fill="#FFE499" stroke="black" stroke-width="4"/>
<path d="M421.845 685.382H487.344C493.737 685.382 498.928 690.574 498.928 696.969C498.928 703.356 493.737 708.548 487.344 708.548H421.845C415.452 708.548 399.879 703.356 399.879 696.969C399.879 690.574 415.452 685.382 421.845 685.382Z" fill="#FFE499" stroke="black" stroke-width="4"/>
<path d="M300.432 840.708V828.723C300.432 823.683 304.505 819.609 309.535 819.609H427.035C432.066 819.609 436.139 823.683 436.139 828.723V840.708" stroke="black" stroke-width="4" stroke-linecap="round" stroke-linejoin="round"/>
<path d="M368.327 840.386V810.664" stroke="black" stroke-width="4" stroke-linecap="round" stroke-linejoin="round"/>
<path d="M368.327 873.463C379.13 873.463 387.897 864.701 387.897 853.888C387.897 843.074 379.13 834.313 368.327 834.313C357.517 834.313 348.758 843.074 348.758 853.888C348.758 864.701 357.517 873.463 368.327 873.463Z" fill="#231F20" stroke="black" stroke-width="4"/>
<path d="M300.432 873.463C311.235 873.463 320.001 864.701 320.001 853.888C320.001 843.074 311.235 834.313 300.432 834.313C289.621 834.313 280.862 843.074 280.862 853.888C280.862 864.701 289.621 873.463 300.432 873.463Z" fill="#231F20" stroke="black" stroke-width="4"/>
<path d="M300.432 857.962C302.859 857.962 304.826 855.994 304.826 853.566C304.826 851.138 302.859 849.178 300.432 849.178C298.005 849.178 296.037 851.138 296.037 853.566C296.037 855.994 298.005 857.962 300.432 857.962Z" fill="#FFE499" stroke="black" stroke-width="4"/>
<path d="M368.327 857.962C370.754 857.962 372.722 855.994 372.722 853.566C372.722 851.138 370.754 849.178 368.327 849.178C365.9 849.178 363.933 851.138 363.933 853.566C363.933 855.994 365.9 857.962 368.327 857.962Z" fill="#FFE499" stroke="black" stroke-width="4"/>
<path d="M436.223 873.463C447.033 873.463 455.792 864.701 455.792 853.888C455.792 843.074 447.033 834.313 436.223 834.313C425.412 834.313 416.653 843.074 416.653 853.888C416.653 864.701 425.412 873.463 436.223 873.463Z" fill="#231F20" stroke="black" stroke-width="4"/>
<path d="M341.568 618.264H364.729" stroke="black" stroke-width="4" stroke-linecap="round" stroke-linejoin="round"/>
<path d="M320.797 578.318H385.5" stroke="black" stroke-width="4" stroke-linecap="round" stroke-linejoin="round"/>
<path d="M436.223 857.962C438.65 857.962 440.617 855.994 440.617 853.566C440.617 851.138 438.65 849.178 436.223 849.178C433.796 849.178 431.828 851.138 431.828 853.566C431.828 855.994 433.796 857.962 436.223 857.962Z" fill="#FFE499" stroke="black" stroke-width="4"/>
<path d="M284.453 685.382H421.844C428.237 685.382 433.428 690.574 433.428 696.969C433.428 703.356 428.237 708.548 421.844 708.548H284.453C278.068 708.548 272.869 703.356 272.869 696.969C272.869 690.574 278.068 685.382 284.453 685.382Z" fill="#FFE499" stroke="black" stroke-width="4"/>
<path d="M343.965 708.548H392.689" stroke="black" stroke-width="4" stroke-linecap="round" stroke-linejoin="round"/>
<path d="M341.568 685.382H364.729" stroke="black" stroke-width="4" stroke-linecap="round" stroke-linejoin="round"/>
</g>
<defs>
<linearGradient id="paint0_linear_6_6256" x1="946.481" y1="84.0623" x2="908.053" y2="60.4712" gradientUnits="userSpaceOnUse">
<stop stop-color="#FE5D32"/>
<stop offset="1" stop-color="#FFE499"/>
</linearGradient>
<linearGradient id="paint1_linear_6_6256" x1="273.481" y1="603.062" x2="235.053" y2="579.471" gradientUnits="userSpaceOnUse">
<stop stop-color="#FE5D32"/>
<stop offset="1" stop-color="#FFE499"/>
</linearGradient>
<clipPath id="clip0_6_6256">
<rect width="1225" height="1085" fill="white"/>
</clipPath>
</defs>
</svg>
