<svg width="9" height="9" viewBox="0 0 9 9" fill="none" xmlns="http://www.w3.org/2000/svg">
<path d="M6.22948 2.41068L6.22949 2.41059C6.2619 2.06523 6.13109 1.73625 5.82261 1.47383C5.51008 1.20799 5.04735 1.0415 4.50002 1.0415C3.94746 1.0415 3.48327 1.20779 3.17372 1.47068L6.22948 2.41068ZM6.22948 2.41068C6.15983 3.15431 5.41026 3.83317 4.50002 3.83317C3.58925 3.83317 2.83903 3.15386 2.77043 2.41128L6.22948 2.41068ZM8.28639 7.62451V7.62454C8.32769 7.62495 8.36613 7.61795 8.39787 7.60643C8.42978 7.59486 8.44889 7.58102 8.45797 7.57245L8.45848 7.57196C8.46418 7.56659 8.46701 7.56266 8.46821 7.56078C8.46853 7.56026 8.46877 7.55985 8.46895 7.55953L8.46893 7.55917C8.46885 7.55837 8.46867 7.557 8.46821 7.55503L8.46814 7.55471C8.32689 6.93735 7.87978 6.37718 7.08651 5.96047L8.28639 7.62451ZM8.28639 7.62451H8.28137M8.28639 7.62451H8.28137M8.28137 7.62451H0.718873V7.62449M8.28137 7.62451L0.718873 7.62449M0.718873 7.62449L0.713749 7.62454M0.718873 7.62449L0.713749 7.62454M0.713749 7.62454C0.672453 7.62496 0.634014 7.61797 0.602261 7.60646C0.570351 7.5949 0.55122 7.58106 0.542121 7.57247L0.541757 7.57213M0.713749 7.62454L0.541757 7.57213M0.541757 7.57213C0.536058 7.56676 0.533236 7.56283 0.532036 7.56095C0.53171 7.56043 0.531469 7.56002 0.531294 7.5597L0.531313 7.55934C0.53139 7.55854 0.531574 7.55717 0.532026 7.5552L0.532098 7.55488M0.541757 7.57213L0.532098 7.55488M0.532098 7.55488C0.673358 6.93748 1.12053 6.37725 1.91394 5.96036M0.532098 7.55488L1.91394 5.96036M1.91394 5.96036C2.62222 5.58852 3.54119 5.37451 4.50012 5.37451M1.91394 5.96036L4.50012 5.37451M4.50012 5.37451C5.45898 5.37451 6.378 5.58866 7.08636 5.96039L4.50012 5.37451ZM2.77041 2.41107C2.73805 2.05776 2.87025 1.72847 3.17369 1.4707L2.77041 2.41107Z" fill="#231F20" stroke="#231F20"/>
</svg>
