<svg width="89" height="75" viewBox="0 0 89 75" fill="none" xmlns="http://www.w3.org/2000/svg">
<path d="M87.3301 73.1345C88.7207 71.8337 89.2812 70.0574 88.8661 68.261L87.3301 73.1345ZM87.3301 73.1345C86.6985 73.727 85.9061 74.2018 85.0105 74.5245M87.3301 73.1345L85.0105 74.5245M85.0105 74.5245C84.1149 74.8471 83.1387 75.0094 82.1528 74.9996L85.0105 74.5245ZM82.1578 74.4996H82.1528L6.84719 74.4995L6.8421 74.4996C5.9137 74.509 4.99678 74.3563 4.1591 74.0548C3.32125 73.7532 2.58915 73.3125 2.01187 72.7714L2.0115 72.7711C0.745754 71.587 0.247795 69.9907 0.621031 68.3753L0.621104 68.3749C2.38617 60.7126 7.90141 54.2332 16.6629 49.6606C24.4498 45.5998 34.3356 43.3555 44.5 43.3555C54.6644 43.3555 64.5503 45.6015 72.3373 49.6607C81.0987 54.2316 86.6138 60.7109 88.3789 68.3733L88.379 68.3736C88.7522 69.989 88.2542 71.5853 86.9885 72.7694L86.988 72.7699C86.4109 73.3112 85.6789 73.7522 84.8411 74.0541C84.0034 74.3558 83.0864 74.5088 82.1578 74.4996ZM44.499 0.5C50.8207 0.5 56.5148 2.40816 60.5724 5.83637C64.672 9.30019 66.649 13.9373 66.18 18.9012C65.2428 28.8389 55.5602 37.0014 44.499 37.0014C33.4372 37.0014 23.7385 28.8368 22.8159 18.8987C22.3527 13.8847 24.3197 9.23821 28.3911 5.80311C32.4284 2.39741 38.1412 0.5 44.499 0.5Z" fill="#231F20" stroke="#231F20"/>
</svg>
