<svg width="1600" height="1200" viewBox="0 0 1600 1200" fill="none" xmlns="http://www.w3.org/2000/svg">
<path d="M570.1 672.6V763.5C570.1 776.5 559.6 787 546.6 787H531.3C518.3 787 507.8 797.5 507.8 810.5V846.1C507.8 859.1 518.3 869.6 531.3 869.6H900.7C913.7 869.6 924.2 880.1 924.2 893.1V922.8C924.2 935.8 934.7 946.3 947.7 946.3H966.5C979.5 946.3 990 935.8 990 922.8V857.5C990 844.5 1000.5 834 1013.5 834H1316.5C1329.5 834 1340 823.5 1340 810.5V703.9" stroke="black" stroke-width="4" stroke-linecap="round" stroke-linejoin="round"/>
<path d="M335.01 234.25C301.43 235.1 274.96 262.92 275.72 296.42C276.15 314.68 284.86 331.85 299.32 343.02C308.71 350.2 314.2 361.28 314.29 373.04L317.5 379.81H353.36L358.69 373.04C358.69 361.37 364.1 350.29 373.41 343.19C400.05 322.8 405.21 284.74 384.82 258.02C372.98 242.63 354.46 233.75 335.01 234.25Z" fill="#FFF461" stroke="black" stroke-width="4"/>
<path d="M314.29 373.12V388.6C314.29 400.87 324.18 410.76 336.45 410.76C348.71 410.76 358.61 400.87 358.61 388.6V373.12H314.29Z" fill="#5B582C" stroke="black" stroke-width="4"/>
<path d="M314.29 373.04H358.69" stroke="black" stroke-width="4" stroke-linecap="round" stroke-linejoin="round"/>
<path d="M314.29 385.3H358.61" stroke="black" stroke-width="4" stroke-linecap="round" stroke-linejoin="round"/>
<path d="M329.01 373.04V355.36C329.01 343.52 324.35 332.11 315.98 323.73C309.64 317.39 306.17 308.85 306.17 299.88C306.17 293.54 311.33 288.47 317.59 288.47C323.93 288.47 329.01 293.62 329.01 299.88V306.48C329.01 310.54 332.3 313.84 336.36 313.84C340.42 313.84 343.72 310.54 343.72 306.48V299.88C343.72 293.54 348.88 288.47 355.14 288.47H355.31C361.65 288.47 366.73 293.62 366.73 299.88C366.73 308.85 363.17 317.47 356.83 323.82C348.46 332.28 343.72 343.61 343.72 355.53L343.81 373.12" stroke="black" stroke-width="4" stroke-linecap="round" stroke-linejoin="round"/>
<path d="M707.21 418.08L645.1 398.65V367.99H624.06L515.35 464.97L624.06 574.38H645.1V543.72L707.21 524.29V418.08Z" fill="#5B582C" stroke="black" stroke-width="4"/>
<path d="M581.98 553.34H474.77V626.48H581.98V553.34Z" fill="#F3E9EC" stroke="black" stroke-width="4"/>
<path d="M552.92 553.34H445.72V626.48H552.92V553.34Z" fill="#5B582C" stroke="black" stroke-width="4"/>
<path d="M604.02 612.45H709.22V681.58H604.02L538.69 650.52L604.02 612.45Z" fill="#5B582C" stroke="black" stroke-width="4"/>
<path d="M604.02 612.45H354.55V681.58H604.02V612.45Z" fill="#FFE499" stroke="black" stroke-width="4"/>
<path d="M624.06 367.99H374.58V574.38H624.06V367.99Z" fill="#FFE499" stroke="black" stroke-width="4"/>
<path d="M594 398.05H404.64V544.32H594V398.05Z" fill="#F3E9EC" stroke="black" stroke-width="4"/>
<path d="M588.99 627.48H502.83V645.51H588.99V627.48Z" fill="black" stroke="black" stroke-width="4"/>
<path d="M645.1 398.65V543.72" stroke="black" stroke-width="4" stroke-linecap="round" stroke-linejoin="round"/>
<path d="M431.69 427.1H499.82" stroke="black" stroke-width="4" stroke-linecap="round" stroke-linejoin="round"/>
<path d="M431.69 447.14H463.75" stroke="black" stroke-width="4" stroke-linecap="round" stroke-linejoin="round"/>
<path d="M431.69 477.2H481.79" stroke="black" stroke-width="4" stroke-linecap="round" stroke-linejoin="round"/>
<path d="M1415.57 248.64L1457.78 670.72C1461.03 703.28 1431.09 729.73 1390.7 729.84L781.22 731.43C740.98 731.53 705.76 705.25 702.51 672.69L660.3 250.61C657.04 218.05 686.99 191.6 727.23 191.5L1336.7 189.91C1376.94 189.8 1412.31 216.08 1415.57 248.64Z" fill="white" stroke="black" stroke-width="4"/>
<path d="M769.43 281.91H984.56C998.24 281.91 1010.61 293.05 1012.12 306.73C1013.63 320.41 1003.72 331.56 990.04 331.56H774.91C761.23 331.56 748.86 320.41 747.34 306.73C745.83 293.05 755.75 281.91 769.43 281.91Z" fill="#FE5D32" stroke="black" stroke-width="4"/>
<path d="M780.76 384.51H906.53C920.21 384.51 932.58 395.65 934.09 409.33C935.6 423.01 925.69 434.16 912.01 434.16H786.24C772.56 434.16 760.19 423.01 758.68 409.33C757.17 395.65 767.08 384.51 780.76 384.51Z" fill="#8FFFA9" stroke="black" stroke-width="4"/>
<path d="M989.27 384.51H1028.98C1042.66 384.51 1055.04 395.65 1056.55 409.33C1058.06 423.01 1048.15 434.16 1034.47 434.16H994.75C981.07 434.16 968.7 423.01 967.19 409.33C965.68 395.65 975.59 384.51 989.27 384.51Z" fill="#FFE499" stroke="black" stroke-width="4"/>
<path d="M792.09 487.11H822.98C836.66 487.11 849.03 498.25 850.54 511.93C852.05 525.61 842.14 536.76 828.46 536.76H797.57C783.89 536.76 771.52 525.61 770.01 511.93C768.5 498.25 778.41 487.11 792.09 487.11Z" fill="#F0DBE0" stroke="black" stroke-width="4"/>
<path d="M905.72 487.11H1091.07C1104.75 487.11 1117.12 498.25 1118.63 511.93C1120.14 525.61 1110.23 536.76 1096.55 536.76H911.21C897.53 536.76 885.15 525.61 883.64 511.93C882.13 498.25 892.04 487.11 905.72 487.11Z" fill="#FFF461" stroke="black" stroke-width="4"/>
<path d="M1173.81 487.11H1332.67C1346.35 487.11 1358.73 498.25 1360.24 511.93C1361.75 525.61 1351.84 536.76 1338.16 536.76H1179.29C1165.61 536.76 1153.24 525.61 1151.73 511.93C1150.22 498.25 1160.13 487.11 1173.81 487.11Z" fill="white" stroke="black" stroke-width="4"/>
<path d="M803.42 589.71H902.711C916.391 589.71 928.771 600.85 930.281 614.53C931.791 628.21 921.87 639.36 908.19 639.36H808.901C795.221 639.36 782.851 628.21 781.341 614.53C779.831 600.85 789.74 589.71 803.42 589.71Z" fill="#030303" stroke="black" stroke-width="4"/>
<path d="M985.451 589.71H1007.52C1021.2 589.71 1033.57 600.85 1035.08 614.53C1036.59 628.21 1026.68 639.36 1013 639.36H990.941C977.261 639.36 964.881 628.21 963.371 614.53C961.861 600.85 971.771 589.71 985.451 589.71Z" fill="#F0DBE0" stroke="black" stroke-width="4"/>
<path d="M1090.26 589.71H1221.55C1235.23 589.71 1247.6 600.85 1249.11 614.53C1250.62 628.21 1240.71 639.36 1227.03 639.36H1095.74C1082.06 639.36 1069.69 628.21 1068.18 614.53C1066.67 600.85 1076.58 589.71 1090.26 589.71Z" fill="#FE5D32" stroke="black" stroke-width="4"/>
<path d="M1047.47 478.89L1047.91 472.79C1028.64 452.89 1015.55 440.87 1009 436.98C989.82 425.57 964.08 417.08 953.82 417.08C950.82 417.08 949.14 417.79 948.96 419.29C948.17 425.57 968.77 435.21 971.78 436.53C965.76 439.72 967.18 447.15 967.44 448.21C960.81 454.13 964.52 460.06 965.14 460.94C964.35 461.82 959.31 468.1 966.2 475C970.45 479.25 974.52 480.13 977.08 480.13C978.67 480.13 979.73 479.78 980.09 479.69C986.81 491.01 999.37 494.54 1000.51 494.81C1000.78 495.43 1002.64 499.67 1005.64 505.77L1011.75 507.19L1047.47 478.89Z" fill="#E59763" stroke="black" stroke-width="4"/>
<path d="M1220.17 442.46V442.28C1222.83 430.7 1226.8 412.57 1230.7 392.23C1233.97 374.81 1231.76 360.49 1224.15 350.76C1217.34 342 1206.55 337.14 1192.14 336.17C1190.73 336.08 1189.4 336.08 1188.07 336.08C1160.04 336.08 1149.96 355.09 1144.21 371.72C1143.33 374.37 1142.36 377.02 1141.56 379.67C1140.5 379.76 1133.6 380.47 1132.72 383.92C1131.83 387.28 1136.43 392.14 1137.14 392.85C1133.87 403.73 1132.89 410.09 1132.63 413.63C1132.45 416.28 1132.54 422.92 1137.4 428.22C1141.74 432.91 1148.63 435.21 1157.92 435.21C1160.48 435.21 1163.22 435.03 1166.05 434.68L1164.64 442.9L1220.17 442.46Z" fill="#E59763" stroke="black" stroke-width="4"/>
<path d="M1254.84 618.43C1274.73 616.31 1288.62 603.49 1291.89 583.95C1294.89 566.17 1284.2 516.3 1263.77 486.32C1244.23 457.67 1220.26 452.27 1217.87 451.83C1218.05 451.04 1218.93 447.59 1220.17 442.28L1220.26 442.1L1164.82 441.93L1163.49 449.27C1151.37 449.89 1139.61 452.45 1128.29 456.87C1110.87 463.77 1080.37 501.97 1078.07 504.8C1076.56 503.12 1062.95 488.18 1047.91 472.7L1047.82 472.61L1005.56 505.6L1005.64 505.77C1016.17 527.09 1043.58 576.61 1070.2 577.58C1070.82 577.58 1071.52 577.58 1072.14 577.58C1089.47 577.58 1105.21 568.91 1115.38 561.66C1125.29 554.59 1131.92 547.42 1133.25 546.01L1150.31 617.37L1254.84 618.43Z" fill="#8FFFA9" stroke="black" stroke-width="4"/>
<path d="M1299.23 477.65C1301.7 444.4 1284.02 432.38 1266.95 420.62C1253.78 411.6 1241.31 403.11 1238.21 385.6C1231.85 350.05 1221.06 338.29 1192.05 335.02C1190.11 334.84 1188.16 334.66 1186.22 334.66C1163.93 334.66 1153.67 349.52 1149.61 358.54C1149.61 358.54 1151.2 369.15 1166.94 369.15C1168.09 369.15 1169.33 369.06 1169.18 369.21C1168.09 376.76 1169.66 384.94 1174.19 391.88L1174.24 391.97L1174.46 391.89C1174.45 391.88 1183.83 388.43 1192.23 388.43C1199.21 388.43 1203.55 390.73 1205.14 395.33C1209.74 409.03 1188.6 423.27 1188.43 423.45H1188.34V423.53C1188.25 423.8 1181.35 453.07 1191.88 477.56L1191.96 477.65H1299.23Z" fill="#010005" stroke="black" stroke-width="4"/>
<path d="M1190.28 432.73C1184.82 432.73 1180.38 428.3 1180.38 422.83C1180.38 417.35 1184.82 412.92 1190.28 412.92C1195.76 412.92 1200.19 417.35 1200.19 422.83C1200.19 428.3 1195.76 432.73 1190.28 432.73Z" fill="white" stroke="black" stroke-width="4"/>
<path d="M1146.25 600.57V600.39H1165.26H1235.38H1235.47C1281.45 636.12 1291.27 668.84 1301.7 703.5C1307.63 723.22 1313.73 743.56 1326.64 765.84C1333.1 777.07 1340.26 785.39 1348.57 795.11C1362.28 811.12 1379.34 831.1 1403.57 874.61C1404.19 875.76 1404.81 876.91 1405.43 878.06L1405.25 887.61L1335.93 918.65L1328.23 914.93C1319.21 900.79 1307.28 885.93 1295.69 871.52C1288.44 862.5 1280.92 853.12 1274.11 843.93L1273.76 843.4C1258.99 823.41 1246.26 806.17 1230.16 772.65C1229.81 777.34 1229.55 782.2 1229.46 787.15C1229.02 811.65 1231.93 825.62 1235.56 843.4C1239.18 861.26 1243.78 883.45 1246.26 924.22V924.93L1239.98 934.3L1170.65 933.33L1163.67 925.19C1161.19 904.85 1157.03 881.86 1152.97 859.58C1150.31 844.63 1147.75 830.4 1145.89 818.19C1138.2 766.46 1130.77 717.65 1146.25 600.57Z" fill="#FFF461" stroke="black" stroke-width="4"/>
<path d="M1242.55 683.96C1241.04 711.81 1232.2 739.85 1230.16 772.65" stroke="black" stroke-width="4" stroke-linecap="round" stroke-linejoin="round"/>
<path d="M1240.86 1019.63L1243.43 1015.3C1245.82 993.55 1248.29 960.21 1246.26 925.1V924.93H1163.58L1163.67 925.55C1167.03 953.22 1166.41 969.94 1161.81 977.37C1154.03 989.83 1145.45 996.91 1137.93 1003.1C1132.89 1007.17 1128.56 1010.7 1125.29 1015.21L1125.91 1020.96L1240.86 1019.63Z" fill="#8FFFA9" stroke="black" stroke-width="4"/>
<path d="M1240.86 1034.84V1034.67C1240.86 1034.58 1242.1 1027.24 1243.43 1015.3V1015.12H1125.29L1125.2 1015.21C1121.22 1020.61 1119.36 1026.8 1119.36 1034.67V1034.84H1240.86Z" fill="#1E7231" stroke="black" stroke-width="4"/>
<path d="M1434.79 968.43L1436.12 962.33C1431.08 940.67 1421.7 908.39 1405.43 878.06L1405.34 877.88L1328.06 914.76L1328.14 914.93C1340.97 935.1 1346.01 950.93 1343.97 964.81C1341.94 978.87 1337.43 988.68 1333.45 997.35C1330.62 1003.45 1328.41 1008.93 1327.35 1014.51L1331.95 1018.22L1434.79 968.43Z" fill="#8FFFA9" stroke="black" stroke-width="4"/>
<path d="M1440.27 982.49C1440.27 982.32 1439.03 974.54 1436.2 962.42L1436.12 962.24L1327.35 1014.42C1326.11 1021.14 1327.17 1027.68 1330.71 1034.84L1330.8 1035.02L1440.27 982.49Z" fill="#1E7231" stroke="black" stroke-width="4"/>
<path d="M1142.36 402.58C1143.77 403.55 1148.19 403.73 1150.93 400.63" stroke="black" stroke-width="4" stroke-linecap="round" stroke-linejoin="round"/>
<path d="M1150.93 388.25C1152.44 388.25 1153.59 387.01 1153.59 385.6C1153.59 384.18 1152.35 382.95 1150.93 382.95C1149.43 382.95 1148.28 384.18 1148.28 385.6C1148.28 387.01 1149.52 388.25 1150.93 388.25Z" fill="#171314" stroke="black" stroke-width="4"/>
<path d="M1165.61 434.85C1171.54 434.06 1176.22 432.73 1176.22 432.73" stroke="black" stroke-width="4" stroke-linecap="round" stroke-linejoin="round"/>
<path d="M1179.67 408.68L1187.63 405.14" stroke="black" stroke-width="4" stroke-linecap="round" stroke-linejoin="round"/>
<path d="M1247.32 547.51L1235.38 600.57H1146.51" stroke="black" stroke-width="4" stroke-linecap="round" stroke-linejoin="round"/>
<path d="M1254.84 578.46L1241.4 574.04" stroke="black" stroke-width="4" stroke-linecap="round" stroke-linejoin="round"/>
<path d="M1133.34 545.83C1139.88 539.55 1146.07 532.48 1146.07 532.48" stroke="black" stroke-width="4" stroke-linecap="round" stroke-linejoin="round"/>
<path d="M1078.07 505.15V520.54" stroke="black" stroke-width="4" stroke-linecap="round" stroke-linejoin="round"/>
<path d="M1047.82 472.88L1005.91 505.69" stroke="black" stroke-width="4" stroke-linecap="round" stroke-linejoin="round"/>
<path d="M1165.5 965.52L1182.32 967.55" stroke="black" stroke-width="4" stroke-linecap="round" stroke-linejoin="round"/>
<path d="M1161.91 977.93L1174.9 987.18" stroke="black" stroke-width="4" stroke-linecap="round" stroke-linejoin="round"/>
<path d="M1341.92 942.05L1360.07 937.48" stroke="black" stroke-width="4" stroke-linecap="round" stroke-linejoin="round"/>
<path d="M1345.35 959.67L1363.6 957.82" stroke="black" stroke-width="4" stroke-linecap="round" stroke-linejoin="round"/>
<path d="M1246.08 925.1H1163.84" stroke="black" stroke-width="4" stroke-linecap="round" stroke-linejoin="round"/>
<path d="M1328.41 914.85L1405.25 878.15" stroke="black" stroke-width="4" stroke-linecap="round" stroke-linejoin="round"/>
<path d="M972.31 436.53C977.88 436.27 983.36 436.98 988.67 438.74" stroke="black" stroke-width="4" stroke-linecap="round" stroke-linejoin="round"/>
<path d="M967.71 448.21C974.52 446.7 984.24 450.24 984.24 450.24" stroke="black" stroke-width="4" stroke-linecap="round" stroke-linejoin="round"/>
<path d="M965.409 460.94C972.749 459.97 980.709 462.62 980.709 462.62" stroke="black" stroke-width="4" stroke-linecap="round" stroke-linejoin="round"/>
<path d="M709.1 761H894.4V1032H709.1L684.9 906.6L709.1 761Z" fill="#8FFFA9" stroke="black" stroke-width="4"/>
<path d="M709.1 761H605V1032H709.1V761Z" fill="#FFE499" stroke="black" stroke-width="4"/>
<path d="M688.5 790.3H625.6V817H688.5V790.3Z" fill="#848182" stroke="black" stroke-width="4"/>
<path d="M657.6 975.7C660.91 975.7 663.6 973.01 663.6 969.7C663.6 966.39 660.91 963.7 657.6 963.7C654.29 963.7 651.6 966.39 651.6 969.7C651.6 973.01 654.29 975.7 657.6 975.7Z" fill="#848182" stroke="black" stroke-width="4"/>
<path d="M657.6 999.5C660.91 999.5 663.6 996.81 663.6 993.5C663.6 990.19 660.91 987.5 657.6 987.5C654.29 987.5 651.6 990.19 651.6 993.5C651.6 996.81 654.29 999.5 657.6 999.5Z" fill="#848182" stroke="black" stroke-width="4"/>
<path d="M672.8 834.9V849.6" stroke="black" stroke-width="4" stroke-linecap="round" stroke-linejoin="round"/>
<path d="M657 834.9V849.6" stroke="black" stroke-width="4" stroke-linecap="round" stroke-linejoin="round"/>
<path d="M641.3 834.9V849.6" stroke="black" stroke-width="4" stroke-linecap="round" stroke-linejoin="round"/>
<path d="M796 953H863.5" stroke="black" stroke-width="4" stroke-linecap="round" stroke-linejoin="round"/>
<path d="M796 975H863.5" stroke="black" stroke-width="4" stroke-linecap="round" stroke-linejoin="round"/>
<path d="M796 997H863.5" stroke="black" stroke-width="4" stroke-linecap="round" stroke-linejoin="round"/>
<path d="M657.6 946.3C666.27 946.3 673.3 939.27 673.3 930.6C673.3 921.93 666.27 914.9 657.6 914.9C648.93 914.9 641.9 921.93 641.9 930.6C641.9 939.27 648.93 946.3 657.6 946.3Z" fill="#848182" stroke="black" stroke-width="4"/>
<path d="M1399.07 775.48L1411.81 788.22C1416.42 792.91 1424.05 792.91 1428.74 788.3C1433.18 783.69 1433.1 776.4 1428.57 771.88L1415.67 758.98C1414.58 757.89 1414.58 756.21 1415.67 755.12C1416 754.79 1416.42 754.53 1416.84 754.45C1434.52 749.17 1453.12 759.23 1458.4 776.91C1460.66 784.62 1460.16 792.83 1456.89 800.12L1502.64 845.95C1507.34 850.56 1507.34 858.19 1502.73 862.88C1498.12 867.32 1490.83 867.24 1486.3 862.71L1440.3 816.71C1423.54 824.42 1403.77 817.05 1396.06 800.29C1392.62 792.83 1392.04 784.37 1394.47 776.49C1394.88 775.06 1396.48 774.23 1397.9 774.65C1398.32 774.9 1398.74 775.15 1399.07 775.48Z" fill="#FFF461" stroke="black" stroke-width="4"/>
<path d="M443.87 935.28L519.17 896.45C519.26 896.45 519.26 896.45 519.26 896.54L521.63 905.48C523.54 915.41 525.09 923.25 526.19 925.8L521.63 975.49C521.63 975.58 521.63 975.58 521.54 975.58H461.1L452.89 971.66C452.89 971.66 452.89 971.66 452.8 971.57C449.34 961.99 446.33 952.61 443.87 943.31V935.28Z" fill="#ECBE98" stroke="black" stroke-width="4"/>
<path d="M327.82 970.29L325.63 965.46C325.63 965.46 325.63 965.46 325.63 965.37C326.82 955.52 328 946.04 329.83 936.93L334.11 924.35L334.2 924.25L417.89 925.53C417.98 925.53 417.98 925.62 417.98 925.62L415.97 936.83C413.79 944.13 412.42 950.6 411.78 955.7L389.63 999.01C389.63 999.01 389.54 999.1 389.54 999.01L327.82 970.29Z" fill="#ECBE98" stroke="black" stroke-width="4"/>
<path d="M266.291 749.59L272.031 722.88L272.121 722.79L368.021 727.99L373.771 731C374.951 731.09 451.431 737.47 480.421 767.1C503.401 790.71 506.131 823.25 514.971 870.01C517.341 882.59 519.621 895.08 521.631 905.29C521.631 905.29 521.631 905.38 521.541 905.38L443.961 943.22C443.871 943.22 443.871 943.22 443.871 943.12C441.861 935.47 440.041 928.36 438.491 921.7C430.011 884.33 429.101 861.81 429.101 833.92C429.101 833.82 429.101 833.82 429.011 833.82L334.841 834.1C290.261 834.46 256.901 793.26 266.291 749.59Z" fill="#8FFFA9" stroke="black" stroke-width="4"/>
<path d="M227.45 765.27C233.2 740.2 242.31 724.16 242.86 723.16H242.95L296.19 726.62C296.19 726.62 406.77 738.93 440.77 779.31C468.48 812.13 429.65 891.89 415.97 936.74L415.88 936.83H329.92C329.83 936.83 329.83 936.74 329.83 936.74C337.3 898.09 349.61 864.09 364.29 834.74C364.29 834.64 364.29 834.64 364.19 834.64H294.09C240.31 834.64 219.34 800.82 227.45 765.27Z" fill="#8FFFA9" stroke="black" stroke-width="4"/>
<path d="M396.28 750.78C414.61 758.16 430.92 767.46 440.95 779.31C460.37 802.37 446.97 848.41 432.47 889.52" stroke="black" stroke-width="4" stroke-linecap="round" stroke-linejoin="round"/>
<path d="M416.06 936.83H329.92" stroke="black" stroke-width="4" stroke-linecap="round" stroke-linejoin="round"/>
<path d="M521.63 905.38L443.87 943.4" stroke="black" stroke-width="4" stroke-linecap="round" stroke-linejoin="round"/>
<path d="M367.93 509.02C367.48 503.55 368.39 496.81 367.2 490.24C365.84 482.86 362.1 475.75 357.45 469.73C348.7 458.25 322.53 454.78 300.38 464.45C280.6 472.92 281.79 490.7 281.79 509.02L279.32 545.76V563.26V566.73L281.24 593.53C281.24 593.53 281.24 593.62 281.33 593.62L336.94 602.28C337.03 602.28 337.03 602.28 337.03 602.19V561.35V553.23C337.03 553.14 337.12 553.14 337.12 553.14C338.58 553.51 354.35 557.25 362.92 549.31C374.68 538.83 368.93 520.6 367.93 509.02Z" fill="#ECBE98" stroke="black" stroke-width="4"/>
<path d="M360.18 466.36C351.52 454.78 321.71 447.03 299.56 456.7C279.78 465.17 279.32 490.33 279.32 508.66V545.76C279.32 545.85 279.42 545.85 279.42 545.85C287.07 545.3 294.27 541.47 299.47 535.82V535.73C298.47 534.46 282.24 513.22 294.91 502.64C305.94 493.43 319.34 510.3 320.53 511.94C320.53 512.03 320.62 511.94 320.71 511.94L328.37 494.44C328.37 494.44 328.37 494.35 328.46 494.35L367.02 490.24C367.11 490.24 367.11 490.15 367.11 490.15C366.56 481.58 365.01 472.83 360.18 466.36Z" fill="#17151C" stroke="black" stroke-width="4"/>
<path d="M412.42 624.79C403.58 613.49 389.45 596.9 377.69 585.05C360.27 567.64 340.58 563.81 337.12 563.26C337.03 563.26 337.03 563.26 337.03 563.35C336.94 564.99 335.75 585.96 313.97 585.96C292.82 585.96 280.05 564.63 279.32 563.35C279.32 563.35 279.23 563.26 279.23 563.35C266.38 566.82 254.53 572.65 243.95 580.49C232.92 588.51 212.14 610.76 195.46 640.02V640.11L234.02 669.19C234.02 669.19 234.02 669.19 234.02 669.28L238.49 731.54C238.49 731.63 238.49 731.63 238.58 731.63H373.58C373.67 731.63 373.67 731.54 373.67 731.54L368.48 682.86C368.48 682.77 368.57 682.77 368.66 682.77C370.94 685.96 373.67 688.79 376.5 691.8H376.59L385.25 683.14L412.42 624.79Z" fill="#FFF461" stroke="black" stroke-width="4"/>
<path d="M537.761 551.32C537.761 541.66 496.281 559.07 493.371 560.34C493.281 560.34 493.191 560.34 493.281 560.25C493.641 558.89 495.651 550.32 492.361 549.5C488.721 548.59 478.691 555.88 465.111 573.11C452.251 589.33 423.081 633.36 421.531 635.83C421.531 635.92 421.441 635.92 421.351 635.83C420.901 635.28 418.711 632.54 415.431 628.35C414.511 627.26 413.601 626.07 412.601 624.79C412.601 624.7 412.511 624.79 412.421 624.79L376.681 691.71V691.8C380.151 695.35 384.801 699.36 390.451 703.01C399.841 709.03 412.051 714.13 426.911 714.13C467.481 714.13 490.911 624.7 491.541 622.33C491.541 622.33 491.541 622.24 491.641 622.24C497.651 621.33 502.031 616.41 502.481 615.95H502.571C506.491 616.96 510.691 616.68 514.331 615.04C523.721 611.03 521.811 604.74 521.631 604.1V604.01C529.281 595.44 520.901 589.42 519.901 588.7C519.801 588.7 519.801 588.6 519.901 588.51C520.621 587.97 525.001 584.32 522.541 577.67C520.811 572.93 512.331 569.19 510.871 568.64C510.781 568.64 510.781 568.55 510.871 568.46C513.421 567.46 537.761 557.34 537.761 551.32Z" fill="#ECBE98" stroke="black" stroke-width="4"/>
<path d="M421.81 635.46L413.79 647.31" stroke="black" stroke-width="4" stroke-linecap="round" stroke-linejoin="round"/>
<path d="M365.01 647.49L368.57 682.41" stroke="black" stroke-width="4" stroke-linecap="round" stroke-linejoin="round"/>
<path d="M303.12 514.22L309.95 520.96" stroke="black" stroke-width="4" stroke-linecap="round" stroke-linejoin="round"/>
<path d="M337.39 553.23C329.37 550.96 320.98 546.76 320.98 546.76" stroke="black" stroke-width="4" stroke-linecap="round" stroke-linejoin="round"/>
<path d="M345.96 529.72C347.42 531.81 349.79 533.18 352.34 533.36" stroke="black" stroke-width="4" stroke-linecap="round" stroke-linejoin="round"/>
<path d="M369.48 719.69C369.94 715.95 344.05 706.93 320.35 701.55C296.28 695.99 252.25 690.07 249.52 689.7C249.42 689.7 249.42 689.61 249.42 689.61C249.97 688.61 254.16 680.86 258.9 670.74V670.65L195.55 640.11H195.46C187.34 654.33 177.41 673.11 172.85 689.7C159.18 740.66 195.55 743.39 213.78 744.31C231.92 745.22 279.51 741.66 280.24 741.57C280.87 741.75 320.35 753.42 332.11 753.42C342.95 753.42 343.14 748.77 343.05 748.04C343.05 747.95 343.05 747.95 343.14 747.95C344.32 748.04 355.63 748.41 354.9 740.75C354.9 740.66 354.9 740.66 354.99 740.66C356.17 740.48 370.12 737.92 362.19 731.54C357.9 728.08 336.66 719.78 332.74 718.14C332.65 718.14 332.65 717.96 332.74 717.96C343.14 719.05 368.57 726.89 369.48 719.69Z" fill="#ECBE98" stroke="black" stroke-width="4"/>
<path d="M249.42 689.7L267.02 692.16" stroke="black" stroke-width="4" stroke-linecap="round" stroke-linejoin="round"/>
<path d="M249.42 689.7L265.74 658.979" stroke="black" stroke-width="4" stroke-linecap="round" stroke-linejoin="round"/>
<path d="M343.14 747.86L313.97 737.92" stroke="black" stroke-width="4" stroke-linecap="round" stroke-linejoin="round"/>
<path d="M354.991 740.66L319.431 725.16" stroke="black" stroke-width="4" stroke-linecap="round" stroke-linejoin="round"/>
<path d="M332.74 717.96L323.9 714.86" stroke="black" stroke-width="4" stroke-linecap="round" stroke-linejoin="round"/>
<path d="M493.19 560.439L488.08 572.829C488.08 572.829 489.54 591.339 482.25 601.369" stroke="black" stroke-width="4" stroke-linecap="round" stroke-linejoin="round"/>
<path d="M519.9 588.7C509.87 595.08 500.57 594.35 498.65 592.34C495.92 589.61 496.83 583.23 505.95 579.58" stroke="black" stroke-width="4" stroke-linecap="round" stroke-linejoin="round"/>
<path d="M521.63 604.01C516.16 606.75 504.12 609.57 500.48 605.01C496.83 600.46 502.3 594.99 502.3 594.99" stroke="black" stroke-width="4" stroke-linecap="round" stroke-linejoin="round"/>
<path d="M502.48 615.86C499.48 613.58 496.83 610.3 499.11 607.29C499.48 606.75 499.93 606.29 500.48 605.92" stroke="black" stroke-width="4" stroke-linecap="round" stroke-linejoin="round"/>
<path d="M354.71 517.04C355.26 518.41 355.99 520.6 355.63 521.78C355.26 522.51 354.62 523.15 353.8 523.43" stroke="black" stroke-width="4" stroke-linecap="round" stroke-linejoin="round"/>
<path d="M341.68 513.76C343.18 513.76 344.41 512.54 344.41 511.03C344.41 509.51 343.18 508.29 341.68 508.29C340.16 508.29 338.94 509.51 338.94 511.03C338.94 512.54 340.16 513.76 341.68 513.76Z" fill="#17151C" stroke="black" stroke-width="4"/>
<path d="M361.28 512.39C362.78 512.39 364.01 511.17 364.01 509.66C364.01 508.15 362.78 506.93 361.28 506.93C359.76 506.93 358.54 508.15 358.54 509.66C358.54 511.17 359.76 512.39 361.28 512.39Z" fill="#17151C" stroke="black" stroke-width="4"/>
<path d="M440.311 1012.31C431.381 997.46 411.511 993.44 411.321 963.27C411.321 961.63 411.321 959.81 411.511 957.98C411.601 957.25 411.601 956.62 411.691 955.89C411.691 955.8 411.691 955.8 411.601 955.8L391.911 955.7C384.801 955.7 379.421 961.99 380.601 969.01L383.701 988.25C383.701 988.34 383.611 988.43 383.521 988.34C381.331 986.24 359.821 966.92 325.721 965.46C325.631 965.46 325.631 965.46 325.631 965.55C324.901 972.02 324.361 978.4 323.901 985.24C323.721 987.79 323.631 990.35 323.451 992.81C323.171 999.1 322.811 1005.75 322.811 1012.41L382.341 1018.42L440.311 1012.31Z" fill="#CECECE" stroke="black" stroke-width="4"/>
<path d="M440.31 1012.31H322.81C322.72 1012.31 322.72 1012.31 322.72 1012.41C322.63 1017.78 322.63 1023.34 322.81 1028.91C322.81 1029 322.81 1029 322.9 1029H444.69C444.78 1029 444.78 1029 444.78 1028.91C444.78 1024.35 444.05 1020.61 442.96 1017.33C442.14 1015.51 441.32 1013.96 440.31 1012.31Z" fill="#FFD561" stroke="black" stroke-width="4"/>
<path d="M413.33 979.68L400.66 984.88" stroke="black" stroke-width="4" stroke-linecap="round" stroke-linejoin="round"/>
<path d="M419.62 990.16L408.95 998.18" stroke="black" stroke-width="4" stroke-linecap="round" stroke-linejoin="round"/>
<path d="M383.61 988.43L388.53 1012.22" stroke="black" stroke-width="4" stroke-linecap="round" stroke-linejoin="round"/>
<path d="M576.78 961.72C562.1 952.33 542.14 957.44 528.46 930.54C527.83 929.09 526.46 926.35 526.28 925.8C526.28 925.71 526.19 925.71 526.19 925.8L511.96 932.37C504.67 935.83 502.21 945.04 506.86 951.78L516.89 966.19C516.98 966.28 516.89 966.37 516.8 966.37C513.79 965.37 485.16 956.89 452.89 971.66L452.8 971.75C454.9 977.58 457.09 983.42 459.55 989.34C460.55 991.71 461.55 994.08 462.56 996.45C465.11 1002.2 468.12 1008.58 471.03 1014.5C471.12 1014.68 472.04 1015.41 472.31 1015.69H472.4L576.6 962.91C576.87 962.72 577.05 961.9 576.78 961.72Z" fill="#CECECE" stroke="black" stroke-width="4"/>
<path d="M580.52 964.64C579.33 963.45 578.05 962.54 576.78 961.72H576.69L471.22 1014.41C471.22 1014.41 471.12 1014.5 471.22 1014.5C473.59 1019.24 476.05 1024.07 478.69 1028.91C478.69 1028.91 478.78 1029 478.78 1028.91L587.72 974.57C587.72 974.57 587.81 974.48 587.72 974.48C585.62 970.2 583.16 967.01 580.52 964.64Z" fill="#FFD561" stroke="black" stroke-width="4"/>
<path d="M539.13 944.95L530.29 955.61" stroke="black" stroke-width="4" stroke-linecap="round" stroke-linejoin="round"/>
<path d="M549.25 951.42L544.23 962.81" stroke="black" stroke-width="4" stroke-linecap="round" stroke-linejoin="round"/>
<path d="M517.16 966.37L531.75 984.24" stroke="black" stroke-width="4" stroke-linecap="round" stroke-linejoin="round"/>
<path d="M228.82 761.63H253.71L249.7 785.24C248.06 794.63 241.77 801.55 232.2 801.55H231.01" stroke="black" stroke-width="4" stroke-linecap="round" stroke-linejoin="round"/>
<path d="M364.29 834.64C364.29 834.64 375.22 814.59 378.69 808.21" stroke="black" stroke-width="4" stroke-linecap="round" stroke-linejoin="round"/>
<path d="M252.65 855.22C258 855.22 262.4 859.55 262.4 864.9L262.33 890.23V995.03C262.33 1000.38 258 1004.71 252.65 1004.71C247.3 1004.71 242.97 1000.38 242.97 995.03V864.9C242.89 859.55 247.22 855.22 252.65 855.22Z" fill="white" stroke="black" stroke-width="4"/>
<path d="M320.55 1017.69C319.21 1016.51 253.2 958.84 253.2 958.84H252.02C252.02 958.84 186.01 1016.51 184.67 1017.69C183.02 1018.63 181.21 1023.27 183.81 1026.26C185.85 1028.78 189.47 1029.41 192.23 1027.6C192.38 1027.52 228.5 1002.74 250.13 987.87C251.63 986.85 253.51 986.85 255.01 987.87C276.64 1002.74 312.84 1027.52 312.91 1027.6C315.75 1029.41 319.44 1028.7 321.33 1026.26C324.01 1023.19 322.2 1018.63 320.55 1017.69Z" fill="#FFE499" stroke="black" stroke-width="4"/>
<path d="M236.91 955.06H268.3C270.19 955.06 271.69 956.56 271.69 958.44V975.28H233.45V958.44C233.53 956.56 235.03 955.06 236.91 955.06Z" fill="#848182" stroke="black" stroke-width="4"/>
<path d="M233.53 849.09H271.77V875.28C271.77 876.62 270.67 877.8 269.25 877.8H235.97C234.63 877.8 233.53 876.7 233.53 875.28V849.09Z" fill="#848182" stroke="black" stroke-width="4"/>
<path d="M196.08 833.51H309.14C316.69 833.51 322.75 839.64 322.75 847.12C322.75 854.67 316.61 860.73 309.14 860.73H196.08C188.53 860.73 182.47 854.59 182.47 847.12C182.47 839.64 188.61 833.51 196.08 833.51Z" fill="#FFE499" stroke="black" stroke-width="4"/>
</svg>
