<svg width="311" height="404" viewBox="0 0 311 404" fill="none" xmlns="http://www.w3.org/2000/svg">
<path d="M145.03 45.81C181.95 42.18 214.78 69.12 218.41 106.04L223.03 153.01L89.43 166.16L84.81 119.19C81.17 82.27 108.12 49.44 145.03 45.81ZM140.78 2.53999C79.93 8.52999 35.56 62.7 41.54 123.44L50.43 213.78L270.66 192.11L261.77 101.77C255.69 40.93 201.62 -3.44001 140.78 2.53999C140.77 2.44999 140.77 2.44999 140.78 2.53999Z" fill="#FFF8A0"/>
<path d="M140.78 2.53999C79.93 8.52999 35.56 62.7 41.54 123.44L50.43 213.78L270.66 192.11L261.77 101.77C255.69 40.93 201.62 -3.44001 140.78 2.53999ZM140.78 2.53999C140.77 2.44999 140.77 2.44999 140.78 2.53999ZM145.03 45.81C181.95 42.18 214.78 69.12 218.41 106.04L223.03 153.01L89.43 166.16L84.81 119.19C81.17 82.27 108.12 49.44 145.03 45.81Z" stroke="black" stroke-width="4"/>
<path d="M3 165.38L297.45 136.4L307.56 239.05C315.55 320.3 256.12 392.72 174.86 400.71C93.6 408.71 21.1899 349.27 13.1899 268.02L3 165.38Z" fill="#FFF461" stroke="black" stroke-width="4"/>
</svg>
