<svg width="35" height="39" viewBox="0 0 35 39" fill="none" xmlns="http://www.w3.org/2000/svg">
<path d="M25.9564 10.1734L25.9564 10.1735C25.5849 15.2083 21.7659 19.249 17.4991 19.249C13.2321 19.249 9.40672 15.2073 9.04095 10.1721C8.8574 7.63326 9.63916 5.29369 11.2324 3.57596C12.8088 1.87663 15.0311 0.936523 17.4991 0.936523C19.9526 0.936523 22.1676 1.88176 23.7523 3.59262C25.3564 5.32462 26.1423 7.6595 25.9564 10.1734ZM32.2839 38.0598H32.2807L2.71825 38.0598L2.715 38.0598C2.36521 38.0644 2.0188 37.9909 1.70099 37.8447C1.38317 37.6986 1.10194 37.4834 0.877741 37.2148L0.877583 37.2147C0.383199 36.6237 0.177965 35.8092 0.328835 34.9748L0.328859 34.9746C1.02502 31.1128 3.19608 27.8673 6.61939 25.5843C9.66386 23.5554 13.5276 22.4348 17.4995 22.4348C21.4714 22.4348 25.3351 23.5563 28.3796 25.5843C31.8029 27.8665 33.974 31.1119 34.6701 34.9738L34.6702 34.9739C34.821 35.8084 34.6158 36.6228 34.1214 37.2138L34.1212 37.2141C33.8971 37.4828 33.6159 37.6981 33.298 37.8444C32.9802 37.9907 32.6338 38.0643 32.2839 38.0598Z" fill="#FFF461" stroke="#231F20" stroke-width="0.5"/>
</svg>
