<svg width="394" height="435" viewBox="0 0 394 435" fill="none" xmlns="http://www.w3.org/2000/svg">
<path d="M96.6765 29.0068L14.1664 161.937C2.34645 180.957 -1.01359 204.007 4.75641 225.617L43.7465 371.527C55.3765 415.127 100.226 441.157 143.926 429.437L330.846 379.587C374.546 367.967 400.486 323.117 388.866 279.407L349.866 133.507C344.106 111.897 329.596 93.5468 309.906 82.9868L172.166 8.82682C145.566 -5.38318 112.526 3.35681 96.6765 29.0068Z" fill="#FFE499" stroke="black" stroke-width="4"/>
<path d="M137.206 29.4868C144.696 27.4668 152.676 28.4268 159.586 32.0768L297.326 106.227C310.576 113.427 320.286 125.727 324.216 140.327L363.216 286.327C371.096 315.907 353.516 346.167 324.026 354.137L137.016 403.887C107.436 411.767 77.1764 394.187 69.2064 364.707L30.3065 218.797C26.4565 204.197 28.7664 188.737 36.6464 175.867L119.056 42.9268C123.186 36.3068 129.616 31.4968 137.206 29.4868ZM130.386 3.9368C116.366 7.6768 104.356 16.6068 96.6765 29.0068L14.1664 161.937C2.34645 180.957 -1.01359 204.007 4.75641 225.617L43.7465 371.527C55.3765 415.127 100.226 441.157 143.926 429.437L330.846 379.587C374.546 367.967 400.486 323.117 388.866 279.407L349.866 133.507C344.106 111.897 329.596 93.5468 309.906 82.9868L172.166 8.82681C159.296 1.91681 144.416 0.186797 130.386 3.9368Z" fill="#FFF461" stroke="black" stroke-width="4"/>
<path d="M269.797 136.097L75.5566 187.917L124.977 373.157L319.217 321.337L269.797 136.097Z" fill="white" stroke="black" stroke-width="4"/>
<path d="M205.596 285.847L3.69629 221.777L43.6563 371.427C55.2763 415.037 100.126 441.067 143.836 429.347L330.656 379.497C374.356 367.877 400.296 323.017 388.666 279.407L348.716 129.757L205.596 285.847Z" fill="#FFF461" stroke="black" stroke-width="4"/>
<path d="M193.586 240.897L53.4463 393.907C72.5663 424.257 109.156 438.667 143.836 429.447L330.656 379.497C365.326 370.277 389.916 339.537 391.356 303.707L193.586 240.897Z" fill="#FFF461" stroke="black" stroke-width="4"/>
<path d="M187.347 343.187L249.967 326.477C258.807 324.077 267.837 329.357 270.237 338.197C272.637 347.027 267.357 356.057 258.517 358.457L195.897 375.177C187.057 377.577 178.027 372.287 175.627 363.457C173.227 354.517 178.507 345.497 187.347 343.187Z" fill="#FFE499" stroke="black" stroke-width="4"/>
<path d="M199.256 357.017L246.516 344.437" stroke="black" stroke-width="4" stroke-linecap="round" stroke-linejoin="round"/>
<path d="M53.3564 394.577L163.426 272.977" stroke="black" stroke-width="4" stroke-linecap="round" stroke-linejoin="round"/>
<path d="M235.376 254.147L390.596 303.327" stroke="black" stroke-width="4" stroke-linecap="round" stroke-linejoin="round"/>
<path d="M32.2266 227.927L5.80664 219.957" stroke="black" stroke-width="4" stroke-linecap="round" stroke-linejoin="round"/>
<path d="M327.296 150.127L346.886 130.047" stroke="black" stroke-width="4" stroke-linecap="round" stroke-linejoin="round"/>
</svg>
