<svg xmlns="http://www.w3.org/2000/svg" height="1225" width="1634" version="1.1" xmlns:xlink="http://www.w3.org/1999/xlink" ><rect fill="#e9f3eb00" width="1634" height="1225"></rect><g><path d="M1085.62 273.56L1134.25 224.93 1182.87 273.56" stroke="#000000" stroke-width="4" stroke-linecap="round" stroke-linejoin="round" opacity="1" fill="none"></path><path d="M1056.94 443.57V274.78H1225.72V443.57H1056.94Z" fill="#ffffff00" opacity="0" stroke-width="4" stroke="#ffffff00"></path><path d="M1049.94 436.57V267.79H1218.72V436.57H1049.94Z" fill="#ffffff" opacity="1" stroke-width="4" stroke="#000000"></path><path d="M1079.68 406.84V297.52H1188.99V406.84H1079.68Z" fill="#8fffa9" opacity="1" stroke-width="4" stroke="#000000"></path><path d="M1079.68 406.84V342.12C1079.76 342.03 1091.04 335.82 1103.46 335.82 1108.97 335.82 1113.96 337.05 1118.15 339.5 1134.6 349.03 1119.9 378.85 1119.9 378.85 1119.9 378.85 1124.45 377.54 1130.05 377.54 1135.21 377.54 1142.29 378.68 1147.28 383.92 1151.91 388.82 1153.84 396.6 1153.14 406.84H1079.68Z" fill="#ffe499" opacity="1" stroke-width="4" stroke="#000000"></path><path d="M1156.2 344.74C1163.68 344.74 1169.75 338.68 1169.75 331.19 1169.75 323.7 1163.68 317.63 1156.2 317.63 1148.71 317.63 1142.64 323.7 1142.64 331.19 1142.64 338.68 1148.71 344.74 1156.2 344.74Z" fill="#ffe499" opacity="1" stroke-width="4" stroke="#000000"></path></g><g><path d="M822.7 369.38C805.2 378.62 762.07 382.9 759.12 327.29 756.27 273.22 810.68 186.07 920.83 217.96 1030.98 249.85 950.67 329.53 879.86 340.82 809.05 352.12 698.8 295.9 735.55 244.45 778.87 183.81 1009.15 300.32 991.54 355.4 973.93 410.48 792.85 336.36 767.46 268.91 742.07 201.46 841.81 164.83 885.61 269.69 929.41 374.55 894.39 421.52 875.84 430.74 831.7 452.71 781.34 358.25 787.81 309.37 797.15 239.34 894.77 277.9 942.84 338.16 979.16 383.71 929.51 424.74 882.57 374.53 859.49 349.8 799.56 239.13 862.58 181.33 925.61 123.53 938.67 234.02 862.6 310.09 786.53 386.15 743.34 378.69 729.51 357.12 708.09 323.74 765.1 237.05 851.67 267.98" stroke="#000000" stroke-width="4" opacity="1" fill="none"></path></g><g><path d="M495.4 291.07H502.45V285.83C502.45 276.59 509.89 269.09 519.2 269.09H619.94C629.18 269.09 636.68 276.59 636.68 285.83V330.45C636.68 339.69 629.18 347.2 619.94 347.2H519.2C509.95 347.2 502.45 339.69 502.45 330.45V325.21H495.4C489.84 325.21 485.32 320.68 485.32 315.12V301.16C485.32 295.6 489.84 291.07 495.4 291.07Z" fill="#8fffa9" opacity="1" stroke-width="4" stroke="#000000"></path><path d="M607.07 290.49V325.86C607.07 330.58 610.88 334.39 615.6 334.39 620.32 334.39 624.14 330.58 624.14 325.86V290.49C624.14 285.77 620.32 281.95 615.6 281.95 610.88 281.95 607.07 285.77 607.07 290.49Z" fill="#ddffe5" opacity="1" stroke-width="4" stroke="#000000"></path><path d="M556.18 324.24V311.18C556.18 310.79 555.86 310.47 555.47 310.47 555.41 310.47 555.28 310.47 555.21 310.53L537.69 317C537.3 317.13 536.91 316.93 536.78 316.61 536.72 316.35 536.78 316.09 536.98 315.9L561.42 291.46C561.68 291.2 562.13 291.2 562.39 291.46 562.52 291.59 562.58 291.78 562.58 291.98V305.04C562.58 305.43 562.91 305.75 563.3 305.75 563.36 305.75 563.49 305.75 563.55 305.68L581.08 299.22C581.46 299.09 581.85 299.28 581.98 299.61 582.05 299.86 581.98 300.12 581.79 300.32L557.35 324.76C557.09 325.02 556.64 325.02 556.38 324.76 556.25 324.63 556.18 324.44 556.18 324.24Z" fill="#ddffe5" opacity="1" stroke-width="4" stroke="#000000"></path><path d="M502.45 291.07V325.21" stroke="#000000" stroke-width="4" stroke-linecap="round" stroke-linejoin="round" opacity="1" fill="none"></path></g><g><path d="M843.84 724.24C837.68 724.24 832.36 721.82 828.86 717.59 825.24 713.25 823.91 707.33 825.24 701.17L834.29 654.43C836.83 641.74 849.27 631.36 861.95 631.36H1037.93C1044.09 631.36 1049.41 633.77 1052.91 638 1056.53 642.35 1057.86 648.27 1056.53 654.43L1047.47 701.17C1044.94 713.85 1032.5 724.24 1019.81 724.24H843.84Z" fill="#231f20" opacity="1" stroke-width="4" stroke="#000000"></path><path d="M846.37 816.03C846.25 816.03 846.01 816.03 845.89 816.03 844.56 815.79 843.72 814.46 843.96 813.25L861.35 723.88C861.59 722.55 862.92 721.7 864.13 721.94 865.46 722.18 866.3 723.51 866.06 724.72L848.67 814.1C848.55 815.19 847.46 816.03 846.37 816.03Z" fill="#231f20" opacity="1" stroke-width="4" stroke="#000000"></path><path d="M985.27 816.03C985.15 816.03 984.91 816.03 984.79 816.03 983.46 815.79 982.61 814.46 982.86 813.25L1000.25 723.88C1000.49 722.55 1001.82 721.7 1003.03 721.94 1004.35 722.18 1005.2 723.51 1004.96 724.72L987.57 814.1C987.45 815.19 986.36 816.03 985.27 816.03Z" fill="#231f20" opacity="1" stroke-width="4" stroke="#000000"></path><path d="M696.83 1062.43C696.71 1062.43 696.47 1062.43 696.35 1062.43 695.02 1062.18 694.18 1060.86 694.42 1059.65L736.93 838.62C737.17 837.29 738.5 836.44 739.71 836.69 741.04 836.93 741.88 838.26 741.64 839.46L699.13 1060.49C699.01 1061.58 697.92 1062.43 696.83 1062.43Z" fill="#231f20" opacity="1" stroke-width="4" stroke="#000000"></path><path d="M798.77 1062.43C798.65 1062.43 798.41 1062.43 798.29 1062.43 796.96 1062.18 796.12 1060.86 796.36 1059.65L838.87 838.62C839.11 837.29 840.44 836.44 841.65 836.69 842.98 836.93 843.82 838.26 843.58 839.46L801.07 1060.49C800.95 1061.58 799.86 1062.43 798.77 1062.43Z" fill="#231f20" opacity="1" stroke-width="4" stroke="#000000"></path><path d="M1041.79 1062.43C1040.7 1062.43 1039.61 1061.58 1039.37 1060.49L996.85 839.46C996.61 838.13 997.46 836.93 998.79 836.69 1000.12 836.44 1001.32 837.29 1001.56 838.62L1044.08 1059.65C1044.32 1060.98 1043.48 1062.18 1042.15 1062.43 1042.03 1062.43 1041.91 1062.43 1041.79 1062.43Z" fill="#231f20" opacity="1" stroke-width="4" stroke="#000000"></path><path d="M939.85 1062.43C938.76 1062.43 937.67 1061.58 937.43 1060.49L894.91 839.46C894.67 838.13 895.52 836.93 896.85 836.69 898.18 836.44 899.38 837.29 899.63 838.62L942.14 1059.65C942.38 1060.98 941.54 1062.18 940.21 1062.43 940.21 1062.43 939.97 1062.43 939.85 1062.43Z" fill="#231f20" opacity="1" stroke-width="4" stroke="#000000"></path><path d="M734.29 840.19C726.92 840.19 721 834.27 721 826.9 721 819.53 726.92 813.62 734.29 813.62H1003.63C1011 813.62 1016.92 819.53 1016.92 826.9 1016.92 834.27 1011 840.19 1003.63 840.19H734.29Z" fill="#231f20" opacity="1" stroke-width="4" stroke="#000000"></path><path d="M891.3 840.19C883.94 840.19 878.02 834.27 878.02 826.9 878.02 819.53 883.94 813.62 891.3 813.62H1003.63C1011 813.62 1016.92 819.53 1016.92 826.9 1016.92 834.27 1011 840.19 1003.63 840.19H891.3Z" fill="#ffe499" opacity="1" stroke-width="4" stroke="#000000"></path></g><g><path d="M784.2 815.29C784.29 815.29 784.29 815.29 784.2 815.29 788.92 805.68 793.47 793.5 796.64 780.71 798.44 773.25 799.64 763.73 800.93 755.23 800.93 755.15 801.02 755.23 800.93 755.23L716.68 737.99C716.59 737.99 716.59 737.99 716.59 738.07 714.02 765.19 697.55 775.82 683.05 785.18 668.98 792.55 664.34 806.97 665.55 815.2 665.55 815.2 665.55 815.29 665.63 815.29 669.58 815.29 781.54 815.29 784.2 815.29Z" fill="#a56250" opacity="1" stroke-width="4" stroke="#000000"></path><path d="M789.26 804.14C792.09 797.44 794.67 788.95 796.64 780.89 796.64 780.8 796.64 780.8 796.55 780.8L727.83 791.35C727.75 791.35 727.75 791.27 727.75 791.27L735.13 773.16C738.99 763.9 731.69 753 721.66 753.26 721.66 753.26 714.02 753.26 713.33 753.26 713.33 753.26 713.25 753.26 713.25 753.35 707.16 770.08 694.2 778.23 682.88 785.52 681.93 786.03 681.16 786.63 680.39 787.15 673.7 790.92 667.86 799.68 666.83 804.22 666.83 804.31 666.83 804.31 666.92 804.31 670.01 804.39 722 808.17 757.17 808.17 775.28 808 788.58 804.39 789.26 804.14Z" fill="#ffffff" opacity="1" stroke-width="4" stroke="#000000"></path><path d="M784.47 815.2C786.1 811.86 787.64 808.17 789.18 804.22 789.18 804.14 789.18 804.14 789.1 804.14H666.93C666.93 804.14 666.84 804.14 666.84 804.22 665.55 807.23 665.38 813.83 665.64 815.29 665.64 815.29 665.64 815.38 665.73 815.38 669.67 815.29 781.72 815.29 784.47 815.2 784.47 815.29 784.47 815.29 784.47 815.2Z" fill="#ffe499" opacity="1" stroke-width="4" stroke="#000000"></path><path d="M742.93 780.63C744.99 771.88 746.62 762.78 747.74 754.03 747.74 753.95 747.74 753.95 747.65 753.95L676.7 735.59 663.49 734.3C663.4 734.3 663.4 734.3 663.4 734.39 663.14 741.25 661.94 747.25 659.88 753.09 659.88 753.09 659.88 753.09 659.88 753.17L670.09 801.73C670.09 801.82 670.18 801.82 670.18 801.82L742.93 780.63C742.93 780.71 742.93 780.71 742.93 780.63Z" fill="#a56250" opacity="1" stroke-width="4" stroke="#000000"></path><path d="M934.86 658.03V657.94C933.91 656.48 912.55 626.2 886.12 593.68 841.17 538 816.29 518.01 803.33 511.06 769.61 492.1 727.58 505.23 711.36 541.95 694.63 578.41 711.53 670.21 716.51 722.55 716.94 727.78 716.94 732.93 716.51 738.07 716.51 738.07 716.51 738.16 716.59 738.16L800.5 757.81C800.59 757.81 800.59 757.81 800.59 757.72 802.9 742.02 804.1 726.06 804.19 710.28 804.19 710.19 804.28 710.19 804.36 710.28 812.51 732.76 827.7 757.72 841.94 773.59 841.94 773.59 842.03 773.59 842.11 773.59 845.2 769.48 932.8 660.52 934.86 658.03Z" fill="#36ff65" opacity="1" stroke-width="4" stroke="#000000"></path><path d="M800.51 757.55C802.83 741.85 804.11 725.89 804.11 709.93 804.11 709.85 804.28 709.85 804.28 709.93 805.31 712.59 806.17 714.74 806.34 712.85 805.49 700.15 781.12 615.22 754.87 616.59 709.22 618.56 714.8 696.04 716.26 722.46 716.69 727.69 716.69 732.84 716.26 737.99 716.26 737.99 716.26 738.07 716.34 738.07L748.86 745.71 800.42 757.64C800.51 757.64 800.51 757.64 800.51 757.55Z" fill="#000000" opacity="0.3" stroke-width="4" stroke="#000000"></path><path d="M904.83 815.29C947.04 816.49 985.99 788.52 1000.66 750 1003.92 741.34 999.72 716.88 999.54 716.03 999.8 715.43 1007.18 699.3 1005.89 687.63 1004.35 673.56 1001.17 658.97 996.54 644.04 996.54 644.04 996.54 643.96 996.46 643.96L940.6 641.21 881.66 657.94H881.58C879.43 655.03 794.67 534.91 750.05 511.06 716.34 492.1 674.3 505.23 658.08 541.95 639.64 582.53 661.6 678.71 663.49 734.21 663.49 734.21 663.49 734.3 663.57 734.3 664.86 734.64 687.94 739.96 709.56 745.02 728.43 749.4 746.36 753.6 747.74 753.95 747.82 753.95 747.82 753.95 747.82 753.86 749.88 739.45 750.91 724.61 750.91 710.11 750.91 710.02 751 710.02 751.08 710.11 779.74 782 824.61 820.78 904.83 815.29Z" fill="#8fffa9" opacity="1" stroke-width="4" stroke="#000000"></path><path d="M735.82 804.05C738.57 796.76 741.05 788.87 742.86 780.8 742.86 780.71 742.86 780.71 742.77 780.71L674.48 791.27C674.39 791.27 674.39 791.18 674.39 791.18L681.77 773.08C685.63 763.81 678.34 752.92 668.3 753.17 668.3 753.17 660.58 753.17 659.89 753.17 659.89 753.17 659.81 753.17 659.81 753.26 653.71 769.99 637.67 778.14 626.26 785.43 625.32 785.95 624.54 786.55 623.77 787.06 617.08 790.84 611.33 799.68 610.39 804.14 610.39 804.22 610.39 804.22 610.47 804.22 612.53 804.31 630.55 808.77 665.73 808.77 688.63 808.77 734.1 804.39 735.82 804.05 735.82 804.14 735.82 804.14 735.82 804.05Z" fill="#ffffff" opacity="1" stroke-width="4" stroke="#000000"></path><path d="M731.09 815.2C732.72 811.86 734.18 808.17 735.73 804.22 735.73 804.14 735.73 804.14 735.64 804.14L610.47 804.22C610.47 804.22 610.38 804.22 610.38 804.31 609.09 807.48 608.92 814.09 609.26 815.29 609.26 815.29 609.26 815.38 609.35 815.38 613.21 815.29 728.35 815.29 731.09 815.2 731.09 815.29 731.09 815.29 731.09 815.2Z" fill="#ffe499" opacity="1" stroke-width="4" stroke="#000000"></path><path d="M750.92 709.59C731.1 660.69 706.99 573.01 706.99 573.01" stroke="#000000" stroke-width="4" stroke-linecap="round" stroke-linejoin="round" opacity="1" fill="none"></path><path d="M747.75 753.86C749.8 739.28 750.83 724.26 750.92 709.59 750.58 708.65 729.99 660.95 707.16 573.09 707.16 573.01 707.08 573.01 706.99 573.09 697.81 581.33 703.56 612.64 705.62 630.83 708.45 653.48 712.23 684.62 709.48 744.94 709.48 744.94 709.48 745.02 709.57 745.02 711.28 745.45 745.69 753.35 747.75 753.86 747.75 753.95 747.75 753.86 747.75 753.86Z" fill="#8fffa900" opacity="0" stroke-width="4" stroke="#ffffff00"></path><path d="M737.19 599.17C737.19 599.09 737.19 599.09 737.19 599.17 709.4 589.14 691.21 583.47 664.53 583.3 657.06 583.3 650.88 583.9 647.8 584.93 640.93 587.25 640.93 594.37 645.14 597.03 645.22 597.03 645.22 597.11 645.14 597.11 642.05 599.86 638.79 606.64 646.08 610.76 646.08 610.76 646.17 610.84 646.08 610.84 644.11 614.87 643.85 621.91 652.08 623.71 652.08 623.71 659.46 624.91 661.69 625.34 661.78 625.34 661.78 625.51 661.69 625.51 658.61 625.94 645.74 628.6 648.48 634.86 650.2 638.98 669.16 640.01 669.93 640.01 670.36 640.35 680.65 647.05 694.3 647.05 696.44 647.05 699.53 646.79 701.33 646.45 701.33 646.45 701.33 646.45 701.42 646.45 701.76 646.62 704.59 648.76 709.57 652.71 711.71 654.34 717.55 659.06 719.43 660.6 719.52 660.6 719.52 660.6 719.52 660.6 720.38 658.71 735.56 631.69 735.91 631.09L737.19 599.17Z" fill="#a56250" opacity="1" stroke-width="4" stroke="#000000"></path><path d="M886.12 425.7L858.58 397.21C846.06 382.11 825.38 367.19 797.84 361.61 774.51 355.69 759.75 369.24 753.91 377.22 748.25 385.03 743.62 415.74 743.45 416.69 743.7 417.29 750.48 431.27 753.91 437.97V438.05C749.54 443.11 749.2 450.15 760.01 449.29 760.01 449.29 760.09 449.29 760.09 449.38 769.36 475.97 788.66 480.43 806.68 466.54H806.76C807.19 467.05 810.28 470.82 812.6 473.66 812.94 474 813.2 474.43 813.46 474.69 814.4 475.8 815.09 476.66 815.26 476.92H815.34L886.04 425.78C886.21 425.78 886.21 425.78 886.12 425.7Z" fill="#a56250" opacity="1" stroke-width="4" stroke="#000000"></path><path d="M805.22 698.95C817.4 698.95 835.08 693.12 849.66 665.41 857.9 649.79 861.59 633.92 862.02 632.03 862.02 631.95 862.1 631.95 862.19 632.03L880.89 658.54H880.98L996.37 643.96C996.46 643.96 996.46 643.87 996.46 643.87 994.48 637.95 986.16 611.18 977.07 581.33 966.43 546.41 954.76 507.37 951.07 493.05 950.13 492.02 888.18 427.93 886.3 425.95H886.21C884.06 427.41 816.12 472.71 813.54 474.69 813.54 474.69 813.46 474.77 813.54 474.77 814.23 475.72 819.29 483.09 819.89 483.95 819.89 484.04 819.89 484.04 819.89 484.04 808.91 488.5 786.86 504.97 784.71 524.45 780.6 550.96 778.79 612.99 778.71 616.25 778.71 616.33 778.62 616.33 778.62 616.33 777.68 615.9 771.5 613.07 762.67 609.3 755.54 606.29 746.71 602.61 737.44 599.09 737.36 599.09 737.36 599.09 737.36 599.17L719.77 660.69V660.77C762.41 691.66 786.6 697.92 805.22 698.95Z" fill="#ffffff" opacity="1" stroke-width="4" stroke="#000000"></path><path d="M728.86 376.19C733.15 375.16 738.13 375.16 743.53 376.45H743.62C747.99 367.87 764.38 352.51 785.74 350.8 782.4 348.22 779.65 344.28 777.59 339.22 777.25 338.44 776.91 337.59 776.65 336.73 768.76 313.91 784.37 272.38 808.48 276.5 824.35 280.45 828.98 300.27 825.64 318.97 822.98 333.9 815.17 348.05 803.93 352.77 826.58 359.81 846.4 381.94 856.52 394.38 857.38 395.33 858.07 396.27 858.67 397.04H858.76C860.21 396.01 886.12 377.31 917.01 377.39 920.78 377.39 924.47 377.65 928.08 378.08 956.3 382.03 975.78 400.99 980.67 417.63 986.59 433.5 985.04 448.43 984.96 449.55 984.96 449.55 984.96 449.63 985.04 449.63 985.9 449.89 995.43 452.72 1004.95 461.22 1013.27 468.51 1018.5 477.26 1021.68 486.01 1024.85 494.76 1026.05 503.51 1026.23 510.72 1028.63 548.9 998.09 574.64 976.89 581.16 976.81 581.16 976.81 581.16 976.81 581.07 976.38 580.04 971.49 567.52 966.77 556.02 964.45 550.44 962.22 545.04 960.68 541.43L960.59 541.35C924.82 546.07 893.93 533.63 877.03 516.38 864.33 503.77 856.1 484.9 854.47 474.17 854.47 474.17 854.47 474.09 854.38 474.09 815.69 467.22 814.91 427.5 815.34 425.87 820.06 420.81 823.41 409.48 821.26 401.33 819.63 393.01 813.03 386.75 804.96 386.92 791.84 386.66 784.03 403.05 785.14 411.88V411.97C784.46 412.48 764.55 418.92 748.34 419.01 734.7 419.01 713.16 412.14 713.33 394.38 714.02 384.94 719.94 378.25 728.86 376.19Z" fill="#231f20" opacity="1" stroke-width="4" stroke="#000000"></path><path d="M796.31 354.49C810.46 354.49 822.22 338.62 825.65 319.31 825.65 319.23 825.56 319.14 825.48 319.23 822.13 322.92 818.61 326.35 814.49 329.01 802.65 336.56 789.36 340.16 776.74 336.73 776.66 336.73 776.66 336.81 776.66 336.81 780.52 347.28 786.87 354.49 796.31 354.49Z" fill="#231f2000" opacity="0" stroke-width="4" stroke="#ffffff00"></path><path d="M981.61 531.74C974.06 537.57 964.97 540.4 960.94 541.43 960.85 541.43 960.85 541.52 960.85 541.52 962.82 546.07 964.2 549.33 966.94 556.02 966.94 556.1 967.03 556.1 967.11 556.1 976.72 549.93 981.44 533.8 981.78 531.82 981.78 531.74 981.7 531.74 981.61 531.74Z" fill="#231f2000" opacity="0" stroke-width="4" stroke="#ffffff00"></path><path d="M1000.66 750C1008.3 730.53 1007.87 707.62 1005.89 687.71 1005.89 687.63 1005.81 687.63 1005.81 687.63 1003.92 687.89 969.43 692.6 967.54 692.86 967.46 692.86 967.46 692.95 967.46 692.95L974.15 726.92C978.52 752.66 1000.49 750 1000.49 750H1000.66Z" fill="#36ff65" opacity="1" stroke-width="4" stroke="#000000"></path><path d="M907.14 695.44C902.34 673.3 908.52 656.06 908.95 655.03V654.94C878.4 625.17 871.45 586.82 870.51 580.73 870.51 580.64 870.34 580.64 870.34 580.73 869.22 601.58 862.36 630.66 862.1 631.86V631.95L906.97 695.52C907.06 695.61 907.14 695.52 907.14 695.44Z" fill="#ffffff00" opacity="0" stroke-width="4" stroke="#ffffff00"></path><path d="M880.98 658.54C893.6 675.79 907.07 695.52 907.07 695.52" stroke="#000000" stroke-width="4" stroke-linecap="round" stroke-linejoin="round" opacity="1" fill="none"></path><path d="M806.69 403.65L802.4 414.8" stroke="#000000" stroke-width="4" stroke-linecap="round" stroke-linejoin="round" opacity="1" fill="none"></path><path d="M769.36 448.86C772.1 447.23 775.28 447.06 778.28 447.92" stroke="#000000" stroke-width="4" stroke-linecap="round" stroke-linejoin="round" opacity="1" fill="none"></path><path d="M763.7 427.93C760.09 428.01 760.09 433.33 763.7 433.42 767.3 433.33 767.3 428.01 763.7 427.93Z" fill="#000000" opacity="1" stroke-width="4" stroke="#000000"></path><path d="M812.34 487.98C816.63 485.32 819.8 483.95 819.8 483.95" stroke="#000000" stroke-width="4" stroke-linecap="round" stroke-linejoin="round" opacity="1" fill="none"></path><path d="M645.13 597.2C657.22 597.2 671.72 599 671.72 599" stroke="#000000" stroke-width="4" stroke-linecap="round" stroke-linejoin="round" opacity="1" fill="none"></path><path d="M646.07 610.84C653.79 610.84 670.01 612.47 670.01 612.47" stroke="#000000" stroke-width="4" stroke-linecap="round" stroke-linejoin="round" opacity="1" fill="none"></path><path d="M661.78 625.43C664.7 625.51 667.01 625.86 669.84 626.46" stroke="#000000" stroke-width="4" stroke-linecap="round" stroke-linejoin="round" opacity="1" fill="none"></path><path d="M778.54 616.33L778.28 637.18" stroke="#000000" stroke-width="4" stroke-linecap="round" stroke-linejoin="round" opacity="1" fill="none"></path><path d="M960.94 541.52C972 538.52 981.61 531.82 981.61 531.82" stroke="#000000" stroke-width="4" stroke-linecap="round" stroke-linejoin="round" opacity="1" fill="none"></path><path d="M778.54 616.42C777.94 616.08 771.5 613.24 762.75 609.47 762.67 609.47 762.58 609.55 762.67 609.55L778.11 637.27C778.11 637.35 778.28 637.35 778.28 637.27L778.54 616.42C778.62 616.42 778.62 616.42 778.54 616.42Z" fill="#ffffff00" opacity="0" stroke-width="4" stroke="#ffffff00"></path><path d="M816.72 455.81C813.88 460.87 807.36 465.85 806.68 466.36V466.45L812.43 473.48C812.51 473.57 812.6 473.48 812.6 473.48L816.89 455.9C816.89 455.81 816.8 455.73 816.72 455.81Z" fill="#a5625000" opacity="0" stroke-width="4" stroke="#ffffff00"></path><path d="M1021.76 485.92C1011.04 457.53 986.93 450.32 985.22 449.81 985.13 449.81 985.13 449.81 985.13 449.89 984.96 451.35 981.96 469.54 971.83 479.75 971.75 479.83 971.83 479.92 971.92 479.92 995.43 474.09 1019.36 484.9 1021.68 486.01 1021.68 486.1 1021.76 486.01 1021.76 485.92Z" fill="#231f2000" opacity="0" stroke-width="4" stroke="#ffffff00"></path><path d="M881.5 424.15C891.79 387.78 923.37 379.28 927.74 378.25 927.83 378.25 927.83 378.08 927.74 378.08 892.91 373.19 860.82 395.41 858.94 397.13V397.21C860.05 398.5 879.78 422.27 881.33 424.15 881.33 424.24 881.41 424.24 881.5 424.15Z" fill="#231f2000" opacity="0" stroke-width="4" stroke="#ffffff00"></path><path d="M743.63 376.54C743.63 376.45 743.63 376.45 743.54 376.45 737.62 375.08 733.07 375.25 728.96 376.19 728.87 376.19 728.87 376.28 728.87 376.28 730.59 385.55 735.22 393.7 736.68 396.1 736.85 396.36 737.28 396.36 737.36 396.01 738.14 393.01 741.05 382.2 743.63 376.54Z" fill="#231f2000" opacity="0" stroke-width="4" stroke="#ffffff00"></path><path d="M806.59 466.54C814.23 460.53 816.89 455.81 816.89 455.81" stroke="#000000" stroke-width="4" stroke-linecap="round" stroke-linejoin="round" opacity="1" fill="none"></path><path d="M862.02 631.86C867.85 607.32 868.45 598.23 870.25 580.73" stroke="#000000" stroke-width="4" stroke-linecap="round" stroke-linejoin="round" opacity="1" fill="none"></path><path d="M858.94 397.3L866.57 406.56" stroke="#000000" stroke-width="4" stroke-linecap="round" stroke-linejoin="round" opacity="1" fill="none"></path><path d="M985.14 449.89C982.48 466.11 977.33 471.68 971.84 479.75" stroke="#000000" stroke-width="4" stroke-linecap="round" stroke-linejoin="round" opacity="1" fill="none"></path><path d="M743.63 376.54C741.65 381.51 739.68 386.57 737.36 396.01" stroke="#000000" stroke-width="4" stroke-linecap="round" stroke-linejoin="round" opacity="1" fill="none"></path></g><g><path d="M1142.26 689.04H1117.04V1063.51H1142.26V689.04Z" fill="#231f20" opacity="1" stroke-width="4" stroke="#000000"></path><path d="M527.79 689.04H502.57V1063.51H527.79V689.04Z" fill="#231f20" opacity="1" stroke-width="4" stroke="#000000"></path><path d="M471.76 675.04H1174.01C1175.67 675.03 1177.31 675.35 1178.85 675.98 1180.38 676.61 1181.77 677.54 1182.94 678.71 1184.11 679.89 1185.04 681.28 1185.67 682.81 1186.3 684.34 1186.62 685.99 1186.62 687.64 1186.62 689.3 1186.3 690.94 1185.67 692.48 1185.04 694.01 1184.11 695.4 1182.94 696.57 1181.77 697.75 1180.38 698.67 1178.85 699.3 1177.31 699.93 1175.67 700.26 1174.01 700.25H471.76C470.1 700.26 468.46 699.93 466.93 699.3 465.39 698.67 464 697.75 462.83 696.57 461.66 695.4 460.73 694.01 460.1 692.48 459.47 690.94 459.14 689.3 459.15 687.64 459.14 685.99 459.47 684.34 460.1 682.81 460.73 681.28 461.66 679.89 462.83 678.71 464 677.54 465.39 676.61 466.93 675.98 468.46 675.35 470.1 675.03 471.76 675.04Z" fill="#231f20" opacity="1" stroke-width="4" stroke="#000000"></path></g><g><path d="M1123.15 536.92L1128.4 541.62C1128.49 541.62 1128.49 541.71 1128.49 541.8L1132.92 555.64C1132.92 555.73 1132.92 555.82 1132.74 555.82L1118.9 555.73C1118.9 555.73 1107.32 550.76 1106.42 550.3V550.21L1116.19 539.18C1116.19 539.18 1116.28 539.09 1116.37 539.09L1123.15 536.92Z" fill="#747371" opacity="1" stroke-width="4" stroke="#000000"></path><path d="M1097.91 561.79L1089.95 549.94 1083.62 549.13 1077.28 550.76 1070.95 563.6C1070.95 563.69 1070.95 563.69 1071.04 563.69L1084.43 565.59 1097.82 561.88C1098 561.88 1098 561.88 1097.91 561.79Z" fill="#ffffff" opacity="1" stroke-width="4" stroke="#000000"></path><path d="M1077.37 614.18L1118.63 614.9 1137.45 593.01C1137.54 592.92 1137.45 592.83 1137.36 592.83H1059.91C1059.82 592.83 1059.82 592.92 1059.82 593.01L1077.37 614.18Z" fill="#111813" opacity="1" stroke-width="4" stroke="#000000"></path><path d="M1086.42 646.65L1106.42 550.21C1106.42 550.12 1106.51 550.12 1106.51 550.12L1132.83 555.55C1132.92 555.55 1132.92 555.64 1132.92 555.64L1113.02 652.17 1086.42 646.65Z" fill="#ffe499" opacity="1" stroke-width="4" stroke="#000000"></path><path d="M1124.69 529.95L1128.58 541.62C1128.58 541.71 1128.58 541.71 1128.49 541.71L1116.46 539.18C1116.37 539.18 1116.37 539.09 1116.37 539L1124.51 529.86C1124.51 529.86 1124.6 529.86 1124.69 529.95Z" fill="#ffe499" opacity="1" stroke-width="4" stroke="#000000"></path><path d="M1071.04 563.69L1097.91 561.88C1098 561.88 1098 561.88 1098 561.98L1104.43 660.32 1077.37 662.03 1070.95 563.69C1070.95 563.69 1070.95 563.69 1071.04 563.69Z" fill="#fff461" opacity="1" stroke-width="4" stroke="#000000"></path><path d="M1082.8 539.54L1077.37 550.76 1089.95 549.94 1082.98 539.45C1082.98 539.45 1082.89 539.45 1082.8 539.54Z" fill="#fff461" opacity="1" stroke-width="4" stroke="#000000"></path><path d="M1098.73 606.31C1112.75 606.4 1126.41 601.69 1137.45 592.92 1137.54 592.83 1137.63 592.92 1137.63 593.01L1132.29 641.68 1123.6 670.9 1074.21 670.45 1065.07 640.96 1059.82 593.01C1059.82 592.92 1059.91 592.92 1060 592.92 1071.04 601.69 1084.7 606.4 1098.73 606.31Z" fill="#8fffa9" opacity="1" stroke-width="4" stroke="#000000"></path><path d="M1065.07 640.96C1084.61 624.49 1113.02 624.94 1132.2 641.68V641.77L1128.49 675.88H1068.78L1065.07 640.96Z" fill="#0f992f" opacity="1" stroke-width="4" stroke="#000000"></path></g><g><path d="M518.6 638.14C501.96 638.14 484.78 624.6 480.29 607.96L448.91 490.86C446.69 482.56 447.9 474.82 452.32 469.06 456.52 463.58 463.18 460.57 471.07 460.57H659.05C675.7 460.57 692.89 474.15 697.37 490.84L728.74 607.85C730.93 616.17 729.68 623.93 725.24 629.69 721.03 635.14 714.41 638.14 706.59 638.14H518.6Z" fill="#ffe499" opacity="1" stroke-width="4" stroke="#000000"></path><path d="M620.67 638.14C620.61 637.75 620.57 637.35 620.55 636.95 620.53 636.55 620.51 636.16 620.46 635.78 619.25 623.7 611.39 613.86 602.93 613.86 601.34 613.88 599.77 614.23 598.33 614.9 596.89 615.57 595.61 616.54 594.58 617.75 590.86 621.83 589.03 628.57 589.69 635.78L589.97 638.11 568.94 638.14 564.24 589.56 637.11 589.53 641.9 638.14H620.67Z" fill="#ffe49900" opacity="0" stroke-width="4" stroke="#ffffff00"></path><path d="M540.92 675.5L563.87 589.55 636.83 589.53 613.78 675.5H540.92ZM593.68 613.86C585.26 613.86 575.77 623.7 572.51 635.79 570.55 643.06 571.26 649.84 574.39 653.93 575.27 655.12 576.42 656.08 577.75 656.74 579.07 657.39 580.53 657.72 582.01 657.7 590.48 657.7 600.02 647.86 603.28 635.77 605.18 628.48 604.44 621.69 601.29 617.61 600.41 616.43 599.26 615.47 597.94 614.82 596.62 614.17 595.16 613.84 593.68 613.86Z" fill="#8fffa9" opacity="1" stroke-width="4" stroke="#000000"></path><path d="M556.61 505.32L561.19 522.51" stroke="#000000" stroke-width="4" stroke-linecap="round" stroke-linejoin="round" opacity="1" fill="none"></path><path d="M578.09 505.32L582.66 522.51" stroke="#000000" stroke-width="4" stroke-linecap="round" stroke-linejoin="round" opacity="1" fill="none"></path><path d="M599.57 505.32L604.14 522.51" stroke="#000000" stroke-width="4" stroke-linecap="round" stroke-linejoin="round" opacity="1" fill="none"></path><path d="M646.91 675.5C646.91 673.77 647.24 672.07 647.9 670.48 648.55 668.89 649.51 667.44 650.73 666.22 651.94 665 653.38 664.03 654.97 663.37 656.56 662.71 658.27 662.37 659.99 662.37H815.94C819.41 662.37 822.74 663.75 825.2 666.21 827.65 668.67 829.04 672 829.04 675.47V675.5H646.91Z" fill="#ffe499" opacity="1" stroke-width="4" stroke="#000000"></path><path d="M767.38 675.5C767.37 673.77 767.71 672.07 768.36 670.48 769.02 668.89 769.98 667.44 771.19 666.22 772.41 665 773.85 664.03 775.44 663.37 777.03 662.71 778.73 662.37 780.45 662.37H815.94C819.41 662.37 822.74 663.75 825.2 666.21 827.65 668.67 829.04 672 829.04 675.47V675.5H767.38Z" fill="#8fffa9" opacity="1" stroke-width="4" stroke="#000000"></path></g></svg>