<svg xmlns="http://www.w3.org/2000/svg" height="1200" width="1600" version="1.1" xmlns:xlink="http://www.w3.org/1999/xlink" ><rect fill="#f3ebe900" width="1600" height="1200"></rect><g><path d="M424.31 362.07C460.24 362.07 489.37 332.94 489.37 297.01 489.37 261.08 460.24 231.96 424.31 231.96 388.38 231.96 359.25 261.08 359.25 297.01 359.25 332.94 388.38 362.07 424.31 362.07Z" fill="#8fffa9" opacity="1" stroke-width="4" stroke="#000000"></path><path d="M431.18 271.73L424.31 297.01 446.71 326.44" stroke="#000000" stroke-width="4" stroke-linecap="round" stroke-linejoin="round" opacity="1" fill="none"></path><path d="M424.31 250.22C426.15 250.22 427.64 248.72 427.64 246.89 427.64 245.05 426.15 243.56 424.31 243.56 422.48 243.56 420.98 245.05 420.98 246.89 420.98 248.72 422.48 250.22 424.31 250.22Z" fill="#4afe74" opacity="1" stroke-width="4" stroke="#000000"></path><path d="M424.31 350.39C426.15 350.39 427.64 348.9 427.64 347.06 427.64 345.22 426.15 343.74 424.31 343.74 422.48 343.74 420.98 345.22 420.98 347.06 420.98 348.9 422.48 350.39 424.31 350.39Z" fill="#4afe74" opacity="1" stroke-width="4" stroke="#000000"></path><path d="M474.36 300.34C476.2 300.34 477.69 298.85 477.69 297.01 477.69 295.17 476.2 293.69 474.36 293.69 472.52 293.69 471.03 295.17 471.03 297.01 471.03 298.85 472.52 300.34 474.36 300.34Z" fill="#4afe74" opacity="1" stroke-width="4" stroke="#000000"></path><path d="M374.18 300.34C376.03 300.34 377.51 298.85 377.51 297.01 377.51 295.17 376.03 293.69 374.18 293.69 372.34 293.69 370.86 295.17 370.86 297.01 370.86 298.85 372.34 300.34 374.18 300.34Z" fill="#4afe74" opacity="1" stroke-width="4" stroke="#000000"></path><path d="M424.16 301.89C426.73 301.89 428.82 299.81 428.82 297.23 428.82 294.66 426.73 292.58 424.16 292.58 421.59 292.58 419.5 294.66 419.5 297.23 419.5 299.81 421.59 301.89 424.16 301.89Z" fill="#366a42" opacity="1" stroke-width="4" stroke="#000000"></path></g><g><path d="M972.53 1014.55H948.34V750.48C948.34 721.38 921.92 697.67 889.51 697.67H479.8C447.38 697.67 420.97 721.38 420.97 750.48V1014.55H396.77V750.48C396.77 710.58 434.03 678.11 479.8 678.11H889.51C935.28 678.11 972.53 710.58 972.53 750.48V1014.55Z" fill="#ffe499" opacity="1" stroke-width="4" stroke="#000000"></path></g><g><path d="M780.83 678.43L766.08 594.53 673.84 594.51 685.83 662.51C686.6 666.99 688.93 671.04 692.39 673.97 695.88 676.89 700.28 678.46 704.82 678.43H780.83Z" fill="#ffe499" opacity="1" stroke-width="4" stroke="#000000"></path><path d="M772.47 631.25L765.98 594.53 673.75 594.51 684.42 655.2 772.47 631.25Z" fill="#ffe49900" opacity="0" stroke-width="4" stroke="#ffffff00"></path><path d="M860.91 626.16C865.55 626.29 870.15 625.39 874.39 623.52 878.62 621.65 882.4 618.84 885.43 615.34 888.43 611.64 890.58 607.31 891.7 602.67 892.81 598.03 892.89 593.19 891.92 588.52L861.15 414.1C857.49 393.34 837.63 376.48 816.9 376.48H552.29C547.65 376.35 543.05 377.25 538.82 379.12 534.58 380.99 530.81 383.77 527.78 387.29 524.77 391 522.63 395.32 521.51 399.96 520.39 404.6 520.32 409.42 521.29 414.1L552.05 588.54C555.74 609.29 575.59 626.16 596.31 626.16H860.91Z" fill="#ffe499" opacity="1" stroke-width="4" stroke="#000000"></path><path d="M864.89 553.1L840.77 416.33C839.74 411.22 837.01 406.58 833.03 403.21 829.05 399.81 824.05 397.87 818.84 397.67L557.79 397.67C555.48 397.6 553.19 398.05 551.08 398.99 548.97 399.92 547.1 401.32 545.6 403.06 544.1 404.89 543.05 407.04 542.48 409.35 541.93 411.64 541.9 414.02 542.37 416.35L566.54 553.1H864.89Z" fill="#ffffff" opacity="1" stroke-width="4" stroke="#000000"></path><path d="M724.94 605C726.88 605.07 728.82 604.71 730.62 603.92 732.4 603.15 733.99 601.98 735.28 600.51 736.54 599.04 737.48 597.3 737.99 595.41 738.52 593.52 738.59 591.56 738.25 589.64 737.51 585.07 735.2 580.91 731.74 577.85 728.27 574.79 723.85 573.03 719.22 572.86 717.35 572.83 715.48 573.17 713.73 573.89 711.99 574.62 710.43 575.7 709.13 577.08 703.65 583.06 705.01 593.23 712.16 599.78 715.62 603.02 720.17 604.89 724.94 605V605Z" fill="#6a5723" opacity="1" stroke-width="4" stroke="#000000"></path><path d="M771.87 626.29H679.65" stroke="#000000" stroke-width="4" stroke-linecap="round" stroke-linejoin="round" opacity="1" fill="none"></path><path d="M778.08 663.36H685.87" stroke="#000000" stroke-width="4" stroke-linecap="round" stroke-linejoin="round" opacity="1" fill="none"></path><path d="M812.92 678.43L812.75 677.67C812.02 673.53 809.84 669.77 806.61 667.08 803.38 664.36 799.31 662.88 795.1 662.88H685.87C686.64 667.24 688.91 671.18 692.3 674.03 695.69 676.87 699.98 678.43 704.4 678.43H812.92Z" fill="#ffe499" opacity="1" stroke-width="4" stroke="#000000"></path></g><g><path d="M1248.24 360.14H1180.98C1156.25 360.14 1136.14 380.25 1136.14 404.98 1136.14 427 1152.13 445.7 1173.84 449.22V472.24L1206.72 449.82H1248.24C1272.98 449.82 1293.08 429.71 1293.08 404.98 1293.08 380.15 1272.98 360.14 1248.24 360.14Z" fill="#ebebeb" opacity="1" stroke-width="4" stroke="#000000"></path><path d="M1189.43 410.41C1192.81 410.41 1195.56 407.66 1195.56 404.27 1195.56 400.89 1192.81 398.14 1189.43 398.14 1186.04 398.14 1183.29 400.89 1183.29 404.27 1183.29 407.66 1186.04 410.41 1189.43 410.41Z" fill="#ffffff" opacity="1" stroke-width="4" stroke="#000000"></path><path d="M1214.56 410.41C1217.95 410.41 1220.69 407.66 1220.69 404.27 1220.69 400.89 1217.95 398.14 1214.56 398.14 1211.17 398.14 1208.43 400.89 1208.43 404.27 1208.43 407.66 1211.17 410.41 1214.56 410.41Z" fill="#ffffff" opacity="1" stroke-width="4" stroke="#000000"></path><path d="M1239.8 410.41C1243.18 410.41 1245.93 407.66 1245.93 404.27 1245.93 400.89 1243.18 398.14 1239.8 398.14 1236.41 398.14 1233.66 400.89 1233.66 404.27 1233.66 407.66 1236.41 410.41 1239.8 410.41Z" fill="#ffffff" opacity="1" stroke-width="4" stroke="#000000"></path></g><g><path d="M621.05 425.82H683.38C687.35 425.82 691.13 429.05 691.81 433.02 692.49 436.98 689.82 440.21 685.85 440.21H623.52C619.55 440.21 615.77 436.98 615.09 433.02 614.41 429.05 617.08 425.82 621.05 425.82Z" fill="#fff461" opacity="1" stroke-width="4" stroke="#000000"></path><path d="M626.15 455.55H662.59C666.56 455.55 670.34 458.78 671.02 462.75 671.7 466.71 669.03 469.94 665.06 469.94H628.62C624.65 469.94 620.87 466.71 620.19 462.75 619.51 458.78 622.19 455.55 626.15 455.55Z" fill="#dddaaf" opacity="1" stroke-width="4" stroke="#000000"></path><path d="M686.57 455.55H698.08C702.04 455.55 705.82 458.78 706.5 462.75 707.18 466.71 704.51 469.94 700.55 469.94H689.04C685.07 469.94 681.29 466.71 680.61 462.75 679.93 458.78 682.6 455.55 686.57 455.55Z" fill="#ffe499" opacity="1" stroke-width="4" stroke="#000000"></path><path d="M631.25 485.28H640.2C644.17 485.28 647.95 488.51 648.63 492.48 649.31 496.44 646.64 499.67 642.67 499.67H633.72C629.76 499.67 625.98 496.44 625.29 492.48 624.61 488.51 627.29 485.28 631.25 485.28Z" fill="#dddaaf" opacity="1" stroke-width="4" stroke="#000000"></path><path d="M664.18 485.28H717.88C721.85 485.28 725.63 488.51 726.31 492.48 726.99 496.44 724.32 499.67 720.35 499.67H666.65C662.68 499.67 658.9 496.44 658.22 492.48 657.54 488.51 660.22 485.28 664.18 485.28Z" fill="#ffe499" opacity="1" stroke-width="4" stroke="#000000"></path><path d="M741.86 485.28H787.89C791.86 485.28 795.64 488.51 796.32 492.48 797 496.44 794.33 499.67 790.36 499.67H744.33C740.37 499.67 736.58 496.44 735.9 492.48 735.22 488.51 737.9 485.28 741.86 485.28Z" fill="#efedda" opacity="1" stroke-width="4" stroke="#000000"></path><path d="M636.36 515.01H665.13C669.09 515.01 672.87 518.24 673.55 522.21 674.23 526.17 671.56 529.4 667.6 529.4H638.83C634.86 529.4 631.08 526.17 630.4 522.21 629.72 518.24 632.39 515.01 636.36 515.01Z" fill="#8d8c8a" opacity="1" stroke-width="4" stroke="#000000"></path><path d="M689.1 515.01H695.5C699.46 515.01 703.24 518.24 703.92 522.21 704.6 526.17 701.93 529.4 697.96 529.4H691.57C687.61 529.4 683.82 526.17 683.14 522.21 682.46 518.24 685.14 515.01 689.1 515.01Z" fill="#dddaaf" opacity="1" stroke-width="4" stroke="#000000"></path><path d="M719.47 515.01H757.51C761.48 515.01 765.26 518.24 765.94 522.21 766.62 526.17 763.95 529.4 759.98 529.4H721.94C717.98 529.4 714.19 526.17 713.51 522.21 712.83 518.24 715.51 515.01 719.47 515.01Z" fill="#fff461" opacity="1" stroke-width="4" stroke="#000000"></path></g><g><path d="M942.37 589.33L890.6 565.09C890.5 565.09 890.5 565.09 890.5 565.2 878.19 592.67 875.16 600.68 874.86 601.49L874.76 601.6C871.53 600.89 764.35 577.26 732.56 576.25 722.36 575.94 720.04 584.76 728.02 590.64 728.12 590.64 728.12 590.75 728.02 590.85 723.17 593.08 714.9 598.65 721.66 609.5V609.61C721.15 610.31 715.91 618.32 725.09 626.33V626.44C724.69 627.25 721.05 636.78 732.15 643.27 732.15 643.27 732.26 643.37 732.15 643.37 731.95 644.08 730.94 649.76 740.03 654.93 741.04 655.54 742.04 656.04 743.05 656.35 750.62 659.19 754.16 653.91 751.53 648.03V647.93C752.24 647.63 756.27 645.5 754.05 639.92 754.05 639.82 754.05 639.72 754.16 639.82 818.14 662.53 897.77 688.29 948.63 632.11 948.63 632.11 948.63 632.11 948.63 632.01 948.43 630.39 942.58 590.95 942.37 589.33Z" fill="#f9d5b4" opacity="1" stroke-width="4" stroke="#000000"></path><path d="M727.92 590.64L737.7 592.57" stroke="#000000" stroke-width="4" stroke-linecap="round" stroke-linejoin="round" opacity="1" fill="none"></path><path d="M758.39 872.21C756.98 893.61 754.86 913.38 750.22 928.99 748.3 935.78 745.37 942.27 741.54 948.26 738.81 952.21 735.38 955.96 731.75 959.1 731.65 959.1 731.75 959.21 731.75 959.31 746.28 966.91 753.95 983.95 756.38 1000.27 756.38 1000.27 756.38 1000.37 756.48 1000.37H801.59C801.59 1000.37 801.69 1000.37 801.69 1000.27 806.43 978.37 818.04 960.02 840.34 960.02 840.44 960.02 840.54 960.02 840.75 960.02 842.66 950.89 844.58 940.35 846.5 929.09 847.91 920.88 849.22 912.06 850.43 902.73 851.85 892.19 852.96 882.15 853.76 872.41 853.76 872.31 853.76 872.31 853.66 872.31H758.39V872.21Z" fill="#f9d5b4" opacity="1" stroke-width="4" stroke="#000000"></path><path d="M776.96 872.21L839.13 964.38C840.54 956.16 849.42 911.96 850.64 902.63 852.05 892.08 853.16 881.94 853.97 872.21H776.96Z" fill="#f9d5b400" opacity="0" stroke-width="4" stroke="#ffffff00"></path><path d="M732.05 958.9H731.95C719.94 969.65 704.6 976.85 694.21 989.83 693 991.35 691.48 994.39 690.27 996.92 689.87 997.74 691.28 998.55 691.99 999.26 692.49 999.66 693.1 999.97 693.7 999.97L759.3 999.86C759.4 999.86 759.4 999.76 759.4 999.76 756.88 983.44 746.59 966.51 732.05 958.9Z" fill="#8fffa9" opacity="1" stroke-width="4" stroke="#000000"></path><path d="M963.06 502.23C977.84 502.23 989.81 490.21 989.81 475.36 989.81 460.53 977.84 448.49 963.06 448.49 948.3 448.49 936.32 460.53 936.32 475.36 936.32 490.21 948.3 502.23 963.06 502.23Z" fill="#f3ebe9" opacity="1" stroke-width="4" stroke="#000000"></path><path d="M1032.7 467.76L994.75 472.93 971.14 467.86C971.04 467.86 971.04 467.76 971.04 467.76L972.35 459.85C972.35 459.75 972.25 459.75 972.25 459.75 962.36 462.79 946.81 462.28 940.15 452.95 933.8 444.03 933.8 433.79 939.75 415.13V415.03C939.35 414.53 934.7 408.34 935.51 404.79 936.32 401.55 943.99 400.64 944.69 400.53 944.69 400.53 944.8 400.53 944.8 400.43 952.36 377.82 956.91 362.61 975.37 355.41 994.85 347.71 1019.48 351.16 1034.72 364.74 1049.96 378.33 1044.51 405.2 1041.88 418.89 1040.57 426.49 1036.03 451.23 1032.7 467.76 1032.8 467.76 1032.8 467.76 1032.7 467.76Z" fill="#f9d5b4" opacity="1" stroke-width="4" stroke="#000000"></path><path d="M1074.48 498.17C1056.41 482.26 1032.8 478.2 1031.18 477.9 1031.08 477.9 1031.08 477.79 1031.08 477.79 1031.18 476.98 1032.19 470.9 1032.7 467.86 1032.7 467.76 1032.7 467.76 1032.6 467.76H991.22 971.14C971.14 467.76 971.04 467.76 971.04 467.86L969.12 479.11C969.02 479.62 968.71 479.92 968.21 480.03 962.46 480.94 925.92 488.44 901.8 539.64 897.26 549.48 893.73 557.89 890.5 564.99V565.09L948.43 634.85C948.43 634.85 948.43 634.85 948.43 634.95L950.45 654.12C950.45 654.22 950.45 654.22 950.55 654.22L1057.12 651.18H1057.22L1108.79 586.49V586.39C1108.69 583.95 1105.16 518.15 1074.48 498.17Z" fill="#fff461" opacity="1" stroke-width="4" stroke="#000000"></path><path d="M1040.97 561.04C1040.97 560.94 1040.87 560.94 1040.87 560.94 1022.91 561.14 1032.29 608.69 1004.94 634.85 977.8 660.91 1000.81 654.22 1001.21 654.12L1057.32 651.07C1057.42 651.07 1057.42 650.97 1057.42 650.97L1045.31 610.52 1040.97 561.04Z" fill="#fff46100" opacity="0" stroke-width="4" stroke="#ffffff00"></path><path d="M988.19 453.36L970.93 473.33C970.63 473.64 970.13 473.54 970.13 473.03L971.04 467.76 972.35 459.65C972.75 459.54 982.74 455.18 987.69 452.55 988.09 452.45 988.49 453.06 988.19 453.36Z" fill="#f9d5b400" opacity="0" stroke-width="4" stroke="#ffffff00"></path><path d="M956.3 406.21C957.87 406.21 959.13 404.94 959.13 403.37 959.13 401.8 957.87 400.53 956.3 400.53 954.75 400.53 953.47 401.8 953.47 403.37 953.47 404.94 954.75 406.21 956.3 406.21Z" fill="#231f20" opacity="1" stroke-width="4" stroke="#000000"></path><path d="M1034.82 364.34C1012.61 344.16 966.29 345.68 953.58 376.4V376.5C954.48 377.11 965.38 383.4 982.64 379.65 982.74 379.65 982.74 379.75 982.74 379.75 974.06 401.24 987.99 408.54 988.8 408.95H988.9C990.01 408.44 1015.54 396.99 1022.2 410.98 1032.09 431.86 1002.32 442 1001.01 442.41 1001.01 442.41 1001.01 442.41 1000.91 442.51 1000.2 444.44 976.38 512.67 1024.12 532.75 1051.47 541.98 1075.99 534.57 1092.04 519.77 1092.04 519.77 1092.14 519.77 1092.24 519.77 1096.28 527.38 1099.31 535.59 1101.73 543.9L1101.83 544C1132.01 540.86 1136.04 501.52 1109.9 492.29L1109.8 492.19C1111.82 483.07 1113.74 465.93 1103.75 450.72 1086.19 423.96 1044.3 438.05 1041.48 438.96 1041.38 438.96 1041.38 438.96 1041.38 438.86 1045.31 414.83 1054.9 385.33 1034.82 364.34Z" fill="#f3ebe9" opacity="1" stroke-width="4" stroke="#000000"></path><path d="M840.85 959.51C840.75 959.51 840.64 959.51 840.44 959.51 818.14 959.51 798.86 975.12 794.12 997.03H831.56C834.19 987.7 837.42 975.12 840.85 959.51Z" fill="#8fffa9" opacity="1" stroke-width="4" stroke="#000000"></path><path d="M876.67 790.29L825.1 872.21C825.1 872.21 825.1 872.21 825.1 872.31 826.82 892.9 828.13 912.46 827.63 929.09 827.52 934.87 827.02 940.65 826.31 946.33 825.51 951.8 822.78 956.87 818.85 960.83 818.85 960.83 818.85 960.93 818.85 961.03 831.66 968.94 840.44 982.22 842.66 997.23 842.66 997.23 842.66 997.33 842.76 997.33L893.43 999.97C893.43 999.97 893.53 999.97 893.53 999.86 897.97 979.48 909.07 970.66 922.19 960.22 922.19 960.22 922.19 960.22 922.19 960.12 923.5 950.59 924.71 940.04 925.82 929.19 926.73 920.68 927.44 911.86 927.94 902.83 928.55 891.98 928.95 881.84 929.15 872.41 929.15 872.41 929.15 872.41 929.15 872.31L876.77 790.29C876.77 790.29 876.77 790.29 876.67 790.29Z" fill="#f9d5b4" opacity="1" stroke-width="4" stroke="#000000"></path><path d="M1079.5 375.48C1095.19 364.8 1100.68 345.43 1091.77 332.23 1082.86 319.01 1062.91 316.96 1047.22 327.64 1031.54 338.32 1026.05 357.69 1034.96 370.9 1043.87 384.11 1063.81 386.17 1079.5 375.48Z" fill="#f3ebe9" opacity="1" stroke-width="4" stroke="#000000"></path><path d="M818.95 960.83H818.85C808.65 971.47 790.79 977.76 781 989.83 779.28 991.96 776.96 997.03 775.85 999.66 775.85 999.76 775.85 999.76 775.95 999.76H843.47C843.57 999.76 843.57 999.76 843.57 999.66 843.47 983.54 831.86 968.64 818.95 960.83Z" fill="#8fffa9" opacity="1" stroke-width="4" stroke="#000000"></path><path d="M922.29 959.61C901.6 961.44 883.54 979.38 879.1 999.76 879.1 999.86 879.1 999.86 879.2 999.86H915.63C915.63 999.86 915.73 999.86 915.73 999.76 917.55 990.13 920.37 974.41 922.49 959.71 922.39 959.71 922.29 959.61 922.29 959.61Z" fill="#8fffa9" opacity="1" stroke-width="4" stroke="#000000"></path><path d="M1073.47 670.44H933.29C933.09 670.44 832.37 677.54 793.01 717.08 760.31 749.93 762.23 821.62 757.79 879.21 757.79 879.31 757.79 879.31 757.89 879.31H868.5C868.5 879.31 868.6 879.31 868.6 879.21L878.59 818.78C878.59 818.68 878.69 818.68 878.79 818.78 887.67 836.72 899.28 877.38 899.78 879.31 899.78 879.31 899.78 879.41 899.89 879.41H928.95C929.05 879.41 929.05 879.41 929.05 879.31 930.57 827.6 926.13 793.13 925.82 790.89 925.82 790.79 925.82 790.79 925.92 790.79H1014.84C1014.84 790.79 1059.24 792.21 1073.37 755.81 1087.4 720.22 1074.18 672.47 1073.47 670.44 1073.57 670.44 1073.57 670.44 1073.47 670.44Z" fill="#8fffa9" opacity="1" stroke-width="4" stroke="#000000"></path><path d="M1073.57 670.44H966.59C1004.04 682.1 1023.01 701.47 1041.88 715.76 1063.98 732.49 1079.22 730.87 1079.22 730.87 1082.25 700.35 1073.57 670.44 1073.57 670.44Z" fill="#8fffa900" opacity="0" stroke-width="4" stroke="#ffffff00"></path><path d="M926.13 790.69H972.35C972.45 790.69 972.45 790.49 972.35 790.49 948.53 784.1 938.03 759.67 920.47 759.56 920.37 759.56 920.37 759.67 920.37 759.67 923.9 777.92 925.82 789.58 926.13 790.69 926.02 790.69 926.02 790.69 926.13 790.69Z" fill="#8fffa900" opacity="0" stroke-width="4" stroke="#ffffff00"></path><path d="M776.66 997.03C765.06 996.35 761.71 1015.93 774.04 1016.09 774.04 1016.19 774.04 1016.19 774.14 1016.19H912C912 1016.19 912.1 1016.19 912.1 1016.09 912.3 1015.38 914.01 1008.28 916.23 997.03 916.23 996.92 916.23 996.92 916.13 996.92L776.66 997.03C776.66 996.92 776.66 996.92 776.66 997.03Z" fill="#11461d" stroke-linejoin="round" opacity="1" stroke-width="4" stroke="#000000"></path><path d="M687.35 1016.19H773.94C774.04 1016.19 774.04 1016.19 774.04 1016.09 773.94 1015.17 773.33 1008.79 776.76 997.03 776.76 996.92 776.76 996.92 776.66 996.92H690.27C690.27 996.92 690.17 996.92 690.17 997.03 687.75 1003.11 686.54 1009.7 687.24 1016.09 687.24 1016.19 687.24 1016.19 687.35 1016.19Z" fill="#11461d" opacity="1" stroke-width="4" stroke="#000000"></path><path d="M948.43 552.12C948.43 552.01 948.43 552.01 948.43 552.12 947.02 551.61 921.99 544.71 885.55 550.7 856.69 555.46 837.11 565.5 829.75 569.96 829.75 569.96 829.64 570.06 829.75 570.06L851.85 725.19C851.85 725.29 851.95 725.29 851.95 725.29 852.55 724.89 853.87 724.08 855.68 723.06 863.76 718.4 882.83 708.87 910.58 704.41 946.41 698.63 971.14 705.12 973.36 705.73 973.46 705.73 973.46 705.73 973.46 705.62L948.43 552.12Z" fill="#ffffff" opacity="1" stroke-width="4" stroke="#000000"></path><path d="M907.86 684.39C926.73 681.35 938.27 655.26 933.6 626.12 928.95 596.98 909.88 575.83 890.99 578.87 872.12 581.91 860.59 608 865.25 637.14 869.9 666.28 888.98 687.43 907.86 684.39Z" fill="#f9f9f9" opacity="1" stroke-width="4" stroke="#000000"></path><path d="M829.64 569.96C813.6 558.4 795.73 549.48 776.96 543.4 745.17 533.26 726.3 537.52 724.99 537.82 724.89 537.82 724.89 537.92 724.89 537.92L734.48 600.89C735.69 601.09 740.53 602.2 744.77 605.45 754.16 612.65 746.99 618.93 746.99 618.93 759.71 628.26 751.13 635.26 751.13 635.26 758.9 644.79 751.33 647.83 751.33 647.83 754.05 653.81 750.52 659.08 742.95 656.25L748.71 694.27C748.71 694.37 748.81 694.37 748.81 694.37 750.32 693.96 769.19 689.91 800.78 699.95 817.94 705.52 848.92 723.67 851.54 725.19 851.65 725.19 851.75 725.19 851.65 725.09L829.64 569.96Z" fill="#ebebeb" opacity="1" stroke-width="4" stroke="#000000"></path><path d="M1105.77 651.28C1098.7 669.53 1081.44 677.64 1059.34 677.64H970.53C956.91 677.64 945.3 693.86 937.23 693.86 930.36 693.86 936.52 680.99 943.58 673.89 943.89 673.58 943.48 672.98 943.08 673.28 934.4 677.84 910.48 689.2 905.94 678.96 905.84 678.75 905.74 678.65 905.54 678.75 903.52 679.06 892.32 680.58 895.65 668.92 895.75 668.72 895.65 668.51 895.45 668.41 894.23 667.8 890.1 664.76 894.74 657.36 903.82 643.17 927.03 625.93 956.3 620.86 984.16 615.99 1039.56 611.23 1044.71 610.72 1044.91 610.72 1045.11 610.52 1045.11 610.31L1043.19 586.79C1043.19 586.59 1043.4 586.39 1043.6 586.39H1108.69C1108.79 586.39 1108.79 586.39 1108.79 586.49 1108.99 588.72 1111.82 635.56 1105.77 651.28Z" fill="#f9d5b4" opacity="1" stroke-width="4" stroke="#000000"></path><path d="M955.09 423.75C953.37 427.2 948.33 427.71 945.8 426.79" stroke="#000000" stroke-width="4" stroke-linecap="round" stroke-linejoin="round" opacity="1" fill="none"></path><path d="M987.69 452.55C987.69 452.55 976.79 457.72 972.55 459.44" stroke="#000000" stroke-width="4" stroke-linecap="round" stroke-linejoin="round" opacity="1" fill="none"></path><path d="M1000.91 421.72L992.43 426.9" stroke="#000000" stroke-width="4" stroke-linecap="round" stroke-linejoin="round" opacity="1" fill="none"></path><path d="M825.2 879.51C826.92 900.09 828.13 912.36 827.63 928.99 827.52 934.77 827.02 940.55 826.31 946.23 825.51 951.7 822.88 956.77 818.85 960.73 808.75 971.37 790.89 977.66 781 989.83 779.28 991.96 777.87 994.39 776.76 996.92" stroke="#000000" stroke-width="4" stroke-linecap="round" stroke-linejoin="round" opacity="1" fill="none"></path><path d="M926.02 790.59L920.47 759.97" stroke="#000000" stroke-width="4" stroke-linecap="round" stroke-linejoin="round" opacity="1" fill="none"></path><path d="M739.93 654.83C749.61 660.4 754.36 654.52 751.33 647.83 751.33 647.83 758.9 644.79 751.13 635.26 751.13 635.26 759.71 628.26 746.99 618.93 746.99 618.93 754.16 612.65 744.77 605.45 739.82 601.7 734.17 600.78 734.17 600.78" stroke="#000000" stroke-width="4" stroke-linecap="round" stroke-linejoin="round" opacity="1" fill="none"></path><path d="M721.56 609.4C726.2 616.09 739.52 619.44 746.99 618.93" stroke="#000000" stroke-width="4" stroke-linecap="round" stroke-linejoin="round" opacity="1" fill="none"></path><path d="M725.09 626.23C730.64 631.2 739.93 636.68 751.23 635.26" stroke="#000000" stroke-width="4" stroke-linecap="round" stroke-linejoin="round" opacity="1" fill="none"></path><path d="M732.15 643.17C734.98 646.21 746.18 649.86 751.43 647.83" stroke="#000000" stroke-width="4" stroke-linecap="round" stroke-linejoin="round" opacity="1" fill="none"></path><path d="M1045.31 610.62C1041.58 610.92 1019.28 613.15 1019.28 613.15" stroke="#000000" stroke-width="4" stroke-linecap="round" stroke-linejoin="round" opacity="1" fill="none"></path><path d="M906.04 678.55C930.26 661.32 943.48 655.03 951.46 651.58" stroke="#000000" stroke-width="4" stroke-linecap="round" stroke-linejoin="round" opacity="1" fill="none"></path><path d="M895.95 668.41C903.01 661.32 925.22 646.11 944.09 637.79" stroke="#000000" stroke-width="4" stroke-linecap="round" stroke-linejoin="round" opacity="1" fill="none"></path><path d="M1041.28 560.94C1041.98 569.86 1045.31 610.62 1045.31 610.62" stroke="#000000" stroke-width="4" stroke-linecap="round" stroke-linejoin="round" opacity="1" fill="none"></path><path d="M829.54 568.95L851.75 725.29" stroke="#000000" stroke-width="4" stroke-linecap="round" stroke-linejoin="round" opacity="1" fill="none"></path></g><g><path d="M1066.17 814.2L1114.37 1013.09" stroke="#000000" stroke-width="4" stroke-linecap="round" stroke-linejoin="round" opacity="1" fill="none"></path><path d="M972.51 814.2L924.32 1013.09" stroke="#000000" stroke-width="4" stroke-linecap="round" stroke-linejoin="round" opacity="1" fill="none"></path><path d="M954.14 890.61H1084.44" stroke="#000000" stroke-width="4" stroke-linecap="round" stroke-linejoin="round" opacity="1" fill="none"></path><path d="M946.37 788.68H1092.21C1103.03 788.68 1111.74 795.24 1111.74 803.38 1111.74 811.51 1103.03 818.07 1092.21 818.07H946.37C935.55 818.07 926.84 811.51 926.84 803.38 926.84 795.32 935.66 788.68 946.37 788.68Z" fill="#ffe499" opacity="1" stroke-width="4" stroke="#000000"></path><path d="M927.26 806.22C929.04 812.94 936.92 818.07 946.37 818.07H1092.21C1103.03 818.07 1111.74 811.51 1111.74 803.38 1111.74 800.06 1110.27 797.05 1107.86 794.6 1082.34 800.93 1051.89 805.59 1018.92 807.8 985.43 810.01 954.03 809.3 927.26 806.22Z" fill="#ffe49900" opacity="0" stroke-width="4" stroke="#ffffff00"></path></g><g><path d="M602.04 678.41L581.05 559.27H450.57L471.56 678.41H602.04Z" fill="#fff461" opacity="1" stroke-width="4" stroke="#000000"></path><path d="M515.93 559.27L536.97 678.41" stroke="#000000" stroke-width="4" stroke-linecap="round" stroke-linejoin="round" opacity="1" fill="none"></path><path d="M544.35 652.31H584.74L578.22 615.43H537.83L544.35 652.31Z" fill="#ffffff" opacity="1" stroke-width="4" stroke="#000000"></path><path d="M474 626.21H514.4L507.87 589.34H467.48L474 626.21Z" fill="#ffffff" opacity="1" stroke-width="4" stroke="#000000"></path><path d="M587.01 664.79H546.73" stroke="#000000" stroke-width="4" stroke-linecap="round" stroke-linejoin="round" opacity="1" fill="none"></path><path d="M571.13 573.45H530.85" stroke="#000000" stroke-width="4" stroke-linecap="round" stroke-linejoin="round" opacity="1" fill="none"></path><path d="M504.75 573.45H464.47" stroke="#000000" stroke-width="4" stroke-linecap="round" stroke-linejoin="round" opacity="1" fill="none"></path><path d="M521.2 664.79H480.92" stroke="#000000" stroke-width="4" stroke-linecap="round" stroke-linejoin="round" opacity="1" fill="none"></path><path d="M549.28 589.34H533.12" stroke="#000000" stroke-width="4" stroke-linecap="round" stroke-linejoin="round" opacity="1" fill="none"></path><path d="M573.4 589.34H557.23" stroke="#000000" stroke-width="4" stroke-linecap="round" stroke-linejoin="round" opacity="1" fill="none"></path><path d="M550.99 599.55H534.82" stroke="#000000" stroke-width="4" stroke-linecap="round" stroke-linejoin="round" opacity="1" fill="none"></path><path d="M575.1 599.55H558.93" stroke="#000000" stroke-width="4" stroke-linecap="round" stroke-linejoin="round" opacity="1" fill="none"></path><path d="M493.12 641.53H476.95" stroke="#000000" stroke-width="4" stroke-linecap="round" stroke-linejoin="round" opacity="1" fill="none"></path><path d="M517.23 641.53H501.06" stroke="#000000" stroke-width="4" stroke-linecap="round" stroke-linejoin="round" opacity="1" fill="none"></path><path d="M494.82 651.74H478.66" stroke="#000000" stroke-width="4" stroke-linecap="round" stroke-linejoin="round" opacity="1" fill="none"></path><path d="M518.93 651.74H502.77" stroke="#000000" stroke-width="4" stroke-linecap="round" stroke-linejoin="round" opacity="1" fill="none"></path></g><g><path d="M335.31 860.49C330.73 843.43 305.77 838.33 295.5 871.27 286.56 900.01 273.93 904.22 268.17 932.65 262.71 959.83 278.44 999.12 318.76 996.32 361.23 993.36 335.31 860.49 335.31 860.49Z" stroke="#000000" stroke-width="4" stroke-linecap="round" stroke-linejoin="round" opacity="1" fill="none"></path><path d="M352.36 787.74L406.91 890.07 311.75 940.8 257.2 838.47 352.36 787.74Z" fill="#8fffa9" opacity="1" stroke-width="4" stroke="#000000"></path><path d="M378.96 801.33H378.66C362.27 801.33 348.97 814.63 348.97 831.02V858.72H408.65V831.02C408.65 814.63 395.36 801.33 378.96 801.33Z" stroke="#000000" stroke-width="4" stroke-linecap="round" stroke-linejoin="round" opacity="1" fill="none"></path><path d="M378.89 829.18H378.22C335.68 829.18 301.26 863.67 301.26 906.14V997.8C301.26 1007.62 309.24 1015.6 319.06 1015.6H438.05C447.87 1015.6 455.85 1007.62 455.85 997.8V906.22C455.92 863.67 421.43 829.18 378.89 829.18 378.89 829.18 378.96 829.18 378.89 829.18Z" fill="#ffe499" opacity="1" stroke-width="4" stroke="#000000"></path><path d="M409.39 923.72H347.86C337.89 923.72 329.77 931.85 329.77 941.82V980.59C329.77 990.56 337.89 998.69 347.86 998.69H409.39C419.36 998.69 427.48 990.56 427.48 980.59V941.82C427.48 931.85 419.36 923.72 409.39 923.72Z" fill="#ffe49900" opacity="0" stroke-width="4" stroke="#ffffff00"></path><path d="M409.14 927.83H347.86C339.38 927.33 337.39 932.75 329.73 943.83V972.47C329.77 982.44 337.89 990.56 347.86 990.56H409.39C419.36 990.56 427.48 982.44 427.48 972.47V943.49C421.59 929.4 418.75 928.32 409.14 927.33Z" fill="#36ff65" opacity="1" stroke-width="4" stroke="#000000"></path><path d="M409.39 915.6H347.86C337.89 915.6 329.77 923.72 329.77 933.69V943.44H427.48V933.69C427.48 923.72 419.36 915.6 409.39 915.6Z" fill="#8fffa9" stroke="#000000" stroke-width="4" opacity="1"></path><path d="M427.48 943.44H329.7" stroke="#000000" stroke-width="4" stroke-linecap="round" stroke-linejoin="round" opacity="1" fill="none"></path><path d="M378.59 892.26C370.43 892.26 363.82 885.64 363.82 877.49 363.82 869.32 370.43 862.71 378.59 862.71 386.74 862.71 393.36 869.32 393.36 877.49 393.36 885.64 386.74 892.26 378.59 892.26Z" fill="#8fffa9" opacity="1" stroke-width="4" stroke="#000000"></path></g><g><path d="M1300.09 962.44C1299.82 962.44 1299.65 962.44 1299.38 962.44 1292.25 962.08 1286.72 955.93 1287.08 948.71 1287.35 943.9 1290.2 939.71 1294.48 937.66 1311.32 929.64 1310.25 923.93 1307.13 906.82 1304.55 892.83 1300.98 873.66 1313.37 853.52 1315.78 849.69 1319.88 847.37 1324.42 847.37 1326.83 847.37 1329.15 848.08 1331.2 849.33 1337.35 853.08 1339.22 861.1 1335.48 867.25 1328.35 878.83 1330.31 889.62 1332.62 902.1 1335.92 920.01 1340.56 944.52 1305.62 961.19 1303.92 961.99 1302.05 962.44 1300.09 962.44Z" fill="#8fffa9" opacity="1" stroke-width="4" stroke="#000000"></path><path d="M1316.94 939.71C1311.86 937.84 1307.04 935.61 1302.5 933.03 1300.45 934.54 1297.77 936.06 1294.48 937.66 1290.2 939.71 1287.35 943.99 1287.08 948.71 1286.72 955.84 1292.25 961.99 1299.38 962.44 1299.65 962.44 1299.82 962.44 1300.09 962.44 1302.05 962.44 1303.92 961.99 1305.71 961.19 1316.94 955.84 1324.16 949.69 1328.52 943.1 1324.6 942.3 1320.77 941.14 1316.94 939.71Z" fill="#8fffa900" opacity="0" stroke-width="4" stroke="#ffffff00"></path><path d="M1068.26 1016.1C1067.64 1014.4 1067.28 1012.62 1067.28 1010.84 1067.28 1003.08 1073.61 996.75 1081.36 996.75H1142.95L1181.46 1015.74 1181.37 1016.1H1068.26Z" fill="#8fffa9" opacity="1" stroke-width="4" stroke="#000000"></path><path d="M1128.16 1016.1C1118.44 1016.1 1109.17 1011.37 1103.47 1003.53L1101.69 1001.03C1099.1 997.47 1098.83 992.65 1101.15 988.91L1113.45 968.32C1116.75 962.71 1122.1 958.7 1128.34 956.91L1135.56 954.86 1136.09 934.54C1136.09 933.47 1136.63 932.4 1137.34 931.69 1138.05 930.98 1139.03 930.62 1140.1 930.62 1141.17 930.62 1142.33 931.06 1143.04 931.87 1147.94 937.21 1155.7 945.5 1165.77 956.47 1167.91 958.78 1170.32 959.94 1173.17 959.94 1180.12 959.94 1188.86 953.26 1199.02 945.5 1214.53 933.65 1233.87 918.94 1257.22 918.94 1263.81 918.94 1270.5 920.19 1277.1 922.51 1292.78 928.21 1303.83 937.93 1309.72 951.39 1322.28 979.82 1308.02 1015.65 1307.85 1016.01L1307.76 1016.1H1128.16Z" fill="#ffe499" opacity="1" stroke-width="4" stroke="#000000"></path><path d="M1104.45 1004.78C1104.09 1004.33 1103.83 1003.97 1103.47 1003.53L1101.69 1001.03C1099.1 997.47 1098.83 992.65 1101.15 988.91L1103.47 985.08C1103.47 985.08 1103.83 985.08 1104 985.08 1108.73 985.08 1112.47 987.48 1113.36 991.05 1114.34 994.97 1109.8 1002.19 1104.72 1004.86L1104.63 1004.95 1104.45 1004.78Z" fill="#ebebeb" opacity="1" stroke-width="4" stroke="#000000"></path><path d="M1182.26 1015.92C1179.5 1008.79 1182.97 1000.68 1190.19 997.91 1191.8 997.29 1193.49 996.93 1195.27 996.93H1219.69C1216.58 973.49 1233.06 952.01 1256.51 948.89 1258.38 948.62 1260.25 948.53 1262.12 948.53H1263.28" stroke="#000000" stroke-width="4" stroke-linecap="round" stroke-linejoin="round" opacity="1" fill="none"></path><path d="M1271.66 995.42C1268.54 995.42 1265.6 994.53 1263.1 992.83 1259.45 990.34 1257.13 986.24 1256.68 981.42 1256.24 976.61 1257.58 971.62 1260.52 967.43 1264.44 961.81 1270.59 958.34 1276.74 958.34 1279.86 958.34 1282.8 959.23 1285.3 960.92 1288.95 963.42 1291.27 967.52 1291.71 972.33 1292.16 977.15 1290.82 982.14 1287.88 986.33 1283.96 991.94 1277.72 995.42 1271.66 995.42Z" fill="#8fffa9" opacity="1" stroke-width="4" stroke="#000000"></path><path d="M1236.1 945.68C1231.46 945.68 1227.18 944.52 1223.26 942.3 1219.87 940.33 1216.93 937.57 1214.79 934.27L1214.7 934.1 1214.88 934.01C1224.6 927.59 1239.57 918.94 1257.22 918.94 1261.05 918.94 1264.88 919.3 1268.63 920.1H1268.81L1268.72 920.28C1267.91 922.6 1266.85 924.83 1265.6 926.96 1259 938.55 1247.68 945.68 1236.1 945.68Z" fill="#8fffa9" opacity="1" stroke-width="4" stroke="#000000"></path><path d="M1118.89 983.92C1120.58 986.06 1126.73 987.22 1130.12 986.06" stroke="#000000" stroke-width="4" stroke-linecap="round" stroke-linejoin="round" opacity="1" fill="none"></path></g></svg>